<svg xmlns="http://www.w3.org/2000/svg" width="766" height="802" viewBox="0 0 766 802" font-family="Arial, sans-serif">
<rect width="766" height="802" fill="#ffffff"/>
<line x1="120.8" y1="572.0" x2="120.8" y2="60.0" stroke="#c0392b" stroke-width="1.0" stroke-dasharray="10 3 2 3"/>
<circle cx="120.8" cy="584.8" r="12.0" fill="#ffffff" stroke="#c0392b" stroke-width="1"/>
<text x="120.8" y="588.8" font-size="10" text-anchor="middle" fill="#c0392b">1</text>
<line x1="280.8" y1="572.0" x2="280.8" y2="60.0" stroke="#c0392b" stroke-width="1.0" stroke-dasharray="10 3 2 3"/>
<circle cx="280.8" cy="584.8" r="12.0" fill="#ffffff" stroke="#c0392b" stroke-width="1"/>
<text x="280.8" y="588.8" font-size="10" text-anchor="middle" fill="#c0392b">2</text>
<line x1="440.8" y1="572.0" x2="440.8" y2="60.0" stroke="#c0392b" stroke-width="1.0" stroke-dasharray="10 3 2 3"/>
<circle cx="440.8" cy="584.8" r="12.0" fill="#ffffff" stroke="#c0392b" stroke-width="1"/>
<text x="440.8" y="588.8" font-size="10" text-anchor="middle" fill="#c0392b">3</text>
<line x1="600.8" y1="572.0" x2="600.8" y2="60.0" stroke="#c0392b" stroke-width="1.0" stroke-dasharray="10 3 2 3"/>
<circle cx="600.8" cy="584.8" r="12.0" fill="#ffffff" stroke="#c0392b" stroke-width="1"/>
<text x="600.8" y="588.8" font-size="10" text-anchor="middle" fill="#c0392b">4</text>
<line x1="84.8" y1="536.0" x2="636.8" y2="536.0" stroke="#c0392b" stroke-width="1.0" stroke-dasharray="10 3 2 3"/>
<circle cx="72.0" cy="536.0" r="12.0" fill="#ffffff" stroke="#c0392b" stroke-width="1"/>
<text x="72.0" y="540.0" font-size="10" text-anchor="middle" fill="#c0392b">A</text>
<line x1="84.8" y1="396.0" x2="636.8" y2="396.0" stroke="#c0392b" stroke-width="1.0" stroke-dasharray="10 3 2 3"/>
<circle cx="72.0" cy="396.0" r="12.0" fill="#ffffff" stroke="#c0392b" stroke-width="1"/>
<text x="72.0" y="400.0" font-size="10" text-anchor="middle" fill="#c0392b">B</text>
<line x1="84.8" y1="256.0" x2="636.8" y2="256.0" stroke="#c0392b" stroke-width="1.0" stroke-dasharray="10 3 2 3"/>
<circle cx="72.0" cy="256.0" r="12.0" fill="#ffffff" stroke="#c0392b" stroke-width="1"/>
<text x="72.0" y="260.0" font-size="10" text-anchor="middle" fill="#c0392b">C</text>
<line x1="84.8" y1="96.0" x2="636.8" y2="96.0" stroke="#c0392b" stroke-width="1.0" stroke-dasharray="10 3 2 3"/>
<circle cx="72.0" cy="96.0" r="12.0" fill="#ffffff" stroke="#c0392b" stroke-width="1"/>
<text x="72.0" y="100.0" font-size="10" text-anchor="middle" fill="#c0392b">D</text>
<polygon points="114.8,542.0 126.8,542.0 126.8,530.0 114.8,530.0" fill="#333333" stroke="#111111" stroke-width="1.1"/>
<polygon points="114.8,402.0 126.8,402.0 126.8,390.0 114.8,390.0" fill="#333333" stroke="#111111" stroke-width="1.1"/>
<polygon points="114.8,262.0 126.8,262.0 126.8,250.0 114.8,250.0" fill="#333333" stroke="#111111" stroke-width="1.1"/>
<polygon points="114.8,102.0 126.8,102.0 126.8,90.0 114.8,90.0" fill="#333333" stroke="#111111" stroke-width="1.1"/>
<polygon points="274.8,542.0 286.8,542.0 286.8,530.0 274.8,530.0" fill="#333333" stroke="#111111" stroke-width="1.1"/>
<polygon points="274.8,402.0 286.8,402.0 286.8,390.0 274.8,390.0" fill="#333333" stroke="#111111" stroke-width="1.1"/>
<polygon points="274.8,262.0 286.8,262.0 286.8,250.0 274.8,250.0" fill="#333333" stroke="#111111" stroke-width="1.1"/>
<polygon points="274.8,102.0 286.8,102.0 286.8,90.0 274.8,90.0" fill="#333333" stroke="#111111" stroke-width="1.1"/>
<polygon points="434.8,542.0 446.8,542.0 446.8,530.0 434.8,530.0" fill="#333333" stroke="#111111" stroke-width="1.1"/>
<polygon points="434.8,402.0 446.8,402.0 446.8,390.0 434.8,390.0" fill="#333333" stroke="#111111" stroke-width="1.1"/>
<polygon points="434.8,262.0 446.8,262.0 446.8,250.0 434.8,250.0" fill="#333333" stroke="#111111" stroke-width="1.1"/>
<polygon points="434.8,102.0 446.8,102.0 446.8,90.0 434.8,90.0" fill="#333333" stroke="#111111" stroke-width="1.1"/>
<polygon points="594.8,542.0 606.8,542.0 606.8,530.0 594.8,530.0" fill="#333333" stroke="#111111" stroke-width="1.1"/>
<polygon points="594.8,402.0 606.8,402.0 606.8,390.0 594.8,390.0" fill="#333333" stroke="#111111" stroke-width="1.1"/>
<polygon points="594.8,262.0 606.8,262.0 606.8,250.0 594.8,250.0" fill="#333333" stroke="#111111" stroke-width="1.1"/>
<polygon points="594.8,102.0 606.8,102.0 606.8,90.0 594.8,90.0" fill="#333333" stroke="#111111" stroke-width="1.1"/>
<polygon points="120.8,536.0 128.8,536.0 128.8,96.0 120.8,96.0" fill="#4a4a4a" stroke="#1a1a1a" stroke-width="1.5"/>
<polygon points="592.8,536.0 600.8,536.0 600.8,96.0 592.8,96.0" fill="#4a4a4a" stroke="#1a1a1a" stroke-width="1.5"/>
<polygon points="120.8,536.0 600.8,536.0 600.8,528.0 120.8,528.0" fill="#4a4a4a" stroke="#1a1a1a" stroke-width="1.5"/>
<polygon points="120.8,104.0 600.8,104.0 600.8,96.0 120.8,96.0" fill="#4a4a4a" stroke="#1a1a1a" stroke-width="1.5"/>
<polygon points="318.4,464.0 318.4,96.0 323.2,96.0 323.2,464.0" fill="#4a4a4a" stroke="#1a1a1a" stroke-width="1.5"/>
<polygon points="414.4,464.0 414.4,96.0 419.2,96.0 419.2,464.0" fill="#4a4a4a" stroke="#1a1a1a" stroke-width="1.5"/>
<polygon points="120.8,461.6 600.8,461.6 600.8,466.4 120.8,466.4" fill="#4a4a4a" stroke="#1a1a1a" stroke-width="1.5"/>
<polygon points="120.8,273.6 320.8,273.6 320.8,278.4 120.8,278.4" fill="#4a4a4a" stroke="#1a1a1a" stroke-width="1.5"/>
<polygon points="416.8,293.6 600.8,293.6 600.8,298.4 416.8,298.4" fill="#4a4a4a" stroke="#1a1a1a" stroke-width="1.5"/>
<polygon points="320.8,397.6 416.8,397.6 416.8,402.4 320.8,402.4" fill="#4a4a4a" stroke="#1a1a1a" stroke-width="1.5"/>
<polygon points="320.8,197.6 416.8,197.6 416.8,202.4 320.8,202.4" fill="#4a4a4a" stroke="#1a1a1a" stroke-width="1.5"/>
<text x="224.8" y="370.0" font-size="10" text-anchor="middle" fill="#111111">SALA</text>
<text x="224.8" y="382.8" font-size="6" text-anchor="middle" fill="#111111">22.6 m2</text>
<text x="224.8" y="190.0" font-size="10" text-anchor="middle" fill="#111111">DORMITORIO 2</text>
<text x="224.8" y="202.8" font-size="6" text-anchor="middle" fill="#111111">20.6 m2</text>
<text x="508.8" y="380.0" font-size="10" text-anchor="middle" fill="#111111">COMEDOR</text>
<text x="508.8" y="392.8" font-size="6" text-anchor="middle" fill="#111111">19.3 m2</text>
<text x="508.8" y="200.0" font-size="10" text-anchor="middle" fill="#111111">DORMITORIO 3</text>
<text x="508.8" y="212.8" font-size="6" text-anchor="middle" fill="#111111">22.1 m2</text>
<text x="368.8" y="430.0" font-size="10" text-anchor="middle" fill="#111111">HALL</text>
<text x="368.8" y="234.0" font-size="10" text-anchor="middle" fill="#111111">BANO</text>
<text x="368.8" y="152.0" font-size="10" text-anchor="middle" fill="#111111">CLOSET</text>
<polygon points="140.8,524.0 580.8,524.0 580.8,480.0 140.8,480.0" fill="none" stroke="#8a8a8a" stroke-width="1.1"/>
<text x="360.8" y="502.0" font-size="8" text-anchor="middle" fill="#111111">BALCON</text>
<polygon points="326.8,394.0 410.8,394.0 410.8,276.0 326.8,276.0" fill="none" stroke="#8e44ad" stroke-width="1.1"/>
<line x1="326.8" y1="383.3" x2="410.8" y2="383.3" stroke="#8e44ad" stroke-width="1.0"/>
<line x1="326.8" y1="372.5" x2="410.8" y2="372.5" stroke="#8e44ad" stroke-width="1.0"/>
<line x1="326.8" y1="361.8" x2="410.8" y2="361.8" stroke="#8e44ad" stroke-width="1.0"/>
<line x1="326.8" y1="351.1" x2="410.8" y2="351.1" stroke="#8e44ad" stroke-width="1.0"/>
<line x1="326.8" y1="340.4" x2="410.8" y2="340.4" stroke="#8e44ad" stroke-width="1.0"/>
<line x1="326.8" y1="329.6" x2="410.8" y2="329.6" stroke="#8e44ad" stroke-width="1.0"/>
<line x1="326.8" y1="318.9" x2="410.8" y2="318.9" stroke="#8e44ad" stroke-width="1.0"/>
<line x1="326.8" y1="308.2" x2="410.8" y2="308.2" stroke="#8e44ad" stroke-width="1.0"/>
<line x1="326.8" y1="297.5" x2="410.8" y2="297.5" stroke="#8e44ad" stroke-width="1.0"/>
<line x1="326.8" y1="286.7" x2="410.8" y2="286.7" stroke="#8e44ad" stroke-width="1.0"/>
<line x1="368.8" y1="388.0" x2="368.8" y2="282.0" stroke="#8e44ad" stroke-width="1.0"/>
<line x1="368.8" y1="388.0" x2="364.0" y2="378.0" stroke="#8e44ad" stroke-width="1.0"/>
<line x1="368.8" y1="388.0" x2="373.6" y2="378.0" stroke="#8e44ad" stroke-width="1.0"/>
<text x="368.8" y="335.0" font-size="6" text-anchor="middle" fill="#111111">BAJA</text>
<rect x="180.8" y="532.0" width="88.0" height="8.0" fill="#ffffff"/>
<line x1="180.8" y1="538.7" x2="268.8" y2="538.7" stroke="#2c82c9" stroke-width="1.0"/>
<line x1="180.8" y1="536.0" x2="268.8" y2="536.0" stroke="#2c82c9" stroke-width="1.0"/>
<line x1="180.8" y1="533.3" x2="268.8" y2="533.3" stroke="#2c82c9" stroke-width="1.0"/>
<line x1="180.8" y1="540.0" x2="180.8" y2="532.0" stroke="#2c82c9" stroke-width="1.0"/>
<line x1="268.8" y1="540.0" x2="268.8" y2="532.0" stroke="#2c82c9" stroke-width="1.0"/>
<rect x="316.8" y="532.0" width="88.0" height="8.0" fill="#ffffff"/>
<line x1="316.8" y1="538.7" x2="404.8" y2="538.7" stroke="#2c82c9" stroke-width="1.0"/>
<line x1="316.8" y1="536.0" x2="404.8" y2="536.0" stroke="#2c82c9" stroke-width="1.0"/>
<line x1="316.8" y1="533.3" x2="404.8" y2="533.3" stroke="#2c82c9" stroke-width="1.0"/>
<line x1="316.8" y1="540.0" x2="316.8" y2="532.0" stroke="#2c82c9" stroke-width="1.0"/>
<line x1="404.8" y1="540.0" x2="404.8" y2="532.0" stroke="#2c82c9" stroke-width="1.0"/>
<rect x="464.8" y="532.0" width="88.0" height="8.0" fill="#ffffff"/>
<line x1="464.8" y1="538.7" x2="552.8" y2="538.7" stroke="#2c82c9" stroke-width="1.0"/>
<line x1="464.8" y1="536.0" x2="552.8" y2="536.0" stroke="#2c82c9" stroke-width="1.0"/>
<line x1="464.8" y1="533.3" x2="552.8" y2="533.3" stroke="#2c82c9" stroke-width="1.0"/>
<line x1="464.8" y1="540.0" x2="464.8" y2="532.0" stroke="#2c82c9" stroke-width="1.0"/>
<line x1="552.8" y1="540.0" x2="552.8" y2="532.0" stroke="#2c82c9" stroke-width="1.0"/>
<rect x="116.8" y="332.0" width="8.0" height="88.0" fill="#ffffff"/>
<line x1="118.1" y1="420.0" x2="118.1" y2="332.0" stroke="#2c82c9" stroke-width="1.0"/>
<line x1="120.8" y1="420.0" x2="120.8" y2="332.0" stroke="#2c82c9" stroke-width="1.0"/>
<line x1="123.5" y1="420.0" x2="123.5" y2="332.0" stroke="#2c82c9" stroke-width="1.0"/>
<line x1="116.8" y1="420.0" x2="124.8" y2="420.0" stroke="#2c82c9" stroke-width="1.0"/>
<line x1="116.8" y1="332.0" x2="124.8" y2="332.0" stroke="#2c82c9" stroke-width="1.0"/>
<rect x="116.8" y="148.0" width="8.0" height="96.0" fill="#ffffff"/>
<line x1="118.1" y1="244.0" x2="118.1" y2="148.0" stroke="#2c82c9" stroke-width="1.0"/>
<line x1="120.8" y1="244.0" x2="120.8" y2="148.0" stroke="#2c82c9" stroke-width="1.0"/>
<line x1="123.5" y1="244.0" x2="123.5" y2="148.0" stroke="#2c82c9" stroke-width="1.0"/>
<line x1="116.8" y1="244.0" x2="124.8" y2="244.0" stroke="#2c82c9" stroke-width="1.0"/>
<line x1="116.8" y1="148.0" x2="124.8" y2="148.0" stroke="#2c82c9" stroke-width="1.0"/>
<rect x="596.8" y="340.0" width="8.0" height="88.0" fill="#ffffff"/>
<line x1="598.1" y1="428.0" x2="598.1" y2="340.0" stroke="#2c82c9" stroke-width="1.0"/>
<line x1="600.8" y1="428.0" x2="600.8" y2="340.0" stroke="#2c82c9" stroke-width="1.0"/>
<line x1="603.5" y1="428.0" x2="603.5" y2="340.0" stroke="#2c82c9" stroke-width="1.0"/>
<line x1="596.8" y1="428.0" x2="604.8" y2="428.0" stroke="#2c82c9" stroke-width="1.0"/>
<line x1="596.8" y1="340.0" x2="604.8" y2="340.0" stroke="#2c82c9" stroke-width="1.0"/>
<rect x="596.8" y="152.0" width="8.0" height="96.0" fill="#ffffff"/>
<line x1="598.1" y1="248.0" x2="598.1" y2="152.0" stroke="#2c82c9" stroke-width="1.0"/>
<line x1="600.8" y1="248.0" x2="600.8" y2="152.0" stroke="#2c82c9" stroke-width="1.0"/>
<line x1="603.5" y1="248.0" x2="603.5" y2="152.0" stroke="#2c82c9" stroke-width="1.0"/>
<line x1="596.8" y1="248.0" x2="604.8" y2="248.0" stroke="#2c82c9" stroke-width="1.0"/>
<line x1="596.8" y1="152.0" x2="604.8" y2="152.0" stroke="#2c82c9" stroke-width="1.0"/>
<rect x="176.8" y="92.0" width="96.0" height="8.0" fill="#ffffff"/>
<line x1="176.8" y1="98.7" x2="272.8" y2="98.7" stroke="#2c82c9" stroke-width="1.0"/>
<line x1="176.8" y1="96.0" x2="272.8" y2="96.0" stroke="#2c82c9" stroke-width="1.0"/>
<line x1="176.8" y1="93.3" x2="272.8" y2="93.3" stroke="#2c82c9" stroke-width="1.0"/>
<line x1="176.8" y1="100.0" x2="176.8" y2="92.0" stroke="#2c82c9" stroke-width="1.0"/>
<line x1="272.8" y1="100.0" x2="272.8" y2="92.0" stroke="#2c82c9" stroke-width="1.0"/>
<rect x="460.8" y="92.0" width="96.0" height="8.0" fill="#ffffff"/>
<line x1="460.8" y1="98.7" x2="556.8" y2="98.7" stroke="#2c82c9" stroke-width="1.0"/>
<line x1="460.8" y1="96.0" x2="556.8" y2="96.0" stroke="#2c82c9" stroke-width="1.0"/>
<line x1="460.8" y1="93.3" x2="556.8" y2="93.3" stroke="#2c82c9" stroke-width="1.0"/>
<line x1="460.8" y1="100.0" x2="460.8" y2="92.0" stroke="#2c82c9" stroke-width="1.0"/>
<line x1="556.8" y1="100.0" x2="556.8" y2="92.0" stroke="#2c82c9" stroke-width="1.0"/>
<rect x="220.8" y="461.6" width="40.0" height="4.8" fill="#ffffff"/>
<line x1="220.8" y1="464.0" x2="220.8" y2="424.0" stroke="#2c82c9" stroke-width="1.0"/>
<polyline points="260.8,464.0 260.6,460.5 260.2,457.1 259.4,453.6 258.4,450.3 257.1,447.1 255.4,444.0 253.6,441.1 251.4,438.3 249.1,435.7 246.5,433.4 243.7,431.2 240.8,429.4 237.7,427.7 234.5,426.4 231.2,425.4 227.7,424.6 224.3,424.2 220.8,424.0" fill="none" stroke="#2c82c9" stroke-width="0.9"/>
<rect x="480.8" y="461.6" width="40.0" height="4.8" fill="#ffffff"/>
<line x1="520.8" y1="464.0" x2="520.8" y2="424.0" stroke="#2c82c9" stroke-width="1.0"/>
<polyline points="520.8,424.0 517.3,424.2 513.9,424.6 510.4,425.4 507.1,426.4 503.9,427.7 500.8,429.4 497.9,431.2 495.1,433.4 492.5,435.7 490.2,438.3 488.0,441.1 486.2,444.0 484.5,447.1 483.2,450.3 482.2,453.6 481.4,457.1 481.0,460.5 480.8,464.0" fill="none" stroke="#2c82c9" stroke-width="0.9"/>
<rect x="318.4" y="414.0" width="4.8" height="36.0" fill="#ffffff"/>
<line x1="320.8" y1="450.0" x2="356.8" y2="450.0" stroke="#2c82c9" stroke-width="1.0"/>
<polyline points="356.8,450.0 356.7,446.9 356.3,443.7 355.6,440.7 354.6,437.7 353.4,434.8 352.0,432.0 350.3,429.4 348.4,426.9 346.3,424.5 343.9,422.4 341.4,420.5 338.8,418.8 336.0,417.4 333.1,416.2 330.1,415.2 327.1,414.5 323.9,414.1 320.8,414.0" fill="none" stroke="#2c82c9" stroke-width="0.9"/>
<rect x="414.4" y="414.0" width="4.8" height="36.0" fill="#ffffff"/>
<line x1="416.8" y1="450.0" x2="380.8" y2="450.0" stroke="#2c82c9" stroke-width="1.0"/>
<polyline points="416.8,414.0 413.7,414.1 410.5,414.5 407.5,415.2 404.5,416.2 401.6,417.4 398.8,418.8 396.2,420.5 393.7,422.4 391.3,424.5 389.2,426.9 387.3,429.4 385.6,432.0 384.2,434.8 383.0,437.7 382.0,440.7 381.3,443.7 380.9,446.9 380.8,450.0" fill="none" stroke="#2c82c9" stroke-width="0.9"/>
<rect x="230.8" y="273.6" width="36.0" height="4.8" fill="#ffffff"/>
<line x1="230.8" y1="276.0" x2="230.8" y2="240.0" stroke="#2c82c9" stroke-width="1.0"/>
<polyline points="266.8,276.0 266.7,272.9 266.3,269.7 265.6,266.7 264.6,263.7 263.4,260.8 262.0,258.0 260.3,255.4 258.4,252.9 256.3,250.5 253.9,248.4 251.4,246.5 248.8,244.8 246.0,243.4 243.1,242.2 240.1,241.2 237.1,240.5 233.9,240.1 230.8,240.0" fill="none" stroke="#2c82c9" stroke-width="0.9"/>
<rect x="462.8" y="293.6" width="36.0" height="4.8" fill="#ffffff"/>
<line x1="462.8" y1="296.0" x2="462.8" y2="260.0" stroke="#2c82c9" stroke-width="1.0"/>
<polyline points="498.8,296.0 498.7,292.9 498.3,289.7 497.6,286.7 496.6,283.7 495.4,280.8 494.0,278.0 492.3,275.4 490.4,272.9 488.3,270.5 485.9,268.4 483.4,266.5 480.8,264.8 478.0,263.4 475.1,262.2 472.1,261.2 469.1,260.5 465.9,260.1 462.8,260.0" fill="none" stroke="#2c82c9" stroke-width="0.9"/>
<rect x="344.8" y="265.6" width="32.0" height="4.8" fill="#ffffff"/>
<line x1="344.8" y1="268.0" x2="344.8" y2="236.0" stroke="#2c82c9" stroke-width="1.0"/>
<polyline points="376.8,268.0 376.7,265.2 376.3,262.4 375.7,259.7 374.9,257.1 373.8,254.5 372.5,252.0 371.0,249.6 369.3,247.4 367.4,245.4 365.4,243.5 363.2,241.8 360.8,240.3 358.3,239.0 355.7,237.9 353.1,237.1 350.4,236.5 347.6,236.1 344.8,236.0" fill="none" stroke="#2c82c9" stroke-width="0.9"/>
<polygon points="144.8,456.0 264.8,456.0 264.8,416.0 144.8,416.0" fill="none" stroke="#8a8a8a" stroke-width="1.1"/>
<line x1="144.8" y1="423.2" x2="264.8" y2="423.2" stroke="#8a8a8a" stroke-width="1.0"/>
<polygon points="200.8,392.0 252.8,392.0 252.8,360.0 200.8,360.0" fill="none" stroke="#8a8a8a" stroke-width="1.1"/>
<polygon points="144.8,184.0 212.8,184.0 212.8,108.0 144.8,108.0" fill="none" stroke="#8a8a8a" stroke-width="1.1"/>
<line x1="144.8" y1="126.0" x2="212.8" y2="126.0" stroke="#8a8a8a" stroke-width="1.0"/>
<polygon points="516.8,280.0 584.8,280.0 584.8,204.0 516.8,204.0" fill="none" stroke="#8a8a8a" stroke-width="1.1"/>
<line x1="516.8" y1="222.0" x2="584.8" y2="222.0" stroke="#8a8a8a" stroke-width="1.0"/>
<polygon points="464.8,440.0 536.8,440.0 536.8,396.0 464.8,396.0" fill="none" stroke="#8a8a8a" stroke-width="1.1"/>
<line x1="120.8" y1="612.0" x2="280.8" y2="612.0" stroke="#6a6a6a" stroke-width="1.0"/>
<line x1="120.8" y1="616.0" x2="120.8" y2="608.0" stroke="#6a6a6a" stroke-width="1.0"/>
<line x1="280.8" y1="616.0" x2="280.8" y2="608.0" stroke="#6a6a6a" stroke-width="1.0"/>
<text x="200.8" y="607.2" font-size="7" text-anchor="middle" fill="#6a6a6a">4.00</text>
<line x1="280.8" y1="612.0" x2="440.8" y2="612.0" stroke="#6a6a6a" stroke-width="1.0"/>
<line x1="280.8" y1="616.0" x2="280.8" y2="608.0" stroke="#6a6a6a" stroke-width="1.0"/>
<line x1="440.8" y1="616.0" x2="440.8" y2="608.0" stroke="#6a6a6a" stroke-width="1.0"/>
<text x="360.8" y="607.2" font-size="7" text-anchor="middle" fill="#6a6a6a">4.00</text>
<line x1="440.8" y1="612.0" x2="600.8" y2="612.0" stroke="#6a6a6a" stroke-width="1.0"/>
<line x1="440.8" y1="616.0" x2="440.8" y2="608.0" stroke="#6a6a6a" stroke-width="1.0"/>
<line x1="600.8" y1="616.0" x2="600.8" y2="608.0" stroke="#6a6a6a" stroke-width="1.0"/>
<text x="520.8" y="607.2" font-size="7" text-anchor="middle" fill="#6a6a6a">4.00</text>
<line x1="120.8" y1="636.0" x2="600.8" y2="636.0" stroke="#6a6a6a" stroke-width="1.0"/>
<line x1="120.8" y1="640.0" x2="120.8" y2="632.0" stroke="#6a6a6a" stroke-width="1.0"/>
<line x1="600.8" y1="640.0" x2="600.8" y2="632.0" stroke="#6a6a6a" stroke-width="1.0"/>
<text x="360.8" y="631.2" font-size="7" text-anchor="middle" fill="#6a6a6a">12.00</text>
<line x1="676.8" y1="536.0" x2="676.8" y2="396.0" stroke="#6a6a6a" stroke-width="1.0"/>
<line x1="672.8" y1="536.0" x2="680.8" y2="536.0" stroke="#6a6a6a" stroke-width="1.0"/>
<line x1="672.8" y1="396.0" x2="680.8" y2="396.0" stroke="#6a6a6a" stroke-width="1.0"/>
<text x="682.4" y="469.6" font-size="7" text-anchor="start" fill="#6a6a6a">3.50</text>
<line x1="676.8" y1="396.0" x2="676.8" y2="256.0" stroke="#6a6a6a" stroke-width="1.0"/>
<line x1="672.8" y1="396.0" x2="680.8" y2="396.0" stroke="#6a6a6a" stroke-width="1.0"/>
<line x1="672.8" y1="256.0" x2="680.8" y2="256.0" stroke="#6a6a6a" stroke-width="1.0"/>
<text x="682.4" y="329.6" font-size="7" text-anchor="start" fill="#6a6a6a">3.50</text>
<line x1="676.8" y1="256.0" x2="676.8" y2="96.0" stroke="#6a6a6a" stroke-width="1.0"/>
<line x1="672.8" y1="256.0" x2="680.8" y2="256.0" stroke="#6a6a6a" stroke-width="1.0"/>
<line x1="672.8" y1="96.0" x2="680.8" y2="96.0" stroke="#6a6a6a" stroke-width="1.0"/>
<text x="682.4" y="179.6" font-size="7" text-anchor="start" fill="#6a6a6a">4.00</text>
<line x1="700.8" y1="536.0" x2="700.8" y2="96.0" stroke="#6a6a6a" stroke-width="1.0"/>
<line x1="696.8" y1="536.0" x2="704.8" y2="536.0" stroke="#6a6a6a" stroke-width="1.0"/>
<line x1="696.8" y1="96.0" x2="704.8" y2="96.0" stroke="#6a6a6a" stroke-width="1.0"/>
<text x="706.4" y="319.6" font-size="7" text-anchor="start" fill="#6a6a6a">11.00</text>
<polygon points="486.4,766.0 742.4,766.0 742.4,664.0 486.4,664.0" fill="none" stroke="#333333" stroke-width="1.1"/>
<line x1="486.4" y1="686.0" x2="742.4" y2="686.0" stroke="#333333" stroke-width="1.0"/>
<line x1="486.4" y1="706.0" x2="742.4" y2="706.0" stroke="#333333" stroke-width="1.0"/>
<line x1="486.4" y1="726.0" x2="742.4" y2="726.0" stroke="#333333" stroke-width="1.0"/>
<line x1="486.4" y1="746.0" x2="742.4" y2="746.0" stroke="#333333" stroke-width="1.0"/>
<line x1="614.4" y1="726.0" x2="614.4" y2="766.0" stroke="#333333" stroke-width="1.0"/>
<line x1="571.7" y1="746.0" x2="571.7" y2="766.0" stroke="#333333" stroke-width="1.0"/>
<line x1="657.1" y1="746.0" x2="657.1" y2="766.0" stroke="#333333" stroke-width="1.0"/>
<text x="614.4" y="679.4" font-size="9" text-anchor="middle" fill="#333333">PRIMER PISO</text>
<text x="492.0" y="699.4" font-size="7" text-anchor="start" fill="#333333">DIBUJANTE:  John Ariel Martinez</text>
<text x="492.0" y="719.4" font-size="7" text-anchor="start" fill="#333333">ASIGNATURA:  Planos Digitales</text>
<text x="492.0" y="739.4" font-size="7" text-anchor="start" fill="#333333">Segundo Parcial</text>
<text x="620.0" y="739.4" font-size="7" text-anchor="start" fill="#333333">CARRERA:  Ingenieria Civil</text>
<text x="492.0" y="759.4" font-size="7" text-anchor="start" fill="#333333">FECHA: 2026-07-13</text>
<text x="577.3" y="759.4" font-size="7" text-anchor="start" fill="#333333">ESC: indicada</text>
<text x="662.7" y="759.4" font-size="7" text-anchor="start" fill="#333333">LAMINA: 02</text>
<polygon points="24.0,778.0 742.4,778.0 742.4,24.0 24.0,24.0" fill="none" stroke="#333333" stroke-width="1.1"/>
<polygon points="28.0,774.0 738.4,774.0 738.4,28.0 28.0,28.0" fill="none" stroke="#333333" stroke-width="1.1"/>
</svg>