0
SECTION
2
HEADER
9
$ACADVER
1
AC1009
9
$INSUNITS
70
6
0
ENDSEC
0
SECTION
2
TABLES
0
TABLE
2
LTYPE
70
1
0
LTYPE
2
CONTINUOUS
70
0
3
Solid line
72
65
73
0
40
0.0
0
ENDTAB
0
TABLE
2
LAYER
70
13
0
LAYER
2
EJES
70
0
62
1
6
CONTINUOUS
0
LAYER
2
MUROS
70
0
62
7
6
CONTINUOUS
0
LAYER
2
PUERTAS
70
0
62
4
6
CONTINUOUS
0
LAYER
2
VENTANAS
70
0
62
5
6
CONTINUOUS
0
LAYER
2
ESCALERA
70
0
62
6
6
CONTINUOUS
0
LAYER
2
MOBILIARIO
70
0
62
9
6
CONTINUOUS
0
LAYER
2
COTAS
70
0
62
8
6
CONTINUOUS
0
LAYER
2
TEXTOS
70
0
62
3
6
CONTINUOUS
0
LAYER
2
COLUMNAS
70
0
62
7
6
CONTINUOUS
0
LAYER
2
PLINTOS
70
0
62
2
6
CONTINUOUS
0
LAYER
2
RIOSTRAS
70
0
62
4
6
CONTINUOUS
0
LAYER
2
MARCO
70
0
62
7
6
CONTINUOUS
0
LAYER
2
MEMBRETE
70
0
62
7
6
CONTINUOUS
0
ENDTAB
0
ENDSEC
0
SECTION
2
ENTITIES
0
LINE
8
EJES
10
0.0000
20
-0.9000
30
0.0
11
0.0000
21
11.9000
31
0.0
0
CIRCLE
8
EJES
10
0.0000
20
-1.2200
30
0.0
40
0.3000
0
TEXT
8
EJES
10
0.0000
20
-1.3200
30
0.0
40
0.2400
1
1
72
1
11
0.0000
21
-1.3200
31
0.0
0
LINE
8
EJES
10
4.0000
20
-0.9000
30
0.0
11
4.0000
21
11.9000
31
0.0
0
CIRCLE
8
EJES
10
4.0000
20
-1.2200
30
0.0
40
0.3000
0
TEXT
8
EJES
10
4.0000
20
-1.3200
30
0.0
40
0.2400
1
2
72
1
11
4.0000
21
-1.3200
31
0.0
0
LINE
8
EJES
10
8.0000
20
-0.9000
30
0.0
11
8.0000
21
11.9000
31
0.0
0
CIRCLE
8
EJES
10
8.0000
20
-1.2200
30
0.0
40
0.3000
0
TEXT
8
EJES
10
8.0000
20
-1.3200
30
0.0
40
0.2400
1
3
72
1
11
8.0000
21
-1.3200
31
0.0
0
LINE
8
EJES
10
12.0000
20
-0.9000
30
0.0
11
12.0000
21
11.9000
31
0.0
0
CIRCLE
8
EJES
10
12.0000
20
-1.2200
30
0.0
40
0.3000
0
TEXT
8
EJES
10
12.0000
20
-1.3200
30
0.0
40
0.2400
1
4
72
1
11
12.0000
21
-1.3200
31
0.0
0
LINE
8
EJES
10
-0.9000
20
0.0000
30
0.0
11
12.9000
21
0.0000
31
0.0
0
CIRCLE
8
EJES
10
-1.2200
20
0.0000
30
0.0
40
0.3000
0
TEXT
8
EJES
10
-1.2200
20
-0.1000
30
0.0
40
0.2400
1
A
72
1
11
-1.2200
21
-0.1000
31
0.0
0
LINE
8
EJES
10
-0.9000
20
3.5000
30
0.0
11
12.9000
21
3.5000
31
0.0
0
CIRCLE
8
EJES
10
-1.2200
20
3.5000
30
0.0
40
0.3000
0
TEXT
8
EJES
10
-1.2200
20
3.4000
30
0.0
40
0.2400
1
B
72
1
11
-1.2200
21
3.4000
31
0.0
0
LINE
8
EJES
10
-0.9000
20
7.0000
30
0.0
11
12.9000
21
7.0000
31
0.0
0
CIRCLE
8
EJES
10
-1.2200
20
7.0000
30
0.0
40
0.3000
0
TEXT
8
EJES
10
-1.2200
20
6.9000
30
0.0
40
0.2400
1
C
72
1
11
-1.2200
21
6.9000
31
0.0
0
LINE
8
EJES
10
-0.9000
20
11.0000
30
0.0
11
12.9000
21
11.0000
31
0.0
0
CIRCLE
8
EJES
10
-1.2200
20
11.0000
30
0.0
40
0.3000
0
TEXT
8
EJES
10
-1.2200
20
10.9000
30
0.0
40
0.2400
1
D
72
1
11
-1.2200
21
10.9000
31
0.0
0
LINE
8
COLUMNAS
10
-0.1500
20
-0.1500
30
0.0
11
0.1500
21
-0.1500
31
0.0
0
LINE
8
COLUMNAS
10
0.1500
20
-0.1500
30
0.0
11
0.1500
21
0.1500
31
0.0
0
LINE
8
COLUMNAS
10
0.1500
20
0.1500
30
0.0
11
-0.1500
21
0.1500
31
0.0
0
LINE
8
COLUMNAS
10
-0.1500
20
0.1500
30
0.0
11
-0.1500
21
-0.1500
31
0.0
0
LINE
8
COLUMNAS
10
-0.1500
20
3.3500
30
0.0
11
0.1500
21
3.3500
31
0.0
0
LINE
8
COLUMNAS
10
0.1500
20
3.3500
30
0.0
11
0.1500
21
3.6500
31
0.0
0
LINE
8
COLUMNAS
10
0.1500
20
3.6500
30
0.0
11
-0.1500
21
3.6500
31
0.0
0
LINE
8
COLUMNAS
10
-0.1500
20
3.6500
30
0.0
11
-0.1500
21
3.3500
31
0.0
0
LINE
8
COLUMNAS
10
-0.1500
20
6.8500
30
0.0
11
0.1500
21
6.8500
31
0.0
0
LINE
8
COLUMNAS
10
0.1500
20
6.8500
30
0.0
11
0.1500
21
7.1500
31
0.0
0
LINE
8
COLUMNAS
10
0.1500
20
7.1500
30
0.0
11
-0.1500
21
7.1500
31
0.0
0
LINE
8
COLUMNAS
10
-0.1500
20
7.1500
30
0.0
11
-0.1500
21
6.8500
31
0.0
0
LINE
8
COLUMNAS
10
-0.1500
20
10.8500
30
0.0
11
0.1500
21
10.8500
31
0.0
0
LINE
8
COLUMNAS
10
0.1500
20
10.8500
30
0.0
11
0.1500
21
11.1500
31
0.0
0
LINE
8
COLUMNAS
10
0.1500
20
11.1500
30
0.0
11
-0.1500
21
11.1500
31
0.0
0
LINE
8
COLUMNAS
10
-0.1500
20
11.1500
30
0.0
11
-0.1500
21
10.8500
31
0.0
0
LINE
8
COLUMNAS
10
3.8500
20
-0.1500
30
0.0
11
4.1500
21
-0.1500
31
0.0
0
LINE
8
COLUMNAS
10
4.1500
20
-0.1500
30
0.0
11
4.1500
21
0.1500
31
0.0
0
LINE
8
COLUMNAS
10
4.1500
20
0.1500
30
0.0
11
3.8500
21
0.1500
31
0.0
0
LINE
8
COLUMNAS
10
3.8500
20
0.1500
30
0.0
11
3.8500
21
-0.1500
31
0.0
0
LINE
8
COLUMNAS
10
3.8500
20
3.3500
30
0.0
11
4.1500
21
3.3500
31
0.0
0
LINE
8
COLUMNAS
10
4.1500
20
3.3500
30
0.0
11
4.1500
21
3.6500
31
0.0
0
LINE
8
COLUMNAS
10
4.1500
20
3.6500
30
0.0
11
3.8500
21
3.6500
31
0.0
0
LINE
8
COLUMNAS
10
3.8500
20
3.6500
30
0.0
11
3.8500
21
3.3500
31
0.0
0
LINE
8
COLUMNAS
10
3.8500
20
6.8500
30
0.0
11
4.1500
21
6.8500
31
0.0
0
LINE
8
COLUMNAS
10
4.1500
20
6.8500
30
0.0
11
4.1500
21
7.1500
31
0.0
0
LINE
8
COLUMNAS
10
4.1500
20
7.1500
30
0.0
11
3.8500
21
7.1500
31
0.0
0
LINE
8
COLUMNAS
10
3.8500
20
7.1500
30
0.0
11
3.8500
21
6.8500
31
0.0
0
LINE
8
COLUMNAS
10
3.8500
20
10.8500
30
0.0
11
4.1500
21
10.8500
31
0.0
0
LINE
8
COLUMNAS
10
4.1500
20
10.8500
30
0.0
11
4.1500
21
11.1500
31
0.0
0
LINE
8
COLUMNAS
10
4.1500
20
11.1500
30
0.0
11
3.8500
21
11.1500
31
0.0
0
LINE
8
COLUMNAS
10
3.8500
20
11.1500
30
0.0
11
3.8500
21
10.8500
31
0.0
0
LINE
8
COLUMNAS
10
7.8500
20
-0.1500
30
0.0
11
8.1500
21
-0.1500
31
0.0
0
LINE
8
COLUMNAS
10
8.1500
20
-0.1500
30
0.0
11
8.1500
21
0.1500
31
0.0
0
LINE
8
COLUMNAS
10
8.1500
20
0.1500
30
0.0
11
7.8500
21
0.1500
31
0.0
0
LINE
8
COLUMNAS
10
7.8500
20
0.1500
30
0.0
11
7.8500
21
-0.1500
31
0.0
0
LINE
8
COLUMNAS
10
7.8500
20
3.3500
30
0.0
11
8.1500
21
3.3500
31
0.0
0
LINE
8
COLUMNAS
10
8.1500
20
3.3500
30
0.0
11
8.1500
21
3.6500
31
0.0
0
LINE
8
COLUMNAS
10
8.1500
20
3.6500
30
0.0
11
7.8500
21
3.6500
31
0.0
0
LINE
8
COLUMNAS
10
7.8500
20
3.6500
30
0.0
11
7.8500
21
3.3500
31
0.0
0
LINE
8
COLUMNAS
10
7.8500
20
6.8500
30
0.0
11
8.1500
21
6.8500
31
0.0
0
LINE
8
COLUMNAS
10
8.1500
20
6.8500
30
0.0
11
8.1500
21
7.1500
31
0.0
0
LINE
8
COLUMNAS
10
8.1500
20
7.1500
30
0.0
11
7.8500
21
7.1500
31
0.0
0
LINE
8
COLUMNAS
10
7.8500
20
7.1500
30
0.0
11
7.8500
21
6.8500
31
0.0
0
LINE
8
COLUMNAS
10
7.8500
20
10.8500
30
0.0
11
8.1500
21
10.8500
31
0.0
0
LINE
8
COLUMNAS
10
8.1500
20
10.8500
30
0.0
11
8.1500
21
11.1500
31
0.0
0
LINE
8
COLUMNAS
10
8.1500
20
11.1500
30
0.0
11
7.8500
21
11.1500
31
0.0
0
LINE
8
COLUMNAS
10
7.8500
20
11.1500
30
0.0
11
7.8500
21
10.8500
31
0.0
0
LINE
8
COLUMNAS
10
11.8500
20
-0.1500
30
0.0
11
12.1500
21
-0.1500
31
0.0
0
LINE
8
COLUMNAS
10
12.1500
20
-0.1500
30
0.0
11
12.1500
21
0.1500
31
0.0
0
LINE
8
COLUMNAS
10
12.1500
20
0.1500
30
0.0
11
11.8500
21
0.1500
31
0.0
0
LINE
8
COLUMNAS
10
11.8500
20
0.1500
30
0.0
11
11.8500
21
-0.1500
31
0.0
0
LINE
8
COLUMNAS
10
11.8500
20
3.3500
30
0.0
11
12.1500
21
3.3500
31
0.0
0
LINE
8
COLUMNAS
10
12.1500
20
3.3500
30
0.0
11
12.1500
21
3.6500
31
0.0
0
LINE
8
COLUMNAS
10
12.1500
20
3.6500
30
0.0
11
11.8500
21
3.6500
31
0.0
0
LINE
8
COLUMNAS
10
11.8500
20
3.6500
30
0.0
11
11.8500
21
3.3500
31
0.0
0
LINE
8
COLUMNAS
10
11.8500
20
6.8500
30
0.0
11
12.1500
21
6.8500
31
0.0
0
LINE
8
COLUMNAS
10
12.1500
20
6.8500
30
0.0
11
12.1500
21
7.1500
31
0.0
0
LINE
8
COLUMNAS
10
12.1500
20
7.1500
30
0.0
11
11.8500
21
7.1500
31
0.0
0
LINE
8
COLUMNAS
10
11.8500
20
7.1500
30
0.0
11
11.8500
21
6.8500
31
0.0
0
LINE
8
COLUMNAS
10
11.8500
20
10.8500
30
0.0
11
12.1500
21
10.8500
31
0.0
0
LINE
8
COLUMNAS
10
12.1500
20
10.8500
30
0.0
11
12.1500
21
11.1500
31
0.0
0
LINE
8
COLUMNAS
10
12.1500
20
11.1500
30
0.0
11
11.8500
21
11.1500
31
0.0
0
LINE
8
COLUMNAS
10
11.8500
20
11.1500
30
0.0
11
11.8500
21
10.8500
31
0.0
0
LINE
8
MUROS
10
0.0000
20
0.0000
30
0.0
11
0.2000
21
0.0000
31
0.0
0
LINE
8
MUROS
10
0.2000
20
0.0000
30
0.0
11
0.2000
21
11.0000
31
0.0
0
LINE
8
MUROS
10
0.2000
20
11.0000
30
0.0
11
0.0000
21
11.0000
31
0.0
0
LINE
8
MUROS
10
0.0000
20
11.0000
30
0.0
11
0.0000
21
0.0000
31
0.0
0
LINE
8
MUROS
10
11.8000
20
0.0000
30
0.0
11
12.0000
21
0.0000
31
0.0
0
LINE
8
MUROS
10
12.0000
20
0.0000
30
0.0
11
12.0000
21
11.0000
31
0.0
0
LINE
8
MUROS
10
12.0000
20
11.0000
30
0.0
11
11.8000
21
11.0000
31
0.0
0
LINE
8
MUROS
10
11.8000
20
11.0000
30
0.0
11
11.8000
21
0.0000
31
0.0
0
LINE
8
MUROS
10
0.0000
20
0.0000
30
0.0
11
12.0000
21
0.0000
31
0.0
0
LINE
8
MUROS
10
12.0000
20
0.0000
30
0.0
11
12.0000
21
0.2000
31
0.0
0
LINE
8
MUROS
10
12.0000
20
0.2000
30
0.0
11
0.0000
21
0.2000
31
0.0
0
LINE
8
MUROS
10
0.0000
20
0.2000
30
0.0
11
0.0000
21
0.0000
31
0.0
0
LINE
8
MUROS
10
0.0000
20
10.8000
30
0.0
11
12.0000
21
10.8000
31
0.0
0
LINE
8
MUROS
10
12.0000
20
10.8000
30
0.0
11
12.0000
21
11.0000
31
0.0
0
LINE
8
MUROS
10
12.0000
20
11.0000
30
0.0
11
0.0000
21
11.0000
31
0.0
0
LINE
8
MUROS
10
0.0000
20
11.0000
30
0.0
11
0.0000
21
10.8000
31
0.0
0
LINE
8
MUROS
10
0.0000
20
1.8600
30
0.0
11
8.0000
21
1.8600
31
0.0
0
LINE
8
MUROS
10
8.0000
20
1.8600
30
0.0
11
8.0000
21
1.7400
31
0.0
0
LINE
8
MUROS
10
8.0000
20
1.7400
30
0.0
11
0.0000
21
1.7400
31
0.0
0
LINE
8
MUROS
10
0.0000
20
1.7400
30
0.0
11
0.0000
21
1.8600
31
0.0
0
LINE
8
MUROS
10
5.9400
20
1.8000
30
0.0
11
5.9400
21
6.5000
31
0.0
0
LINE
8
MUROS
10
5.9400
20
6.5000
30
0.0
11
6.0600
21
6.5000
31
0.0
0
LINE
8
MUROS
10
6.0600
20
6.5000
30
0.0
11
6.0600
21
1.8000
31
0.0
0
LINE
8
MUROS
10
6.0600
20
1.8000
30
0.0
11
5.9400
21
1.8000
31
0.0
0
LINE
8
MUROS
10
7.3400
20
1.8000
30
0.0
11
7.3400
21
11.0000
31
0.0
0
LINE
8
MUROS
10
7.3400
20
11.0000
30
0.0
11
7.4600
21
11.0000
31
0.0
0
LINE
8
MUROS
10
7.4600
20
11.0000
30
0.0
11
7.4600
21
1.8000
31
0.0
0
LINE
8
MUROS
10
7.4600
20
1.8000
30
0.0
11
7.3400
21
1.8000
31
0.0
0
LINE
8
MUROS
10
0.0000
20
6.5600
30
0.0
11
7.4000
21
6.5600
31
0.0
0
LINE
8
MUROS
10
7.4000
20
6.5600
30
0.0
11
7.4000
21
6.4400
31
0.0
0
LINE
8
MUROS
10
7.4000
20
6.4400
30
0.0
11
0.0000
21
6.4400
31
0.0
0
LINE
8
MUROS
10
0.0000
20
6.4400
30
0.0
11
0.0000
21
6.5600
31
0.0
0
LINE
8
MUROS
10
7.4000
20
6.0600
30
0.0
11
12.0000
21
6.0600
31
0.0
0
LINE
8
MUROS
10
12.0000
20
6.0600
30
0.0
11
12.0000
21
5.9400
31
0.0
0
LINE
8
MUROS
10
12.0000
20
5.9400
30
0.0
11
7.4000
21
5.9400
31
0.0
0
LINE
8
MUROS
10
7.4000
20
5.9400
30
0.0
11
7.4000
21
6.0600
31
0.0
0
TEXT
8
TEXTOS
10
3.1000
20
4.1500
30
0.0
40
0.2400
1
DORMITORIO PRINCIPAL
72
1
11
3.1000
21
4.1500
31
0.0
0
TEXT
8
TEXTOS
10
3.0000
20
3.9000
30
0.0
40
0.1600
1
27.0 m2
72
1
11
3.0000
21
3.9000
31
0.0
0
TEXT
8
TEXTOS
10
3.8000
20
8.6500
30
0.0
40
0.2400
1
ESTUDIO / SALA TV
72
1
11
3.8000
21
8.6500
31
0.0
0
TEXT
8
TEXTOS
10
9.7000
20
3.9000
30
0.0
40
0.2400
1
DORMITORIO 4
72
1
11
9.7000
21
3.9000
31
0.0
0
TEXT
8
TEXTOS
10
9.7000
20
3.5800
30
0.0
40
0.1600
1
19.3 m2
72
1
11
9.7000
21
3.5800
31
0.0
0
TEXT
8
TEXTOS
10
6.7000
20
5.0500
30
0.0
40
0.2400
1
BANO
72
1
11
6.7000
21
5.0500
31
0.0
0
TEXT
8
TEXTOS
10
6.7000
20
2.7500
30
0.0
40
0.2400
1
VESTIDOR
72
1
11
6.7000
21
2.7500
31
0.0
0
LINE
8
MOBILIARIO
10
7.4000
20
6.0000
30
0.0
11
12.0000
21
6.0000
31
0.0
0
LINE
8
MOBILIARIO
10
12.0000
20
6.0000
30
0.0
11
12.0000
21
10.8000
31
0.0
0
LINE
8
MOBILIARIO
10
12.0000
20
10.8000
30
0.0
11
7.4000
21
10.8000
31
0.0
0
LINE
8
MOBILIARIO
10
7.4000
20
10.8000
30
0.0
11
7.4000
21
6.0000
31
0.0
0
TEXT
8
TEXTOS
10
9.7000
20
8.4000
30
0.0
40
0.2400
1
TERRAZA
72
1
11
9.7000
21
8.4000
31
0.0
0
LINE
8
MOBILIARIO
10
3.0000
20
0.3000
30
0.0
11
8.0000
21
0.3000
31
0.0
0
LINE
8
MOBILIARIO
10
8.0000
20
0.3000
30
0.0
11
8.0000
21
1.4000
31
0.0
0
LINE
8
MOBILIARIO
10
8.0000
20
1.4000
30
0.0
11
3.0000
21
1.4000
31
0.0
0
LINE
8
MOBILIARIO
10
3.0000
20
1.4000
30
0.0
11
3.0000
21
0.3000
31
0.0
0
TEXT
8
TEXTOS
10
5.5000
20
0.8500
30
0.0
40
0.2000
1
BALCON
72
1
11
5.5000
21
0.8500
31
0.0
0
LINE
8
ESCALERA
10
5.1500
20
3.5500
30
0.0
11
6.0000
21
3.5500
31
0.0
0
LINE
8
ESCALERA
10
6.0000
20
3.5500
30
0.0
11
6.0000
21
6.5000
31
0.0
0
LINE
8
ESCALERA
10
6.0000
20
6.5000
30
0.0
11
5.1500
21
6.5000
31
0.0
0
LINE
8
ESCALERA
10
5.1500
20
6.5000
30
0.0
11
5.1500
21
3.5500
31
0.0
0
LINE
8
ESCALERA
10
5.1500
20
3.8182
30
0.0
11
6.0000
21
3.8182
31
0.0
0
LINE
8
ESCALERA
10
5.1500
20
4.0864
30
0.0
11
6.0000
21
4.0864
31
0.0
0
LINE
8
ESCALERA
10
5.1500
20
4.3545
30
0.0
11
6.0000
21
4.3545
31
0.0
0
LINE
8
ESCALERA
10
5.1500
20
4.6227
30
0.0
11
6.0000
21
4.6227
31
0.0
0
LINE
8
ESCALERA
10
5.1500
20
4.8909
30
0.0
11
6.0000
21
4.8909
31
0.0
0
LINE
8
ESCALERA
10
5.1500
20
5.1591
30
0.0
11
6.0000
21
5.1591
31
0.0
0
LINE
8
ESCALERA
10
5.1500
20
5.4273
30
0.0
11
6.0000
21
5.4273
31
0.0
0
LINE
8
ESCALERA
10
5.1500
20
5.6955
30
0.0
11
6.0000
21
5.6955
31
0.0
0
LINE
8
ESCALERA
10
5.1500
20
5.9636
30
0.0
11
6.0000
21
5.9636
31
0.0
0
LINE
8
ESCALERA
10
5.1500
20
6.2318
30
0.0
11
6.0000
21
6.2318
31
0.0
0
LINE
8
ESCALERA
10
5.5750
20
3.7000
30
0.0
11
5.5750
21
6.3500
31
0.0
0
LINE
8
ESCALERA
10
5.5750
20
3.7000
30
0.0
11
5.4550
21
3.9500
31
0.0
0
LINE
8
ESCALERA
10
5.5750
20
3.7000
30
0.0
11
5.6950
21
3.9500
31
0.0
0
TEXT
8
TEXTOS
10
5.5750
20
5.0250
30
0.0
40
0.1600
1
BAJA
72
1
11
5.5750
21
5.0250
31
0.0
0
LINE
8
VENTANAS
10
3.1000
20
-0.0667
30
0.0
11
5.3000
21
-0.0667
31
0.0
0
LINE
8
VENTANAS
10
3.1000
20
0.0000
30
0.0
11
5.3000
21
0.0000
31
0.0
0
LINE
8
VENTANAS
10
3.1000
20
0.0667
30
0.0
11
5.3000
21
0.0667
31
0.0
0
LINE
8
VENTANAS
10
3.1000
20
-0.1000
30
0.0
11
3.1000
21
0.1000
31
0.0
0
LINE
8
VENTANAS
10
5.3000
20
-0.1000
30
0.0
11
5.3000
21
0.1000
31
0.0
0
LINE
8
VENTANAS
10
6.1000
20
-0.0667
30
0.0
11
7.1000
21
-0.0667
31
0.0
0
LINE
8
VENTANAS
10
6.1000
20
0.0000
30
0.0
11
7.1000
21
0.0000
31
0.0
0
LINE
8
VENTANAS
10
6.1000
20
0.0667
30
0.0
11
7.1000
21
0.0667
31
0.0
0
LINE
8
VENTANAS
10
6.1000
20
-0.1000
30
0.0
11
6.1000
21
0.1000
31
0.0
0
LINE
8
VENTANAS
10
7.1000
20
-0.1000
30
0.0
11
7.1000
21
0.1000
31
0.0
0
LINE
8
VENTANAS
10
-0.0667
20
2.8000
30
0.0
11
-0.0667
21
5.2000
31
0.0
0
LINE
8
VENTANAS
10
0.0000
20
2.8000
30
0.0
11
0.0000
21
5.2000
31
0.0
0
LINE
8
VENTANAS
10
0.0667
20
2.8000
30
0.0
11
0.0667
21
5.2000
31
0.0
0
LINE
8
VENTANAS
10
-0.1000
20
2.8000
30
0.0
11
0.1000
21
2.8000
31
0.0
0
LINE
8
VENTANAS
10
-0.1000
20
5.2000
30
0.0
11
0.1000
21
5.2000
31
0.0
0
LINE
8
VENTANAS
10
-0.0667
20
7.4000
30
0.0
11
-0.0667
21
9.8000
31
0.0
0
LINE
8
VENTANAS
10
0.0000
20
7.4000
30
0.0
11
0.0000
21
9.8000
31
0.0
0
LINE
8
VENTANAS
10
0.0667
20
7.4000
30
0.0
11
0.0667
21
9.8000
31
0.0
0
LINE
8
VENTANAS
10
-0.1000
20
7.4000
30
0.0
11
0.1000
21
7.4000
31
0.0
0
LINE
8
VENTANAS
10
-0.1000
20
9.8000
30
0.0
11
0.1000
21
9.8000
31
0.0
0
LINE
8
VENTANAS
10
11.9333
20
2.7000
30
0.0
11
11.9333
21
4.9000
31
0.0
0
LINE
8
VENTANAS
10
12.0000
20
2.7000
30
0.0
11
12.0000
21
4.9000
31
0.0
0
LINE
8
VENTANAS
10
12.0667
20
2.7000
30
0.0
11
12.0667
21
4.9000
31
0.0
0
LINE
8
VENTANAS
10
11.9000
20
2.7000
30
0.0
11
12.1000
21
2.7000
31
0.0
0
LINE
8
VENTANAS
10
11.9000
20
4.9000
30
0.0
11
12.1000
21
4.9000
31
0.0
0
LINE
8
VENTANAS
10
2.2000
20
10.9333
30
0.0
11
4.8000
21
10.9333
31
0.0
0
LINE
8
VENTANAS
10
2.2000
20
11.0000
30
0.0
11
4.8000
21
11.0000
31
0.0
0
LINE
8
VENTANAS
10
2.2000
20
11.0667
30
0.0
11
4.8000
21
11.0667
31
0.0
0
LINE
8
VENTANAS
10
2.2000
20
10.9000
30
0.0
11
2.2000
21
11.1000
31
0.0
0
LINE
8
VENTANAS
10
4.8000
20
10.9000
30
0.0
11
4.8000
21
11.1000
31
0.0
0
LINE
8
PUERTAS
10
4.0000
20
1.8000
30
0.0
11
4.0000
21
2.8000
31
0.0
0
ARC
8
PUERTAS
10
4.0000
20
1.8000
30
0.0
40
1.0000
50
0.00
51
90.00
0
LINE
8
PUERTAS
10
6.0000
20
6.0500
30
0.0
11
5.1000
21
6.0500
31
0.0
0
ARC
8
PUERTAS
10
6.0000
20
6.0500
30
0.0
40
0.9000
50
180.00
51
270.00
0
LINE
8
PUERTAS
10
2.5000
20
6.5000
30
0.0
11
2.5000
21
7.5000
31
0.0
0
ARC
8
PUERTAS
10
2.5000
20
6.5000
30
0.0
40
1.0000
50
0.00
51
90.00
0
LINE
8
PUERTAS
10
8.5000
20
6.0000
30
0.0
11
8.5000
21
7.0000
31
0.0
0
ARC
8
PUERTAS
10
8.5000
20
6.0000
30
0.0
40
1.0000
50
0.00
51
90.00
0
LINE
8
PUERTAS
10
7.4000
20
2.5500
30
0.0
11
6.5000
21
2.5500
31
0.0
0
ARC
8
PUERTAS
10
7.4000
20
2.5500
30
0.0
40
0.9000
50
90.00
51
180.00
0
LINE
8
MOBILIARIO
10
0.6000
20
4.3000
30
0.0
11
2.6000
21
4.3000
31
0.0
0
LINE
8
MOBILIARIO
10
2.6000
20
4.3000
30
0.0
11
2.6000
21
6.4000
31
0.0
0
LINE
8
MOBILIARIO
10
2.6000
20
6.4000
30
0.0
11
0.6000
21
6.4000
31
0.0
0
LINE
8
MOBILIARIO
10
0.6000
20
6.4000
30
0.0
11
0.6000
21
4.3000
31
0.0
0
LINE
8
MOBILIARIO
10
0.6000
20
5.9500
30
0.0
11
2.6000
21
5.9500
31
0.0
0
LINE
8
MOBILIARIO
10
9.6000
20
2.2000
30
0.0
11
11.3000
21
2.2000
31
0.0
0
LINE
8
MOBILIARIO
10
11.3000
20
2.2000
30
0.0
11
11.3000
21
4.1000
31
0.0
0
LINE
8
MOBILIARIO
10
11.3000
20
4.1000
30
0.0
11
9.6000
21
4.1000
31
0.0
0
LINE
8
MOBILIARIO
10
9.6000
20
4.1000
30
0.0
11
9.6000
21
2.2000
31
0.0
0
LINE
8
MOBILIARIO
10
9.6000
20
3.6500
30
0.0
11
11.3000
21
3.6500
31
0.0
0
LINE
8
MOBILIARIO
10
0.6000
20
9.4000
30
0.0
11
3.6000
21
9.4000
31
0.0
0
LINE
8
MOBILIARIO
10
3.6000
20
9.4000
30
0.0
11
3.6000
21
10.4000
31
0.0
0
LINE
8
MOBILIARIO
10
3.6000
20
10.4000
30
0.0
11
0.6000
21
10.4000
31
0.0
0
LINE
8
MOBILIARIO
10
0.6000
20
10.4000
30
0.0
11
0.6000
21
9.4000
31
0.0
0
LINE
8
MOBILIARIO
10
0.6000
20
10.2200
30
0.0
11
3.6000
21
10.2200
31
0.0
0
LINE
8
COTAS
10
0.0000
20
-1.9000
30
0.0
11
4.0000
21
-1.9000
31
0.0
0
LINE
8
COTAS
10
0.0000
20
-2.0000
30
0.0
11
0.0000
21
-1.8000
31
0.0
0
LINE
8
COTAS
10
4.0000
20
-2.0000
30
0.0
11
4.0000
21
-1.8000
31
0.0
0
TEXT
8
COTAS
10
2.0000
20
-1.7800
30
0.0
40
0.1800
1
4.00
72
1
11
2.0000
21
-1.7800
31
0.0
0
LINE
8
COTAS
10
4.0000
20
-1.9000
30
0.0
11
8.0000
21
-1.9000
31
0.0
0
LINE
8
COTAS
10
4.0000
20
-2.0000
30
0.0
11
4.0000
21
-1.8000
31
0.0
0
LINE
8
COTAS
10
8.0000
20
-2.0000
30
0.0
11
8.0000
21
-1.8000
31
0.0
0
TEXT
8
COTAS
10
6.0000
20
-1.7800
30
0.0
40
0.1800
1
4.00
72
1
11
6.0000
21
-1.7800
31
0.0
0
LINE
8
COTAS
10
8.0000
20
-1.9000
30
0.0
11
12.0000
21
-1.9000
31
0.0
0
LINE
8
COTAS
10
8.0000
20
-2.0000
30
0.0
11
8.0000
21
-1.8000
31
0.0
0
LINE
8
COTAS
10
12.0000
20
-2.0000
30
0.0
11
12.0000
21
-1.8000
31
0.0
0
TEXT
8
COTAS
10
10.0000
20
-1.7800
30
0.0
40
0.1800
1
4.00
72
1
11
10.0000
21
-1.7800
31
0.0
0
LINE
8
COTAS
10
0.0000
20
-2.5000
30
0.0
11
12.0000
21
-2.5000
31
0.0
0
LINE
8
COTAS
10
0.0000
20
-2.6000
30
0.0
11
0.0000
21
-2.4000
31
0.0
0
LINE
8
COTAS
10
12.0000
20
-2.6000
30
0.0
11
12.0000
21
-2.4000
31
0.0
0
TEXT
8
COTAS
10
6.0000
20
-2.3800
30
0.0
40
0.1800
1
12.00
72
1
11
6.0000
21
-2.3800
31
0.0
0
LINE
8
COTAS
10
13.9000
20
0.0000
30
0.0
11
13.9000
21
3.5000
31
0.0
0
LINE
8
COTAS
10
13.8000
20
0.0000
30
0.0
11
14.0000
21
0.0000
31
0.0
0
LINE
8
COTAS
10
13.8000
20
3.5000
30
0.0
11
14.0000
21
3.5000
31
0.0
0
TEXT
8
COTAS
10
14.0400
20
1.6600
30
0.0
40
0.1800
1
3.50
0
LINE
8
COTAS
10
13.9000
20
3.5000
30
0.0
11
13.9000
21
7.0000
31
0.0
0
LINE
8
COTAS
10
13.8000
20
3.5000
30
0.0
11
14.0000
21
3.5000
31
0.0
0
LINE
8
COTAS
10
13.8000
20
7.0000
30
0.0
11
14.0000
21
7.0000
31
0.0
0
TEXT
8
COTAS
10
14.0400
20
5.1600
30
0.0
40
0.1800
1
3.50
0
LINE
8
COTAS
10
13.9000
20
7.0000
30
0.0
11
13.9000
21
11.0000
31
0.0
0
LINE
8
COTAS
10
13.8000
20
7.0000
30
0.0
11
14.0000
21
7.0000
31
0.0
0
LINE
8
COTAS
10
13.8000
20
11.0000
30
0.0
11
14.0000
21
11.0000
31
0.0
0
TEXT
8
COTAS
10
14.0400
20
8.9100
30
0.0
40
0.1800
1
4.00
0
LINE
8
COTAS
10
14.5000
20
0.0000
30
0.0
11
14.5000
21
11.0000
31
0.0
0
LINE
8
COTAS
10
14.4000
20
0.0000
30
0.0
11
14.6000
21
0.0000
31
0.0
0
LINE
8
COTAS
10
14.4000
20
11.0000
30
0.0
11
14.6000
21
11.0000
31
0.0
0
TEXT
8
COTAS
10
14.6400
20
5.4100
30
0.0
40
0.1800
1
11.00
0
LINE
8
MEMBRETE
10
9.1400
20
-5.7500
30
0.0
11
15.5400
21
-5.7500
31
0.0
0
LINE
8
MEMBRETE
10
15.5400
20
-5.7500
30
0.0
11
15.5400
21
-3.2000
31
0.0
0
LINE
8
MEMBRETE
10
15.5400
20
-3.2000
30
0.0
11
9.1400
21
-3.2000
31
0.0
0
LINE
8
MEMBRETE
10
9.1400
20
-3.2000
30
0.0
11
9.1400
21
-5.7500
31
0.0
0
LINE
8
MEMBRETE
10
9.1400
20
-3.7500
30
0.0
11
15.5400
21
-3.7500
31
0.0
0
LINE
8
MEMBRETE
10
9.1400
20
-4.2500
30
0.0
11
15.5400
21
-4.2500
31
0.0
0
LINE
8
MEMBRETE
10
9.1400
20
-4.7500
30
0.0
11
15.5400
21
-4.7500
31
0.0
0
LINE
8
MEMBRETE
10
9.1400
20
-5.2500
30
0.0
11
15.5400
21
-5.2500
31
0.0
0
LINE
8
MEMBRETE
10
12.3400
20
-4.7500
30
0.0
11
12.3400
21
-5.7500
31
0.0
0
LINE
8
MEMBRETE
10
11.2733
20
-5.2500
30
0.0
11
11.2733
21
-5.7500
31
0.0
0
LINE
8
MEMBRETE
10
13.4067
20
-5.2500
30
0.0
11
13.4067
21
-5.7500
31
0.0
0
TEXT
8
MEMBRETE
10
12.3400
20
-3.5850
30
0.0
40
0.2200
1
SEGUNDO PISO
72
1
11
12.3400
21
-3.5850
31
0.0
0
TEXT
8
MEMBRETE
10
9.2800
20
-4.0850
30
0.0
40
0.1700
1
DIBUJANTE:  John Ariel Martinez
0
TEXT
8
MEMBRETE
10
9.2800
20
-4.5850
30
0.0
40
0.1700
1
ASIGNATURA:  Planos Digitales
0
TEXT
8
MEMBRETE
10
9.2800
20
-5.0850
30
0.0
40
0.1700
1
Segundo Parcial
0
TEXT
8
MEMBRETE
10
12.4800
20
-5.0850
30
0.0
40
0.1700
1
CARRERA:  Ingenieria Civil
0
TEXT
8
MEMBRETE
10
9.2800
20
-5.5850
30
0.0
40
0.1700
1
FECHA: 2026-07-13
0
TEXT
8
MEMBRETE
10
11.4133
20
-5.5850
30
0.0
40
0.1700
1
ESC: indicada
0
TEXT
8
MEMBRETE
10
13.5467
20
-5.5850
30
0.0
40
0.1700
1
LAMINA: 03
0
LINE
8
MARCO
10
-2.4200
20
-6.0500
30
0.0
11
15.5400
21
-6.0500
31
0.0
0
LINE
8
MARCO
10
15.5400
20
-6.0500
30
0.0
11
15.5400
21
12.8000
31
0.0
0
LINE
8
MARCO
10
15.5400
20
12.8000
30
0.0
11
-2.4200
21
12.8000
31
0.0
0
LINE
8
MARCO
10
-2.4200
20
12.8000
30
0.0
11
-2.4200
21
-6.0500
31
0.0
0
LINE
8
MARCO
10
-2.3200
20
-5.9500
30
0.0
11
15.4400
21
-5.9500
31
0.0
0
LINE
8
MARCO
10
15.4400
20
-5.9500
30
0.0
11
15.4400
21
12.7000
31
0.0
0
LINE
8
MARCO
10
15.4400
20
12.7000
30
0.0
11
-2.3200
21
12.7000
31
0.0
0
LINE
8
MARCO
10
-2.3200
20
12.7000
30
0.0
11
-2.3200
21
-5.9500
31
0.0
0
ENDSEC
0
EOF
