<svg xmlns="http://www.w3.org/2000/svg" width="760" height="670" viewBox="0 0 760 670" font-family="Arial, Helvetica, sans-serif">
<rect x="0" y="0" width="760" height="670" fill="#ffffff"/>
<g stroke="#b23b3b" stroke-width="1" stroke-dasharray="10 4 2 4" fill="none">
<line x1="130.0" y1="67.0" x2="130.0" y2="553.0"/>
<line x1="370.0" y1="67.0" x2="370.0" y2="553.0"/>
<line x1="610.0" y1="67.0" x2="610.0" y2="553.0"/>
<line x1="97.0" y1="100.0" x2="643.0" y2="100.0"/>
<line x1="97.0" y1="310.0" x2="643.0" y2="310.0"/>
<line x1="97.0" y1="520.0" x2="643.0" y2="520.0"/>
</g>
<circle cx="130.0" cy="51.0" r="14" fill="#ffffff" stroke="#b23b3b" stroke-width="1.5"/>
<text x="130.0" y="56.0" text-anchor="middle" font-size="15" font-weight="bold" fill="#b23b3b">1</text>
<circle cx="370.0" cy="51.0" r="14" fill="#ffffff" stroke="#b23b3b" stroke-width="1.5"/>
<text x="370.0" y="56.0" text-anchor="middle" font-size="15" font-weight="bold" fill="#b23b3b">2</text>
<circle cx="610.0" cy="51.0" r="14" fill="#ffffff" stroke="#b23b3b" stroke-width="1.5"/>
<text x="610.0" y="56.0" text-anchor="middle" font-size="15" font-weight="bold" fill="#b23b3b">3</text>
<circle cx="81.0" cy="100.0" r="14" fill="#ffffff" stroke="#b23b3b" stroke-width="1.5"/>
<text x="81.0" y="105.0" text-anchor="middle" font-size="15" font-weight="bold" fill="#b23b3b">A</text>
<circle cx="81.0" cy="310.0" r="14" fill="#ffffff" stroke="#b23b3b" stroke-width="1.5"/>
<text x="81.0" y="315.0" text-anchor="middle" font-size="15" font-weight="bold" fill="#b23b3b">B</text>
<circle cx="81.0" cy="520.0" r="14" fill="#ffffff" stroke="#b23b3b" stroke-width="1.5"/>
<text x="81.0" y="525.0" text-anchor="middle" font-size="15" font-weight="bold" fill="#b23b3b">C</text>
<g fill="#c9d6e5" stroke="#5b7fa6" stroke-width="0.8">
<rect x="130.0" y="94.0" width="480.0" height="12.0"/>
<rect x="130.0" y="304.0" width="480.0" height="12.0"/>
<rect x="130.0" y="514.0" width="480.0" height="12.0"/>
<rect x="124.0" y="100.0" width="12.0" height="420.0"/>
<rect x="364.0" y="100.0" width="12.0" height="420.0"/>
<rect x="604.0" y="100.0" width="12.0" height="420.0"/>
</g>
<g fill="#f3ede0" stroke="#7a6c53" stroke-width="1.4">
<rect x="100.0" y="70.0" width="60.0" height="60.0"/>
<rect x="100.0" y="280.0" width="60.0" height="60.0"/>
<rect x="100.0" y="490.0" width="60.0" height="60.0"/>
<rect x="340.0" y="70.0" width="60.0" height="60.0"/>
<rect x="340.0" y="280.0" width="60.0" height="60.0"/>
<rect x="340.0" y="490.0" width="60.0" height="60.0"/>
<rect x="580.0" y="70.0" width="60.0" height="60.0"/>
<rect x="580.0" y="280.0" width="60.0" height="60.0"/>
<rect x="580.0" y="490.0" width="60.0" height="60.0"/>
</g>
<g fill="#3a3a3a" stroke="#000000" stroke-width="1">
<rect x="121.0" y="91.0" width="18.0" height="18.0"/>
<rect x="121.0" y="301.0" width="18.0" height="18.0"/>
<rect x="121.0" y="511.0" width="18.0" height="18.0"/>
<rect x="361.0" y="91.0" width="18.0" height="18.0"/>
<rect x="361.0" y="301.0" width="18.0" height="18.0"/>
<rect x="361.0" y="511.0" width="18.0" height="18.0"/>
<rect x="601.0" y="91.0" width="18.0" height="18.0"/>
<rect x="601.0" y="301.0" width="18.0" height="18.0"/>
<rect x="601.0" y="511.0" width="18.0" height="18.0"/>
</g>
<line x1="130.0" y1="575.0" x2="370.0" y2="575.0" stroke="#333" stroke-width="0.8"/>
<line x1="130.0" y1="570.0" x2="130.0" y2="580.0" stroke="#333" stroke-width="0.8"/>
<line x1="370.0" y1="570.0" x2="370.0" y2="580.0" stroke="#333" stroke-width="0.8"/>
<text x="250.0" y="569.0" text-anchor="middle" font-size="12" fill="#333">4.00</text>
<line x1="370.0" y1="575.0" x2="610.0" y2="575.0" stroke="#333" stroke-width="0.8"/>
<line x1="370.0" y1="570.0" x2="370.0" y2="580.0" stroke="#333" stroke-width="0.8"/>
<line x1="610.0" y1="570.0" x2="610.0" y2="580.0" stroke="#333" stroke-width="0.8"/>
<text x="490.0" y="569.0" text-anchor="middle" font-size="12" fill="#333">4.00</text>
<line x1="665.0" y1="100.0" x2="665.0" y2="310.0" stroke="#333" stroke-width="0.8"/>
<line x1="660.0" y1="100.0" x2="670.0" y2="100.0" stroke="#333" stroke-width="0.8"/>
<line x1="660.0" y1="310.0" x2="670.0" y2="310.0" stroke="#333" stroke-width="0.8"/>
<text x="657.0" y="209.0" text-anchor="end" font-size="12" fill="#333">3.50</text>
<line x1="665.0" y1="310.0" x2="665.0" y2="520.0" stroke="#333" stroke-width="0.8"/>
<line x1="660.0" y1="310.0" x2="670.0" y2="310.0" stroke="#333" stroke-width="0.8"/>
<line x1="660.0" y1="520.0" x2="670.0" y2="520.0" stroke="#333" stroke-width="0.8"/>
<text x="657.0" y="419.0" text-anchor="end" font-size="12" fill="#333">3.50</text>
<text x="130" y="34" font-size="20" font-weight="bold" fill="#222">PLANTA DE CIMENTACION - PROPUESTA</text>
<text x="130" y="54" font-size="12" fill="#666">Ejes, columnas, plintos (1.00 x 1.00 m) y riostras (e = 0.20 m)</text>
<text x="130" y="586" font-size="12" font-weight="bold" fill="#333">SIMBOLOGIA</text>
<rect x="130" y="589" width="18" height="14" fill="#3a3a3a" stroke="#555" stroke-width="0.8"/>
<text x="156" y="600" font-size="12" fill="#333">Columna 0.30 x 0.30 m</text>
<rect x="130" y="611" width="18" height="14" fill="#f3ede0" stroke="#555" stroke-width="0.8"/>
<text x="156" y="622" font-size="12" fill="#333">Plinto 1.00 x 1.00 m</text>
<rect x="130" y="633" width="18" height="14" fill="#c9d6e5" stroke="#555" stroke-width="0.8"/>
<text x="156" y="644" font-size="12" fill="#333">Riostra e = 0.20 m</text>
<line x1="550.0" y1="630.0" x2="610.0" y2="630.0" stroke="#333" stroke-width="2"/>
<line x1="550.0" y1="626.0" x2="550.0" y2="634.0" stroke="#333" stroke-width="2"/>
<line x1="610.0" y1="626.0" x2="610.0" y2="634.0" stroke="#333" stroke-width="2"/>
<text x="580.0" y="622.0" text-anchor="middle" font-size="11" fill="#333">1.00 m</text>
</svg>