0
SECTION
2
HEADER
9
$ACADVER
1
AC1009
9
$INSUNITS
70
6
0
ENDSEC
0
SECTION
2
TABLES
0
TABLE
2
LTYPE
70
1
0
LTYPE
2
CONTINUOUS
70
0
3
Solid line
72
65
73
0
40
0.0
0
ENDTAB
0
TABLE
2
LAYER
70
13
0
LAYER
2
EJES
70
0
62
1
6
CONTINUOUS
0
LAYER
2
MUROS
70
0
62
7
6
CONTINUOUS
0
LAYER
2
PUERTAS
70
0
62
4
6
CONTINUOUS
0
LAYER
2
VENTANAS
70
0
62
5
6
CONTINUOUS
0
LAYER
2
ESCALERA
70
0
62
6
6
CONTINUOUS
0
LAYER
2
MOBILIARIO
70
0
62
9
6
CONTINUOUS
0
LAYER
2
COTAS
70
0
62
8
6
CONTINUOUS
0
LAYER
2
TEXTOS
70
0
62
3
6
CONTINUOUS
0
LAYER
2
COLUMNAS
70
0
62
7
6
CONTINUOUS
0
LAYER
2
PLINTOS
70
0
62
2
6
CONTINUOUS
0
LAYER
2
RIOSTRAS
70
0
62
4
6
CONTINUOUS
0
LAYER
2
MARCO
70
0
62
7
6
CONTINUOUS
0
LAYER
2
MEMBRETE
70
0
62
7
6
CONTINUOUS
0
ENDTAB
0
ENDSEC
0
SECTION
2
ENTITIES
0
LINE
8
EJES
10
0.0000
20
-0.9000
30
0.0
11
0.0000
21
11.9000
31
0.0
0
CIRCLE
8
EJES
10
0.0000
20
-1.2200
30
0.0
40
0.3000
0
TEXT
8
EJES
10
0.0000
20
-1.3200
30
0.0
40
0.2400
1
1
72
1
11
0.0000
21
-1.3200
31
0.0
0
LINE
8
EJES
10
4.0000
20
-0.9000
30
0.0
11
4.0000
21
11.9000
31
0.0
0
CIRCLE
8
EJES
10
4.0000
20
-1.2200
30
0.0
40
0.3000
0
TEXT
8
EJES
10
4.0000
20
-1.3200
30
0.0
40
0.2400
1
2
72
1
11
4.0000
21
-1.3200
31
0.0
0
LINE
8
EJES
10
8.0000
20
-0.9000
30
0.0
11
8.0000
21
11.9000
31
0.0
0
CIRCLE
8
EJES
10
8.0000
20
-1.2200
30
0.0
40
0.3000
0
TEXT
8
EJES
10
8.0000
20
-1.3200
30
0.0
40
0.2400
1
3
72
1
11
8.0000
21
-1.3200
31
0.0
0
LINE
8
EJES
10
12.0000
20
-0.9000
30
0.0
11
12.0000
21
11.9000
31
0.0
0
CIRCLE
8
EJES
10
12.0000
20
-1.2200
30
0.0
40
0.3000
0
TEXT
8
EJES
10
12.0000
20
-1.3200
30
0.0
40
0.2400
1
4
72
1
11
12.0000
21
-1.3200
31
0.0
0
LINE
8
EJES
10
-0.9000
20
0.0000
30
0.0
11
12.9000
21
0.0000
31
0.0
0
CIRCLE
8
EJES
10
-1.2200
20
0.0000
30
0.0
40
0.3000
0
TEXT
8
EJES
10
-1.2200
20
-0.1000
30
0.0
40
0.2400
1
A
72
1
11
-1.2200
21
-0.1000
31
0.0
0
LINE
8
EJES
10
-0.9000
20
3.5000
30
0.0
11
12.9000
21
3.5000
31
0.0
0
CIRCLE
8
EJES
10
-1.2200
20
3.5000
30
0.0
40
0.3000
0
TEXT
8
EJES
10
-1.2200
20
3.4000
30
0.0
40
0.2400
1
B
72
1
11
-1.2200
21
3.4000
31
0.0
0
LINE
8
EJES
10
-0.9000
20
7.0000
30
0.0
11
12.9000
21
7.0000
31
0.0
0
CIRCLE
8
EJES
10
-1.2200
20
7.0000
30
0.0
40
0.3000
0
TEXT
8
EJES
10
-1.2200
20
6.9000
30
0.0
40
0.2400
1
C
72
1
11
-1.2200
21
6.9000
31
0.0
0
LINE
8
EJES
10
-0.9000
20
11.0000
30
0.0
11
12.9000
21
11.0000
31
0.0
0
CIRCLE
8
EJES
10
-1.2200
20
11.0000
30
0.0
40
0.3000
0
TEXT
8
EJES
10
-1.2200
20
10.9000
30
0.0
40
0.2400
1
D
72
1
11
-1.2200
21
10.9000
31
0.0
0
LINE
8
RIOSTRAS
10
0.5000
20
0.1000
30
0.0
11
3.5000
21
0.1000
31
0.0
0
LINE
8
RIOSTRAS
10
3.5000
20
0.1000
30
0.0
11
3.5000
21
-0.1000
31
0.0
0
LINE
8
RIOSTRAS
10
3.5000
20
-0.1000
30
0.0
11
0.5000
21
-0.1000
31
0.0
0
LINE
8
RIOSTRAS
10
0.5000
20
-0.1000
30
0.0
11
0.5000
21
0.1000
31
0.0
0
LINE
8
RIOSTRAS
10
4.5000
20
0.1000
30
0.0
11
7.5000
21
0.1000
31
0.0
0
LINE
8
RIOSTRAS
10
7.5000
20
0.1000
30
0.0
11
7.5000
21
-0.1000
31
0.0
0
LINE
8
RIOSTRAS
10
7.5000
20
-0.1000
30
0.0
11
4.5000
21
-0.1000
31
0.0
0
LINE
8
RIOSTRAS
10
4.5000
20
-0.1000
30
0.0
11
4.5000
21
0.1000
31
0.0
0
LINE
8
RIOSTRAS
10
8.5000
20
0.1000
30
0.0
11
11.5000
21
0.1000
31
0.0
0
LINE
8
RIOSTRAS
10
11.5000
20
0.1000
30
0.0
11
11.5000
21
-0.1000
31
0.0
0
LINE
8
RIOSTRAS
10
11.5000
20
-0.1000
30
0.0
11
8.5000
21
-0.1000
31
0.0
0
LINE
8
RIOSTRAS
10
8.5000
20
-0.1000
30
0.0
11
8.5000
21
0.1000
31
0.0
0
LINE
8
RIOSTRAS
10
0.5000
20
3.6000
30
0.0
11
3.5000
21
3.6000
31
0.0
0
LINE
8
RIOSTRAS
10
3.5000
20
3.6000
30
0.0
11
3.5000
21
3.4000
31
0.0
0
LINE
8
RIOSTRAS
10
3.5000
20
3.4000
30
0.0
11
0.5000
21
3.4000
31
0.0
0
LINE
8
RIOSTRAS
10
0.5000
20
3.4000
30
0.0
11
0.5000
21
3.6000
31
0.0
0
LINE
8
RIOSTRAS
10
4.5000
20
3.6000
30
0.0
11
7.5000
21
3.6000
31
0.0
0
LINE
8
RIOSTRAS
10
7.5000
20
3.6000
30
0.0
11
7.5000
21
3.4000
31
0.0
0
LINE
8
RIOSTRAS
10
7.5000
20
3.4000
30
0.0
11
4.5000
21
3.4000
31
0.0
0
LINE
8
RIOSTRAS
10
4.5000
20
3.4000
30
0.0
11
4.5000
21
3.6000
31
0.0
0
LINE
8
RIOSTRAS
10
8.5000
20
3.6000
30
0.0
11
11.5000
21
3.6000
31
0.0
0
LINE
8
RIOSTRAS
10
11.5000
20
3.6000
30
0.0
11
11.5000
21
3.4000
31
0.0
0
LINE
8
RIOSTRAS
10
11.5000
20
3.4000
30
0.0
11
8.5000
21
3.4000
31
0.0
0
LINE
8
RIOSTRAS
10
8.5000
20
3.4000
30
0.0
11
8.5000
21
3.6000
31
0.0
0
LINE
8
RIOSTRAS
10
0.5000
20
7.1000
30
0.0
11
3.5000
21
7.1000
31
0.0
0
LINE
8
RIOSTRAS
10
3.5000
20
7.1000
30
0.0
11
3.5000
21
6.9000
31
0.0
0
LINE
8
RIOSTRAS
10
3.5000
20
6.9000
30
0.0
11
0.5000
21
6.9000
31
0.0
0
LINE
8
RIOSTRAS
10
0.5000
20
6.9000
30
0.0
11
0.5000
21
7.1000
31
0.0
0
LINE
8
RIOSTRAS
10
4.5000
20
7.1000
30
0.0
11
7.5000
21
7.1000
31
0.0
0
LINE
8
RIOSTRAS
10
7.5000
20
7.1000
30
0.0
11
7.5000
21
6.9000
31
0.0
0
LINE
8
RIOSTRAS
10
7.5000
20
6.9000
30
0.0
11
4.5000
21
6.9000
31
0.0
0
LINE
8
RIOSTRAS
10
4.5000
20
6.9000
30
0.0
11
4.5000
21
7.1000
31
0.0
0
LINE
8
RIOSTRAS
10
8.5000
20
7.1000
30
0.0
11
11.5000
21
7.1000
31
0.0
0
LINE
8
RIOSTRAS
10
11.5000
20
7.1000
30
0.0
11
11.5000
21
6.9000
31
0.0
0
LINE
8
RIOSTRAS
10
11.5000
20
6.9000
30
0.0
11
8.5000
21
6.9000
31
0.0
0
LINE
8
RIOSTRAS
10
8.5000
20
6.9000
30
0.0
11
8.5000
21
7.1000
31
0.0
0
LINE
8
RIOSTRAS
10
0.5000
20
11.1000
30
0.0
11
3.5000
21
11.1000
31
0.0
0
LINE
8
RIOSTRAS
10
3.5000
20
11.1000
30
0.0
11
3.5000
21
10.9000
31
0.0
0
LINE
8
RIOSTRAS
10
3.5000
20
10.9000
30
0.0
11
0.5000
21
10.9000
31
0.0
0
LINE
8
RIOSTRAS
10
0.5000
20
10.9000
30
0.0
11
0.5000
21
11.1000
31
0.0
0
LINE
8
RIOSTRAS
10
4.5000
20
11.1000
30
0.0
11
7.5000
21
11.1000
31
0.0
0
LINE
8
RIOSTRAS
10
7.5000
20
11.1000
30
0.0
11
7.5000
21
10.9000
31
0.0
0
LINE
8
RIOSTRAS
10
7.5000
20
10.9000
30
0.0
11
4.5000
21
10.9000
31
0.0
0
LINE
8
RIOSTRAS
10
4.5000
20
10.9000
30
0.0
11
4.5000
21
11.1000
31
0.0
0
LINE
8
RIOSTRAS
10
8.5000
20
11.1000
30
0.0
11
11.5000
21
11.1000
31
0.0
0
LINE
8
RIOSTRAS
10
11.5000
20
11.1000
30
0.0
11
11.5000
21
10.9000
31
0.0
0
LINE
8
RIOSTRAS
10
11.5000
20
10.9000
30
0.0
11
8.5000
21
10.9000
31
0.0
0
LINE
8
RIOSTRAS
10
8.5000
20
10.9000
30
0.0
11
8.5000
21
11.1000
31
0.0
0
LINE
8
RIOSTRAS
10
-0.1000
20
0.5000
30
0.0
11
-0.1000
21
3.0000
31
0.0
0
LINE
8
RIOSTRAS
10
-0.1000
20
3.0000
30
0.0
11
0.1000
21
3.0000
31
0.0
0
LINE
8
RIOSTRAS
10
0.1000
20
3.0000
30
0.0
11
0.1000
21
0.5000
31
0.0
0
LINE
8
RIOSTRAS
10
0.1000
20
0.5000
30
0.0
11
-0.1000
21
0.5000
31
0.0
0
LINE
8
RIOSTRAS
10
-0.1000
20
4.0000
30
0.0
11
-0.1000
21
6.5000
31
0.0
0
LINE
8
RIOSTRAS
10
-0.1000
20
6.5000
30
0.0
11
0.1000
21
6.5000
31
0.0
0
LINE
8
RIOSTRAS
10
0.1000
20
6.5000
30
0.0
11
0.1000
21
4.0000
31
0.0
0
LINE
8
RIOSTRAS
10
0.1000
20
4.0000
30
0.0
11
-0.1000
21
4.0000
31
0.0
0
LINE
8
RIOSTRAS
10
-0.1000
20
7.5000
30
0.0
11
-0.1000
21
10.5000
31
0.0
0
LINE
8
RIOSTRAS
10
-0.1000
20
10.5000
30
0.0
11
0.1000
21
10.5000
31
0.0
0
LINE
8
RIOSTRAS
10
0.1000
20
10.5000
30
0.0
11
0.1000
21
7.5000
31
0.0
0
LINE
8
RIOSTRAS
10
0.1000
20
7.5000
30
0.0
11
-0.1000
21
7.5000
31
0.0
0
LINE
8
RIOSTRAS
10
3.9000
20
0.5000
30
0.0
11
3.9000
21
3.0000
31
0.0
0
LINE
8
RIOSTRAS
10
3.9000
20
3.0000
30
0.0
11
4.1000
21
3.0000
31
0.0
0
LINE
8
RIOSTRAS
10
4.1000
20
3.0000
30
0.0
11
4.1000
21
0.5000
31
0.0
0
LINE
8
RIOSTRAS
10
4.1000
20
0.5000
30
0.0
11
3.9000
21
0.5000
31
0.0
0
LINE
8
RIOSTRAS
10
3.9000
20
4.0000
30
0.0
11
3.9000
21
6.5000
31
0.0
0
LINE
8
RIOSTRAS
10
3.9000
20
6.5000
30
0.0
11
4.1000
21
6.5000
31
0.0
0
LINE
8
RIOSTRAS
10
4.1000
20
6.5000
30
0.0
11
4.1000
21
4.0000
31
0.0
0
LINE
8
RIOSTRAS
10
4.1000
20
4.0000
30
0.0
11
3.9000
21
4.0000
31
0.0
0
LINE
8
RIOSTRAS
10
3.9000
20
7.5000
30
0.0
11
3.9000
21
10.5000
31
0.0
0
LINE
8
RIOSTRAS
10
3.9000
20
10.5000
30
0.0
11
4.1000
21
10.5000
31
0.0
0
LINE
8
RIOSTRAS
10
4.1000
20
10.5000
30
0.0
11
4.1000
21
7.5000
31
0.0
0
LINE
8
RIOSTRAS
10
4.1000
20
7.5000
30
0.0
11
3.9000
21
7.5000
31
0.0
0
LINE
8
RIOSTRAS
10
7.9000
20
0.5000
30
0.0
11
7.9000
21
3.0000
31
0.0
0
LINE
8
RIOSTRAS
10
7.9000
20
3.0000
30
0.0
11
8.1000
21
3.0000
31
0.0
0
LINE
8
RIOSTRAS
10
8.1000
20
3.0000
30
0.0
11
8.1000
21
0.5000
31
0.0
0
LINE
8
RIOSTRAS
10
8.1000
20
0.5000
30
0.0
11
7.9000
21
0.5000
31
0.0
0
LINE
8
RIOSTRAS
10
7.9000
20
4.0000
30
0.0
11
7.9000
21
6.5000
31
0.0
0
LINE
8
RIOSTRAS
10
7.9000
20
6.5000
30
0.0
11
8.1000
21
6.5000
31
0.0
0
LINE
8
RIOSTRAS
10
8.1000
20
6.5000
30
0.0
11
8.1000
21
4.0000
31
0.0
0
LINE
8
RIOSTRAS
10
8.1000
20
4.0000
30
0.0
11
7.9000
21
4.0000
31
0.0
0
LINE
8
RIOSTRAS
10
7.9000
20
7.5000
30
0.0
11
7.9000
21
10.5000
31
0.0
0
LINE
8
RIOSTRAS
10
7.9000
20
10.5000
30
0.0
11
8.1000
21
10.5000
31
0.0
0
LINE
8
RIOSTRAS
10
8.1000
20
10.5000
30
0.0
11
8.1000
21
7.5000
31
0.0
0
LINE
8
RIOSTRAS
10
8.1000
20
7.5000
30
0.0
11
7.9000
21
7.5000
31
0.0
0
LINE
8
RIOSTRAS
10
11.9000
20
0.5000
30
0.0
11
11.9000
21
3.0000
31
0.0
0
LINE
8
RIOSTRAS
10
11.9000
20
3.0000
30
0.0
11
12.1000
21
3.0000
31
0.0
0
LINE
8
RIOSTRAS
10
12.1000
20
3.0000
30
0.0
11
12.1000
21
0.5000
31
0.0
0
LINE
8
RIOSTRAS
10
12.1000
20
0.5000
30
0.0
11
11.9000
21
0.5000
31
0.0
0
LINE
8
RIOSTRAS
10
11.9000
20
4.0000
30
0.0
11
11.9000
21
6.5000
31
0.0
0
LINE
8
RIOSTRAS
10
11.9000
20
6.5000
30
0.0
11
12.1000
21
6.5000
31
0.0
0
LINE
8
RIOSTRAS
10
12.1000
20
6.5000
30
0.0
11
12.1000
21
4.0000
31
0.0
0
LINE
8
RIOSTRAS
10
12.1000
20
4.0000
30
0.0
11
11.9000
21
4.0000
31
0.0
0
LINE
8
RIOSTRAS
10
11.9000
20
7.5000
30
0.0
11
11.9000
21
10.5000
31
0.0
0
LINE
8
RIOSTRAS
10
11.9000
20
10.5000
30
0.0
11
12.1000
21
10.5000
31
0.0
0
LINE
8
RIOSTRAS
10
12.1000
20
10.5000
30
0.0
11
12.1000
21
7.5000
31
0.0
0
LINE
8
RIOSTRAS
10
12.1000
20
7.5000
30
0.0
11
11.9000
21
7.5000
31
0.0
0
LINE
8
PLINTOS
10
-0.5000
20
-0.5000
30
0.0
11
0.5000
21
-0.5000
31
0.0
0
LINE
8
PLINTOS
10
0.5000
20
-0.5000
30
0.0
11
0.5000
21
0.5000
31
0.0
0
LINE
8
PLINTOS
10
0.5000
20
0.5000
30
0.0
11
-0.5000
21
0.5000
31
0.0
0
LINE
8
PLINTOS
10
-0.5000
20
0.5000
30
0.0
11
-0.5000
21
-0.5000
31
0.0
0
LINE
8
PLINTOS
10
-0.5000
20
3.0000
30
0.0
11
0.5000
21
3.0000
31
0.0
0
LINE
8
PLINTOS
10
0.5000
20
3.0000
30
0.0
11
0.5000
21
4.0000
31
0.0
0
LINE
8
PLINTOS
10
0.5000
20
4.0000
30
0.0
11
-0.5000
21
4.0000
31
0.0
0
LINE
8
PLINTOS
10
-0.5000
20
4.0000
30
0.0
11
-0.5000
21
3.0000
31
0.0
0
LINE
8
PLINTOS
10
-0.5000
20
6.5000
30
0.0
11
0.5000
21
6.5000
31
0.0
0
LINE
8
PLINTOS
10
0.5000
20
6.5000
30
0.0
11
0.5000
21
7.5000
31
0.0
0
LINE
8
PLINTOS
10
0.5000
20
7.5000
30
0.0
11
-0.5000
21
7.5000
31
0.0
0
LINE
8
PLINTOS
10
-0.5000
20
7.5000
30
0.0
11
-0.5000
21
6.5000
31
0.0
0
LINE
8
PLINTOS
10
-0.5000
20
10.5000
30
0.0
11
0.5000
21
10.5000
31
0.0
0
LINE
8
PLINTOS
10
0.5000
20
10.5000
30
0.0
11
0.5000
21
11.5000
31
0.0
0
LINE
8
PLINTOS
10
0.5000
20
11.5000
30
0.0
11
-0.5000
21
11.5000
31
0.0
0
LINE
8
PLINTOS
10
-0.5000
20
11.5000
30
0.0
11
-0.5000
21
10.5000
31
0.0
0
LINE
8
PLINTOS
10
3.5000
20
-0.5000
30
0.0
11
4.5000
21
-0.5000
31
0.0
0
LINE
8
PLINTOS
10
4.5000
20
-0.5000
30
0.0
11
4.5000
21
0.5000
31
0.0
0
LINE
8
PLINTOS
10
4.5000
20
0.5000
30
0.0
11
3.5000
21
0.5000
31
0.0
0
LINE
8
PLINTOS
10
3.5000
20
0.5000
30
0.0
11
3.5000
21
-0.5000
31
0.0
0
LINE
8
PLINTOS
10
3.5000
20
3.0000
30
0.0
11
4.5000
21
3.0000
31
0.0
0
LINE
8
PLINTOS
10
4.5000
20
3.0000
30
0.0
11
4.5000
21
4.0000
31
0.0
0
LINE
8
PLINTOS
10
4.5000
20
4.0000
30
0.0
11
3.5000
21
4.0000
31
0.0
0
LINE
8
PLINTOS
10
3.5000
20
4.0000
30
0.0
11
3.5000
21
3.0000
31
0.0
0
LINE
8
PLINTOS
10
3.5000
20
6.5000
30
0.0
11
4.5000
21
6.5000
31
0.0
0
LINE
8
PLINTOS
10
4.5000
20
6.5000
30
0.0
11
4.5000
21
7.5000
31
0.0
0
LINE
8
PLINTOS
10
4.5000
20
7.5000
30
0.0
11
3.5000
21
7.5000
31
0.0
0
LINE
8
PLINTOS
10
3.5000
20
7.5000
30
0.0
11
3.5000
21
6.5000
31
0.0
0
LINE
8
PLINTOS
10
3.5000
20
10.5000
30
0.0
11
4.5000
21
10.5000
31
0.0
0
LINE
8
PLINTOS
10
4.5000
20
10.5000
30
0.0
11
4.5000
21
11.5000
31
0.0
0
LINE
8
PLINTOS
10
4.5000
20
11.5000
30
0.0
11
3.5000
21
11.5000
31
0.0
0
LINE
8
PLINTOS
10
3.5000
20
11.5000
30
0.0
11
3.5000
21
10.5000
31
0.0
0
LINE
8
PLINTOS
10
7.5000
20
-0.5000
30
0.0
11
8.5000
21
-0.5000
31
0.0
0
LINE
8
PLINTOS
10
8.5000
20
-0.5000
30
0.0
11
8.5000
21
0.5000
31
0.0
0
LINE
8
PLINTOS
10
8.5000
20
0.5000
30
0.0
11
7.5000
21
0.5000
31
0.0
0
LINE
8
PLINTOS
10
7.5000
20
0.5000
30
0.0
11
7.5000
21
-0.5000
31
0.0
0
LINE
8
PLINTOS
10
7.5000
20
3.0000
30
0.0
11
8.5000
21
3.0000
31
0.0
0
LINE
8
PLINTOS
10
8.5000
20
3.0000
30
0.0
11
8.5000
21
4.0000
31
0.0
0
LINE
8
PLINTOS
10
8.5000
20
4.0000
30
0.0
11
7.5000
21
4.0000
31
0.0
0
LINE
8
PLINTOS
10
7.5000
20
4.0000
30
0.0
11
7.5000
21
3.0000
31
0.0
0
LINE
8
PLINTOS
10
7.5000
20
6.5000
30
0.0
11
8.5000
21
6.5000
31
0.0
0
LINE
8
PLINTOS
10
8.5000
20
6.5000
30
0.0
11
8.5000
21
7.5000
31
0.0
0
LINE
8
PLINTOS
10
8.5000
20
7.5000
30
0.0
11
7.5000
21
7.5000
31
0.0
0
LINE
8
PLINTOS
10
7.5000
20
7.5000
30
0.0
11
7.5000
21
6.5000
31
0.0
0
LINE
8
PLINTOS
10
7.5000
20
10.5000
30
0.0
11
8.5000
21
10.5000
31
0.0
0
LINE
8
PLINTOS
10
8.5000
20
10.5000
30
0.0
11
8.5000
21
11.5000
31
0.0
0
LINE
8
PLINTOS
10
8.5000
20
11.5000
30
0.0
11
7.5000
21
11.5000
31
0.0
0
LINE
8
PLINTOS
10
7.5000
20
11.5000
30
0.0
11
7.5000
21
10.5000
31
0.0
0
LINE
8
PLINTOS
10
11.5000
20
-0.5000
30
0.0
11
12.5000
21
-0.5000
31
0.0
0
LINE
8
PLINTOS
10
12.5000
20
-0.5000
30
0.0
11
12.5000
21
0.5000
31
0.0
0
LINE
8
PLINTOS
10
12.5000
20
0.5000
30
0.0
11
11.5000
21
0.5000
31
0.0
0
LINE
8
PLINTOS
10
11.5000
20
0.5000
30
0.0
11
11.5000
21
-0.5000
31
0.0
0
LINE
8
PLINTOS
10
11.5000
20
3.0000
30
0.0
11
12.5000
21
3.0000
31
0.0
0
LINE
8
PLINTOS
10
12.5000
20
3.0000
30
0.0
11
12.5000
21
4.0000
31
0.0
0
LINE
8
PLINTOS
10
12.5000
20
4.0000
30
0.0
11
11.5000
21
4.0000
31
0.0
0
LINE
8
PLINTOS
10
11.5000
20
4.0000
30
0.0
11
11.5000
21
3.0000
31
0.0
0
LINE
8
PLINTOS
10
11.5000
20
6.5000
30
0.0
11
12.5000
21
6.5000
31
0.0
0
LINE
8
PLINTOS
10
12.5000
20
6.5000
30
0.0
11
12.5000
21
7.5000
31
0.0
0
LINE
8
PLINTOS
10
12.5000
20
7.5000
30
0.0
11
11.5000
21
7.5000
31
0.0
0
LINE
8
PLINTOS
10
11.5000
20
7.5000
30
0.0
11
11.5000
21
6.5000
31
0.0
0
LINE
8
PLINTOS
10
11.5000
20
10.5000
30
0.0
11
12.5000
21
10.5000
31
0.0
0
LINE
8
PLINTOS
10
12.5000
20
10.5000
30
0.0
11
12.5000
21
11.5000
31
0.0
0
LINE
8
PLINTOS
10
12.5000
20
11.5000
30
0.0
11
11.5000
21
11.5000
31
0.0
0
LINE
8
PLINTOS
10
11.5000
20
11.5000
30
0.0
11
11.5000
21
10.5000
31
0.0
0
LINE
8
COLUMNAS
10
-0.1500
20
-0.1500
30
0.0
11
0.1500
21
-0.1500
31
0.0
0
LINE
8
COLUMNAS
10
0.1500
20
-0.1500
30
0.0
11
0.1500
21
0.1500
31
0.0
0
LINE
8
COLUMNAS
10
0.1500
20
0.1500
30
0.0
11
-0.1500
21
0.1500
31
0.0
0
LINE
8
COLUMNAS
10
-0.1500
20
0.1500
30
0.0
11
-0.1500
21
-0.1500
31
0.0
0
LINE
8
COLUMNAS
10
-0.1500
20
3.3500
30
0.0
11
0.1500
21
3.3500
31
0.0
0
LINE
8
COLUMNAS
10
0.1500
20
3.3500
30
0.0
11
0.1500
21
3.6500
31
0.0
0
LINE
8
COLUMNAS
10
0.1500
20
3.6500
30
0.0
11
-0.1500
21
3.6500
31
0.0
0
LINE
8
COLUMNAS
10
-0.1500
20
3.6500
30
0.0
11
-0.1500
21
3.3500
31
0.0
0
LINE
8
COLUMNAS
10
-0.1500
20
6.8500
30
0.0
11
0.1500
21
6.8500
31
0.0
0
LINE
8
COLUMNAS
10
0.1500
20
6.8500
30
0.0
11
0.1500
21
7.1500
31
0.0
0
LINE
8
COLUMNAS
10
0.1500
20
7.1500
30
0.0
11
-0.1500
21
7.1500
31
0.0
0
LINE
8
COLUMNAS
10
-0.1500
20
7.1500
30
0.0
11
-0.1500
21
6.8500
31
0.0
0
LINE
8
COLUMNAS
10
-0.1500
20
10.8500
30
0.0
11
0.1500
21
10.8500
31
0.0
0
LINE
8
COLUMNAS
10
0.1500
20
10.8500
30
0.0
11
0.1500
21
11.1500
31
0.0
0
LINE
8
COLUMNAS
10
0.1500
20
11.1500
30
0.0
11
-0.1500
21
11.1500
31
0.0
0
LINE
8
COLUMNAS
10
-0.1500
20
11.1500
30
0.0
11
-0.1500
21
10.8500
31
0.0
0
LINE
8
COLUMNAS
10
3.8500
20
-0.1500
30
0.0
11
4.1500
21
-0.1500
31
0.0
0
LINE
8
COLUMNAS
10
4.1500
20
-0.1500
30
0.0
11
4.1500
21
0.1500
31
0.0
0
LINE
8
COLUMNAS
10
4.1500
20
0.1500
30
0.0
11
3.8500
21
0.1500
31
0.0
0
LINE
8
COLUMNAS
10
3.8500
20
0.1500
30
0.0
11
3.8500
21
-0.1500
31
0.0
0
LINE
8
COLUMNAS
10
3.8500
20
3.3500
30
0.0
11
4.1500
21
3.3500
31
0.0
0
LINE
8
COLUMNAS
10
4.1500
20
3.3500
30
0.0
11
4.1500
21
3.6500
31
0.0
0
LINE
8
COLUMNAS
10
4.1500
20
3.6500
30
0.0
11
3.8500
21
3.6500
31
0.0
0
LINE
8
COLUMNAS
10
3.8500
20
3.6500
30
0.0
11
3.8500
21
3.3500
31
0.0
0
LINE
8
COLUMNAS
10
3.8500
20
6.8500
30
0.0
11
4.1500
21
6.8500
31
0.0
0
LINE
8
COLUMNAS
10
4.1500
20
6.8500
30
0.0
11
4.1500
21
7.1500
31
0.0
0
LINE
8
COLUMNAS
10
4.1500
20
7.1500
30
0.0
11
3.8500
21
7.1500
31
0.0
0
LINE
8
COLUMNAS
10
3.8500
20
7.1500
30
0.0
11
3.8500
21
6.8500
31
0.0
0
LINE
8
COLUMNAS
10
3.8500
20
10.8500
30
0.0
11
4.1500
21
10.8500
31
0.0
0
LINE
8
COLUMNAS
10
4.1500
20
10.8500
30
0.0
11
4.1500
21
11.1500
31
0.0
0
LINE
8
COLUMNAS
10
4.1500
20
11.1500
30
0.0
11
3.8500
21
11.1500
31
0.0
0
LINE
8
COLUMNAS
10
3.8500
20
11.1500
30
0.0
11
3.8500
21
10.8500
31
0.0
0
LINE
8
COLUMNAS
10
7.8500
20
-0.1500
30
0.0
11
8.1500
21
-0.1500
31
0.0
0
LINE
8
COLUMNAS
10
8.1500
20
-0.1500
30
0.0
11
8.1500
21
0.1500
31
0.0
0
LINE
8
COLUMNAS
10
8.1500
20
0.1500
30
0.0
11
7.8500
21
0.1500
31
0.0
0
LINE
8
COLUMNAS
10
7.8500
20
0.1500
30
0.0
11
7.8500
21
-0.1500
31
0.0
0
LINE
8
COLUMNAS
10
7.8500
20
3.3500
30
0.0
11
8.1500
21
3.3500
31
0.0
0
LINE
8
COLUMNAS
10
8.1500
20
3.3500
30
0.0
11
8.1500
21
3.6500
31
0.0
0
LINE
8
COLUMNAS
10
8.1500
20
3.6500
30
0.0
11
7.8500
21
3.6500
31
0.0
0
LINE
8
COLUMNAS
10
7.8500
20
3.6500
30
0.0
11
7.8500
21
3.3500
31
0.0
0
LINE
8
COLUMNAS
10
7.8500
20
6.8500
30
0.0
11
8.1500
21
6.8500
31
0.0
0
LINE
8
COLUMNAS
10
8.1500
20
6.8500
30
0.0
11
8.1500
21
7.1500
31
0.0
0
LINE
8
COLUMNAS
10
8.1500
20
7.1500
30
0.0
11
7.8500
21
7.1500
31
0.0
0
LINE
8
COLUMNAS
10
7.8500
20
7.1500
30
0.0
11
7.8500
21
6.8500
31
0.0
0
LINE
8
COLUMNAS
10
7.8500
20
10.8500
30
0.0
11
8.1500
21
10.8500
31
0.0
0
LINE
8
COLUMNAS
10
8.1500
20
10.8500
30
0.0
11
8.1500
21
11.1500
31
0.0
0
LINE
8
COLUMNAS
10
8.1500
20
11.1500
30
0.0
11
7.8500
21
11.1500
31
0.0
0
LINE
8
COLUMNAS
10
7.8500
20
11.1500
30
0.0
11
7.8500
21
10.8500
31
0.0
0
LINE
8
COLUMNAS
10
11.8500
20
-0.1500
30
0.0
11
12.1500
21
-0.1500
31
0.0
0
LINE
8
COLUMNAS
10
12.1500
20
-0.1500
30
0.0
11
12.1500
21
0.1500
31
0.0
0
LINE
8
COLUMNAS
10
12.1500
20
0.1500
30
0.0
11
11.8500
21
0.1500
31
0.0
0
LINE
8
COLUMNAS
10
11.8500
20
0.1500
30
0.0
11
11.8500
21
-0.1500
31
0.0
0
LINE
8
COLUMNAS
10
11.8500
20
3.3500
30
0.0
11
12.1500
21
3.3500
31
0.0
0
LINE
8
COLUMNAS
10
12.1500
20
3.3500
30
0.0
11
12.1500
21
3.6500
31
0.0
0
LINE
8
COLUMNAS
10
12.1500
20
3.6500
30
0.0
11
11.8500
21
3.6500
31
0.0
0
LINE
8
COLUMNAS
10
11.8500
20
3.6500
30
0.0
11
11.8500
21
3.3500
31
0.0
0
LINE
8
COLUMNAS
10
11.8500
20
6.8500
30
0.0
11
12.1500
21
6.8500
31
0.0
0
LINE
8
COLUMNAS
10
12.1500
20
6.8500
30
0.0
11
12.1500
21
7.1500
31
0.0
0
LINE
8
COLUMNAS
10
12.1500
20
7.1500
30
0.0
11
11.8500
21
7.1500
31
0.0
0
LINE
8
COLUMNAS
10
11.8500
20
7.1500
30
0.0
11
11.8500
21
6.8500
31
0.0
0
LINE
8
COLUMNAS
10
11.8500
20
10.8500
30
0.0
11
12.1500
21
10.8500
31
0.0
0
LINE
8
COLUMNAS
10
12.1500
20
10.8500
30
0.0
11
12.1500
21
11.1500
31
0.0
0
LINE
8
COLUMNAS
10
12.1500
20
11.1500
30
0.0
11
11.8500
21
11.1500
31
0.0
0
LINE
8
COLUMNAS
10
11.8500
20
11.1500
30
0.0
11
11.8500
21
10.8500
31
0.0
0
TEXT
8
TEXTOS
10
0.0000
20
11.7200
30
0.0
40
0.1600
1
PLINTO 1.00x1.00
72
1
11
0.0000
21
11.7200
31
0.0
0
TEXT
8
TEXTOS
10
2.0000
20
-0.0200
30
0.0
40
0.1500
1
RIOSTRA e=0.20
72
1
11
2.0000
21
-0.0200
31
0.0
0
LINE
8
COTAS
10
0.0000
20
-1.9000
30
0.0
11
4.0000
21
-1.9000
31
0.0
0
LINE
8
COTAS
10
0.0000
20
-2.0000
30
0.0
11
0.0000
21
-1.8000
31
0.0
0
LINE
8
COTAS
10
4.0000
20
-2.0000
30
0.0
11
4.0000
21
-1.8000
31
0.0
0
TEXT
8
COTAS
10
2.0000
20
-1.7800
30
0.0
40
0.1800
1
4.00
72
1
11
2.0000
21
-1.7800
31
0.0
0
LINE
8
COTAS
10
4.0000
20
-1.9000
30
0.0
11
8.0000
21
-1.9000
31
0.0
0
LINE
8
COTAS
10
4.0000
20
-2.0000
30
0.0
11
4.0000
21
-1.8000
31
0.0
0
LINE
8
COTAS
10
8.0000
20
-2.0000
30
0.0
11
8.0000
21
-1.8000
31
0.0
0
TEXT
8
COTAS
10
6.0000
20
-1.7800
30
0.0
40
0.1800
1
4.00
72
1
11
6.0000
21
-1.7800
31
0.0
0
LINE
8
COTAS
10
8.0000
20
-1.9000
30
0.0
11
12.0000
21
-1.9000
31
0.0
0
LINE
8
COTAS
10
8.0000
20
-2.0000
30
0.0
11
8.0000
21
-1.8000
31
0.0
0
LINE
8
COTAS
10
12.0000
20
-2.0000
30
0.0
11
12.0000
21
-1.8000
31
0.0
0
TEXT
8
COTAS
10
10.0000
20
-1.7800
30
0.0
40
0.1800
1
4.00
72
1
11
10.0000
21
-1.7800
31
0.0
0
LINE
8
COTAS
10
0.0000
20
-2.5000
30
0.0
11
12.0000
21
-2.5000
31
0.0
0
LINE
8
COTAS
10
0.0000
20
-2.6000
30
0.0
11
0.0000
21
-2.4000
31
0.0
0
LINE
8
COTAS
10
12.0000
20
-2.6000
30
0.0
11
12.0000
21
-2.4000
31
0.0
0
TEXT
8
COTAS
10
6.0000
20
-2.3800
30
0.0
40
0.1800
1
12.00
72
1
11
6.0000
21
-2.3800
31
0.0
0
LINE
8
COTAS
10
13.9000
20
0.0000
30
0.0
11
13.9000
21
3.5000
31
0.0
0
LINE
8
COTAS
10
13.8000
20
0.0000
30
0.0
11
14.0000
21
0.0000
31
0.0
0
LINE
8
COTAS
10
13.8000
20
3.5000
30
0.0
11
14.0000
21
3.5000
31
0.0
0
TEXT
8
COTAS
10
14.0400
20
1.6600
30
0.0
40
0.1800
1
3.50
0
LINE
8
COTAS
10
13.9000
20
3.5000
30
0.0
11
13.9000
21
7.0000
31
0.0
0
LINE
8
COTAS
10
13.8000
20
3.5000
30
0.0
11
14.0000
21
3.5000
31
0.0
0
LINE
8
COTAS
10
13.8000
20
7.0000
30
0.0
11
14.0000
21
7.0000
31
0.0
0
TEXT
8
COTAS
10
14.0400
20
5.1600
30
0.0
40
0.1800
1
3.50
0
LINE
8
COTAS
10
13.9000
20
7.0000
30
0.0
11
13.9000
21
11.0000
31
0.0
0
LINE
8
COTAS
10
13.8000
20
7.0000
30
0.0
11
14.0000
21
7.0000
31
0.0
0
LINE
8
COTAS
10
13.8000
20
11.0000
30
0.0
11
14.0000
21
11.0000
31
0.0
0
TEXT
8
COTAS
10
14.0400
20
8.9100
30
0.0
40
0.1800
1
4.00
0
LINE
8
COTAS
10
14.5000
20
0.0000
30
0.0
11
14.5000
21
11.0000
31
0.0
0
LINE
8
COTAS
10
14.4000
20
0.0000
30
0.0
11
14.6000
21
0.0000
31
0.0
0
LINE
8
COTAS
10
14.4000
20
11.0000
30
0.0
11
14.6000
21
11.0000
31
0.0
0
TEXT
8
COTAS
10
14.6400
20
5.4100
30
0.0
40
0.1800
1
11.00
0
TEXT
8
TEXTOS
10
6.0000
20
12.5000
30
0.0
40
0.3400
1
PLANTA DE CIMENTACION
72
1
11
6.0000
21
12.5000
31
0.0
0
LINE
8
MEMBRETE
10
9.1400
20
-5.7500
30
0.0
11
15.5400
21
-5.7500
31
0.0
0
LINE
8
MEMBRETE
10
15.5400
20
-5.7500
30
0.0
11
15.5400
21
-3.2000
31
0.0
0
LINE
8
MEMBRETE
10
15.5400
20
-3.2000
30
0.0
11
9.1400
21
-3.2000
31
0.0
0
LINE
8
MEMBRETE
10
9.1400
20
-3.2000
30
0.0
11
9.1400
21
-5.7500
31
0.0
0
LINE
8
MEMBRETE
10
9.1400
20
-3.7500
30
0.0
11
15.5400
21
-3.7500
31
0.0
0
LINE
8
MEMBRETE
10
9.1400
20
-4.2500
30
0.0
11
15.5400
21
-4.2500
31
0.0
0
LINE
8
MEMBRETE
10
9.1400
20
-4.7500
30
0.0
11
15.5400
21
-4.7500
31
0.0
0
LINE
8
MEMBRETE
10
9.1400
20
-5.2500
30
0.0
11
15.5400
21
-5.2500
31
0.0
0
LINE
8
MEMBRETE
10
12.3400
20
-4.7500
30
0.0
11
12.3400
21
-5.7500
31
0.0
0
LINE
8
MEMBRETE
10
11.2733
20
-5.2500
30
0.0
11
11.2733
21
-5.7500
31
0.0
0
LINE
8
MEMBRETE
10
13.4067
20
-5.2500
30
0.0
11
13.4067
21
-5.7500
31
0.0
0
TEXT
8
MEMBRETE
10
12.3400
20
-3.5850
30
0.0
40
0.2200
1
PLANTA DE CIMENTACION
72
1
11
12.3400
21
-3.5850
31
0.0
0
TEXT
8
MEMBRETE
10
9.2800
20
-4.0850
30
0.0
40
0.1700
1
DIBUJANTE:  John Ariel Martinez
0
TEXT
8
MEMBRETE
10
9.2800
20
-4.5850
30
0.0
40
0.1700
1
ASIGNATURA:  Planos Digitales
0
TEXT
8
MEMBRETE
10
9.2800
20
-5.0850
30
0.0
40
0.1700
1
Segundo Parcial
0
TEXT
8
MEMBRETE
10
12.4800
20
-5.0850
30
0.0
40
0.1700
1
CARRERA:  Ingenieria Civil
0
TEXT
8
MEMBRETE
10
9.2800
20
-5.5850
30
0.0
40
0.1700
1
FECHA: 2026-07-13
0
TEXT
8
MEMBRETE
10
11.4133
20
-5.5850
30
0.0
40
0.1700
1
ESC: indicada
0
TEXT
8
MEMBRETE
10
13.5467
20
-5.5850
30
0.0
40
0.1700
1
LAMINA: 01
0
TEXT
8
MEMBRETE
10
9.1400
20
-3.0000
30
0.0
40
0.1300
1
REF. ARCHIVO ORIGINAL:  https://drive.google.com/file/d/1zfL9muo_BWWw2PnaNCiBtKRWGQREuz5W/view
0
LINE
8
MARCO
10
-2.4200
20
-6.0500
30
0.0
11
15.5400
21
-6.0500
31
0.0
0
LINE
8
MARCO
10
15.5400
20
-6.0500
30
0.0
11
15.5400
21
13.4000
31
0.0
0
LINE
8
MARCO
10
15.5400
20
13.4000
30
0.0
11
-2.4200
21
13.4000
31
0.0
0
LINE
8
MARCO
10
-2.4200
20
13.4000
30
0.0
11
-2.4200
21
-6.0500
31
0.0
0
LINE
8
MARCO
10
-2.3200
20
-5.9500
30
0.0
11
15.4400
21
-5.9500
31
0.0
0
LINE
8
MARCO
10
15.4400
20
-5.9500
30
0.0
11
15.4400
21
13.3000
31
0.0
0
LINE
8
MARCO
10
15.4400
20
13.3000
30
0.0
11
-2.3200
21
13.3000
31
0.0
0
LINE
8
MARCO
10
-2.3200
20
13.3000
30
0.0
11
-2.3200
21
-5.9500
31
0.0
0
ENDSEC
0
EOF
