0
SECTION
2
HEADER
9
$ACADVER
1
AC1009
9
$INSUNITS
70
6
0
ENDSEC
0
SECTION
2
TABLES
0
TABLE
2
LTYPE
70
1
0
LTYPE
2
CONTINUOUS
70
0
3
Solid line
72
65
73
0
40
0.0
0
ENDTAB
0
TABLE
2
LAYER
70
8
0
LAYER
2
EJES
70
0
62
1
6
CONTINUOUS
0
LAYER
2
COLUMNAS
70
0
62
7
6
CONTINUOUS
0
LAYER
2
PLINTOS
70
0
62
2
6
CONTINUOUS
0
LAYER
2
RIOSTRAS
70
0
62
4
6
CONTINUOUS
0
LAYER
2
COTAS
70
0
62
8
6
CONTINUOUS
0
LAYER
2
TEXTOS
70
0
62
3
6
CONTINUOUS
0
LAYER
2
MARCO
70
0
62
7
6
CONTINUOUS
0
LAYER
2
MEMBRETE
70
0
62
7
6
CONTINUOUS
0
ENDTAB
0
ENDSEC
0
SECTION
2
ENTITIES
0
LINE
8
EJES
10
0.0000
20
-1.0000
30
0.0
11
0.0000
21
8.0000
31
0.0
0
CIRCLE
8
EJES
10
0.0000
20
-1.3000
30
0.0
40
0.2800
0
TEXT
8
EJES
10
0.0000
20
-1.3900
30
0.0
40
0.2200
1
1
72
1
11
0.0000
21
-1.3900
31
0.0
0
LINE
8
EJES
10
4.0000
20
-1.0000
30
0.0
11
4.0000
21
8.0000
31
0.0
0
CIRCLE
8
EJES
10
4.0000
20
-1.3000
30
0.0
40
0.2800
0
TEXT
8
EJES
10
4.0000
20
-1.3900
30
0.0
40
0.2200
1
2
72
1
11
4.0000
21
-1.3900
31
0.0
0
LINE
8
EJES
10
8.0000
20
-1.0000
30
0.0
11
8.0000
21
8.0000
31
0.0
0
CIRCLE
8
EJES
10
8.0000
20
-1.3000
30
0.0
40
0.2800
0
TEXT
8
EJES
10
8.0000
20
-1.3900
30
0.0
40
0.2200
1
3
72
1
11
8.0000
21
-1.3900
31
0.0
0
LINE
8
EJES
10
-1.0000
20
0.0000
30
0.0
11
9.0000
21
0.0000
31
0.0
0
CIRCLE
8
EJES
10
-1.3000
20
0.0000
30
0.0
40
0.2800
0
TEXT
8
EJES
10
-1.3000
20
-0.0900
30
0.0
40
0.2200
1
A
72
1
11
-1.3000
21
-0.0900
31
0.0
0
LINE
8
EJES
10
-1.0000
20
3.5000
30
0.0
11
9.0000
21
3.5000
31
0.0
0
CIRCLE
8
EJES
10
-1.3000
20
3.5000
30
0.0
40
0.2800
0
TEXT
8
EJES
10
-1.3000
20
3.4100
30
0.0
40
0.2200
1
B
72
1
11
-1.3000
21
3.4100
31
0.0
0
LINE
8
EJES
10
-1.0000
20
7.0000
30
0.0
11
9.0000
21
7.0000
31
0.0
0
CIRCLE
8
EJES
10
-1.3000
20
7.0000
30
0.0
40
0.2800
0
TEXT
8
EJES
10
-1.3000
20
6.9100
30
0.0
40
0.2200
1
C
72
1
11
-1.3000
21
6.9100
31
0.0
0
LINE
8
RIOSTRAS
10
0.5000
20
0.1000
30
0.0
11
3.5000
21
0.1000
31
0.0
0
LINE
8
RIOSTRAS
10
3.5000
20
0.1000
30
0.0
11
3.5000
21
-0.1000
31
0.0
0
LINE
8
RIOSTRAS
10
3.5000
20
-0.1000
30
0.0
11
0.5000
21
-0.1000
31
0.0
0
LINE
8
RIOSTRAS
10
0.5000
20
-0.1000
30
0.0
11
0.5000
21
0.1000
31
0.0
0
LINE
8
RIOSTRAS
10
4.5000
20
0.1000
30
0.0
11
7.5000
21
0.1000
31
0.0
0
LINE
8
RIOSTRAS
10
7.5000
20
0.1000
30
0.0
11
7.5000
21
-0.1000
31
0.0
0
LINE
8
RIOSTRAS
10
7.5000
20
-0.1000
30
0.0
11
4.5000
21
-0.1000
31
0.0
0
LINE
8
RIOSTRAS
10
4.5000
20
-0.1000
30
0.0
11
4.5000
21
0.1000
31
0.0
0
LINE
8
RIOSTRAS
10
0.5000
20
3.6000
30
0.0
11
3.5000
21
3.6000
31
0.0
0
LINE
8
RIOSTRAS
10
3.5000
20
3.6000
30
0.0
11
3.5000
21
3.4000
31
0.0
0
LINE
8
RIOSTRAS
10
3.5000
20
3.4000
30
0.0
11
0.5000
21
3.4000
31
0.0
0
LINE
8
RIOSTRAS
10
0.5000
20
3.4000
30
0.0
11
0.5000
21
3.6000
31
0.0
0
LINE
8
RIOSTRAS
10
4.5000
20
3.6000
30
0.0
11
7.5000
21
3.6000
31
0.0
0
LINE
8
RIOSTRAS
10
7.5000
20
3.6000
30
0.0
11
7.5000
21
3.4000
31
0.0
0
LINE
8
RIOSTRAS
10
7.5000
20
3.4000
30
0.0
11
4.5000
21
3.4000
31
0.0
0
LINE
8
RIOSTRAS
10
4.5000
20
3.4000
30
0.0
11
4.5000
21
3.6000
31
0.0
0
LINE
8
RIOSTRAS
10
0.5000
20
7.1000
30
0.0
11
3.5000
21
7.1000
31
0.0
0
LINE
8
RIOSTRAS
10
3.5000
20
7.1000
30
0.0
11
3.5000
21
6.9000
31
0.0
0
LINE
8
RIOSTRAS
10
3.5000
20
6.9000
30
0.0
11
0.5000
21
6.9000
31
0.0
0
LINE
8
RIOSTRAS
10
0.5000
20
6.9000
30
0.0
11
0.5000
21
7.1000
31
0.0
0
LINE
8
RIOSTRAS
10
4.5000
20
7.1000
30
0.0
11
7.5000
21
7.1000
31
0.0
0
LINE
8
RIOSTRAS
10
7.5000
20
7.1000
30
0.0
11
7.5000
21
6.9000
31
0.0
0
LINE
8
RIOSTRAS
10
7.5000
20
6.9000
30
0.0
11
4.5000
21
6.9000
31
0.0
0
LINE
8
RIOSTRAS
10
4.5000
20
6.9000
30
0.0
11
4.5000
21
7.1000
31
0.0
0
LINE
8
RIOSTRAS
10
-0.1000
20
0.5000
30
0.0
11
-0.1000
21
3.0000
31
0.0
0
LINE
8
RIOSTRAS
10
-0.1000
20
3.0000
30
0.0
11
0.1000
21
3.0000
31
0.0
0
LINE
8
RIOSTRAS
10
0.1000
20
3.0000
30
0.0
11
0.1000
21
0.5000
31
0.0
0
LINE
8
RIOSTRAS
10
0.1000
20
0.5000
30
0.0
11
-0.1000
21
0.5000
31
0.0
0
LINE
8
RIOSTRAS
10
-0.1000
20
4.0000
30
0.0
11
-0.1000
21
6.5000
31
0.0
0
LINE
8
RIOSTRAS
10
-0.1000
20
6.5000
30
0.0
11
0.1000
21
6.5000
31
0.0
0
LINE
8
RIOSTRAS
10
0.1000
20
6.5000
30
0.0
11
0.1000
21
4.0000
31
0.0
0
LINE
8
RIOSTRAS
10
0.1000
20
4.0000
30
0.0
11
-0.1000
21
4.0000
31
0.0
0
LINE
8
RIOSTRAS
10
3.9000
20
0.5000
30
0.0
11
3.9000
21
3.0000
31
0.0
0
LINE
8
RIOSTRAS
10
3.9000
20
3.0000
30
0.0
11
4.1000
21
3.0000
31
0.0
0
LINE
8
RIOSTRAS
10
4.1000
20
3.0000
30
0.0
11
4.1000
21
0.5000
31
0.0
0
LINE
8
RIOSTRAS
10
4.1000
20
0.5000
30
0.0
11
3.9000
21
0.5000
31
0.0
0
LINE
8
RIOSTRAS
10
3.9000
20
4.0000
30
0.0
11
3.9000
21
6.5000
31
0.0
0
LINE
8
RIOSTRAS
10
3.9000
20
6.5000
30
0.0
11
4.1000
21
6.5000
31
0.0
0
LINE
8
RIOSTRAS
10
4.1000
20
6.5000
30
0.0
11
4.1000
21
4.0000
31
0.0
0
LINE
8
RIOSTRAS
10
4.1000
20
4.0000
30
0.0
11
3.9000
21
4.0000
31
0.0
0
LINE
8
RIOSTRAS
10
7.9000
20
0.5000
30
0.0
11
7.9000
21
3.0000
31
0.0
0
LINE
8
RIOSTRAS
10
7.9000
20
3.0000
30
0.0
11
8.1000
21
3.0000
31
0.0
0
LINE
8
RIOSTRAS
10
8.1000
20
3.0000
30
0.0
11
8.1000
21
0.5000
31
0.0
0
LINE
8
RIOSTRAS
10
8.1000
20
0.5000
30
0.0
11
7.9000
21
0.5000
31
0.0
0
LINE
8
RIOSTRAS
10
7.9000
20
4.0000
30
0.0
11
7.9000
21
6.5000
31
0.0
0
LINE
8
RIOSTRAS
10
7.9000
20
6.5000
30
0.0
11
8.1000
21
6.5000
31
0.0
0
LINE
8
RIOSTRAS
10
8.1000
20
6.5000
30
0.0
11
8.1000
21
4.0000
31
0.0
0
LINE
8
RIOSTRAS
10
8.1000
20
4.0000
30
0.0
11
7.9000
21
4.0000
31
0.0
0
LINE
8
PLINTOS
10
-0.5000
20
-0.5000
30
0.0
11
0.5000
21
-0.5000
31
0.0
0
LINE
8
PLINTOS
10
0.5000
20
-0.5000
30
0.0
11
0.5000
21
0.5000
31
0.0
0
LINE
8
PLINTOS
10
0.5000
20
0.5000
30
0.0
11
-0.5000
21
0.5000
31
0.0
0
LINE
8
PLINTOS
10
-0.5000
20
0.5000
30
0.0
11
-0.5000
21
-0.5000
31
0.0
0
LINE
8
PLINTOS
10
-0.5000
20
3.0000
30
0.0
11
0.5000
21
3.0000
31
0.0
0
LINE
8
PLINTOS
10
0.5000
20
3.0000
30
0.0
11
0.5000
21
4.0000
31
0.0
0
LINE
8
PLINTOS
10
0.5000
20
4.0000
30
0.0
11
-0.5000
21
4.0000
31
0.0
0
LINE
8
PLINTOS
10
-0.5000
20
4.0000
30
0.0
11
-0.5000
21
3.0000
31
0.0
0
LINE
8
PLINTOS
10
-0.5000
20
6.5000
30
0.0
11
0.5000
21
6.5000
31
0.0
0
LINE
8
PLINTOS
10
0.5000
20
6.5000
30
0.0
11
0.5000
21
7.5000
31
0.0
0
LINE
8
PLINTOS
10
0.5000
20
7.5000
30
0.0
11
-0.5000
21
7.5000
31
0.0
0
LINE
8
PLINTOS
10
-0.5000
20
7.5000
30
0.0
11
-0.5000
21
6.5000
31
0.0
0
LINE
8
PLINTOS
10
3.5000
20
-0.5000
30
0.0
11
4.5000
21
-0.5000
31
0.0
0
LINE
8
PLINTOS
10
4.5000
20
-0.5000
30
0.0
11
4.5000
21
0.5000
31
0.0
0
LINE
8
PLINTOS
10
4.5000
20
0.5000
30
0.0
11
3.5000
21
0.5000
31
0.0
0
LINE
8
PLINTOS
10
3.5000
20
0.5000
30
0.0
11
3.5000
21
-0.5000
31
0.0
0
LINE
8
PLINTOS
10
3.5000
20
3.0000
30
0.0
11
4.5000
21
3.0000
31
0.0
0
LINE
8
PLINTOS
10
4.5000
20
3.0000
30
0.0
11
4.5000
21
4.0000
31
0.0
0
LINE
8
PLINTOS
10
4.5000
20
4.0000
30
0.0
11
3.5000
21
4.0000
31
0.0
0
LINE
8
PLINTOS
10
3.5000
20
4.0000
30
0.0
11
3.5000
21
3.0000
31
0.0
0
LINE
8
PLINTOS
10
3.5000
20
6.5000
30
0.0
11
4.5000
21
6.5000
31
0.0
0
LINE
8
PLINTOS
10
4.5000
20
6.5000
30
0.0
11
4.5000
21
7.5000
31
0.0
0
LINE
8
PLINTOS
10
4.5000
20
7.5000
30
0.0
11
3.5000
21
7.5000
31
0.0
0
LINE
8
PLINTOS
10
3.5000
20
7.5000
30
0.0
11
3.5000
21
6.5000
31
0.0
0
LINE
8
PLINTOS
10
7.5000
20
-0.5000
30
0.0
11
8.5000
21
-0.5000
31
0.0
0
LINE
8
PLINTOS
10
8.5000
20
-0.5000
30
0.0
11
8.5000
21
0.5000
31
0.0
0
LINE
8
PLINTOS
10
8.5000
20
0.5000
30
0.0
11
7.5000
21
0.5000
31
0.0
0
LINE
8
PLINTOS
10
7.5000
20
0.5000
30
0.0
11
7.5000
21
-0.5000
31
0.0
0
LINE
8
PLINTOS
10
7.5000
20
3.0000
30
0.0
11
8.5000
21
3.0000
31
0.0
0
LINE
8
PLINTOS
10
8.5000
20
3.0000
30
0.0
11
8.5000
21
4.0000
31
0.0
0
LINE
8
PLINTOS
10
8.5000
20
4.0000
30
0.0
11
7.5000
21
4.0000
31
0.0
0
LINE
8
PLINTOS
10
7.5000
20
4.0000
30
0.0
11
7.5000
21
3.0000
31
0.0
0
LINE
8
PLINTOS
10
7.5000
20
6.5000
30
0.0
11
8.5000
21
6.5000
31
0.0
0
LINE
8
PLINTOS
10
8.5000
20
6.5000
30
0.0
11
8.5000
21
7.5000
31
0.0
0
LINE
8
PLINTOS
10
8.5000
20
7.5000
30
0.0
11
7.5000
21
7.5000
31
0.0
0
LINE
8
PLINTOS
10
7.5000
20
7.5000
30
0.0
11
7.5000
21
6.5000
31
0.0
0
LINE
8
COLUMNAS
10
-0.1500
20
-0.1500
30
0.0
11
0.1500
21
-0.1500
31
0.0
0
LINE
8
COLUMNAS
10
0.1500
20
-0.1500
30
0.0
11
0.1500
21
0.1500
31
0.0
0
LINE
8
COLUMNAS
10
0.1500
20
0.1500
30
0.0
11
-0.1500
21
0.1500
31
0.0
0
LINE
8
COLUMNAS
10
-0.1500
20
0.1500
30
0.0
11
-0.1500
21
-0.1500
31
0.0
0
LINE
8
COLUMNAS
10
-0.1500
20
3.3500
30
0.0
11
0.1500
21
3.3500
31
0.0
0
LINE
8
COLUMNAS
10
0.1500
20
3.3500
30
0.0
11
0.1500
21
3.6500
31
0.0
0
LINE
8
COLUMNAS
10
0.1500
20
3.6500
30
0.0
11
-0.1500
21
3.6500
31
0.0
0
LINE
8
COLUMNAS
10
-0.1500
20
3.6500
30
0.0
11
-0.1500
21
3.3500
31
0.0
0
LINE
8
COLUMNAS
10
-0.1500
20
6.8500
30
0.0
11
0.1500
21
6.8500
31
0.0
0
LINE
8
COLUMNAS
10
0.1500
20
6.8500
30
0.0
11
0.1500
21
7.1500
31
0.0
0
LINE
8
COLUMNAS
10
0.1500
20
7.1500
30
0.0
11
-0.1500
21
7.1500
31
0.0
0
LINE
8
COLUMNAS
10
-0.1500
20
7.1500
30
0.0
11
-0.1500
21
6.8500
31
0.0
0
LINE
8
COLUMNAS
10
3.8500
20
-0.1500
30
0.0
11
4.1500
21
-0.1500
31
0.0
0
LINE
8
COLUMNAS
10
4.1500
20
-0.1500
30
0.0
11
4.1500
21
0.1500
31
0.0
0
LINE
8
COLUMNAS
10
4.1500
20
0.1500
30
0.0
11
3.8500
21
0.1500
31
0.0
0
LINE
8
COLUMNAS
10
3.8500
20
0.1500
30
0.0
11
3.8500
21
-0.1500
31
0.0
0
LINE
8
COLUMNAS
10
3.8500
20
3.3500
30
0.0
11
4.1500
21
3.3500
31
0.0
0
LINE
8
COLUMNAS
10
4.1500
20
3.3500
30
0.0
11
4.1500
21
3.6500
31
0.0
0
LINE
8
COLUMNAS
10
4.1500
20
3.6500
30
0.0
11
3.8500
21
3.6500
31
0.0
0
LINE
8
COLUMNAS
10
3.8500
20
3.6500
30
0.0
11
3.8500
21
3.3500
31
0.0
0
LINE
8
COLUMNAS
10
3.8500
20
6.8500
30
0.0
11
4.1500
21
6.8500
31
0.0
0
LINE
8
COLUMNAS
10
4.1500
20
6.8500
30
0.0
11
4.1500
21
7.1500
31
0.0
0
LINE
8
COLUMNAS
10
4.1500
20
7.1500
30
0.0
11
3.8500
21
7.1500
31
0.0
0
LINE
8
COLUMNAS
10
3.8500
20
7.1500
30
0.0
11
3.8500
21
6.8500
31
0.0
0
LINE
8
COLUMNAS
10
7.8500
20
-0.1500
30
0.0
11
8.1500
21
-0.1500
31
0.0
0
LINE
8
COLUMNAS
10
8.1500
20
-0.1500
30
0.0
11
8.1500
21
0.1500
31
0.0
0
LINE
8
COLUMNAS
10
8.1500
20
0.1500
30
0.0
11
7.8500
21
0.1500
31
0.0
0
LINE
8
COLUMNAS
10
7.8500
20
0.1500
30
0.0
11
7.8500
21
-0.1500
31
0.0
0
LINE
8
COLUMNAS
10
7.8500
20
3.3500
30
0.0
11
8.1500
21
3.3500
31
0.0
0
LINE
8
COLUMNAS
10
8.1500
20
3.3500
30
0.0
11
8.1500
21
3.6500
31
0.0
0
LINE
8
COLUMNAS
10
8.1500
20
3.6500
30
0.0
11
7.8500
21
3.6500
31
0.0
0
LINE
8
COLUMNAS
10
7.8500
20
3.6500
30
0.0
11
7.8500
21
3.3500
31
0.0
0
LINE
8
COLUMNAS
10
7.8500
20
6.8500
30
0.0
11
8.1500
21
6.8500
31
0.0
0
LINE
8
COLUMNAS
10
8.1500
20
6.8500
30
0.0
11
8.1500
21
7.1500
31
0.0
0
LINE
8
COLUMNAS
10
8.1500
20
7.1500
30
0.0
11
7.8500
21
7.1500
31
0.0
0
LINE
8
COLUMNAS
10
7.8500
20
7.1500
30
0.0
11
7.8500
21
6.8500
31
0.0
0
LINE
8
COTAS
10
0.0000
20
-1.9500
30
0.0
11
4.0000
21
-1.9500
31
0.0
0
LINE
8
COTAS
10
0.0000
20
-2.0300
30
0.0
11
0.0000
21
-1.8700
31
0.0
0
LINE
8
COTAS
10
4.0000
20
-2.0300
30
0.0
11
4.0000
21
-1.8700
31
0.0
0
TEXT
8
COTAS
10
2.0000
20
-1.8500
30
0.0
40
0.1800
1
4.00
72
1
11
2.0000
21
-1.8500
31
0.0
0
LINE
8
COTAS
10
4.0000
20
-1.9500
30
0.0
11
8.0000
21
-1.9500
31
0.0
0
LINE
8
COTAS
10
4.0000
20
-2.0300
30
0.0
11
4.0000
21
-1.8700
31
0.0
0
LINE
8
COTAS
10
8.0000
20
-2.0300
30
0.0
11
8.0000
21
-1.8700
31
0.0
0
TEXT
8
COTAS
10
6.0000
20
-1.8500
30
0.0
40
0.1800
1
4.00
72
1
11
6.0000
21
-1.8500
31
0.0
0
LINE
8
COTAS
10
9.9500
20
0.0000
30
0.0
11
9.9500
21
3.5000
31
0.0
0
LINE
8
COTAS
10
9.8700
20
0.0000
30
0.0
11
10.0300
21
0.0000
31
0.0
0
LINE
8
COTAS
10
9.8700
20
3.5000
30
0.0
11
10.0300
21
3.5000
31
0.0
0
TEXT
8
COTAS
10
10.0700
20
1.6600
30
0.0
40
0.1800
1
3.50
0
LINE
8
COTAS
10
9.9500
20
3.5000
30
0.0
11
9.9500
21
7.0000
31
0.0
0
LINE
8
COTAS
10
9.8700
20
3.5000
30
0.0
11
10.0300
21
3.5000
31
0.0
0
LINE
8
COTAS
10
9.8700
20
7.0000
30
0.0
11
10.0300
21
7.0000
31
0.0
0
TEXT
8
COTAS
10
10.0700
20
5.1600
30
0.0
40
0.1800
1
3.50
0
TEXT
8
TEXTOS
10
0.0000
20
7.7200
30
0.0
40
0.1600
1
PLINTO 1.00x1.00
72
1
11
0.0000
21
7.7200
31
0.0
0
TEXT
8
TEXTOS
10
2.0000
20
-0.0200
30
0.0
40
0.1500
1
RIOSTRA e=0.20
72
1
11
2.0000
21
-0.0200
31
0.0
0
LINE
8
MEMBRETE
10
4.9700
20
-5.1800
30
0.0
11
10.9700
21
-5.1800
31
0.0
0
LINE
8
MEMBRETE
10
10.9700
20
-5.1800
30
0.0
11
10.9700
21
-2.6300
31
0.0
0
LINE
8
MEMBRETE
10
10.9700
20
-2.6300
30
0.0
11
4.9700
21
-2.6300
31
0.0
0
LINE
8
MEMBRETE
10
4.9700
20
-2.6300
30
0.0
11
4.9700
21
-5.1800
31
0.0
0
LINE
8
MEMBRETE
10
4.9700
20
-3.1800
30
0.0
11
10.9700
21
-3.1800
31
0.0
0
LINE
8
MEMBRETE
10
4.9700
20
-3.6800
30
0.0
11
10.9700
21
-3.6800
31
0.0
0
LINE
8
MEMBRETE
10
4.9700
20
-4.1800
30
0.0
11
10.9700
21
-4.1800
31
0.0
0
LINE
8
MEMBRETE
10
4.9700
20
-4.6800
30
0.0
11
10.9700
21
-4.6800
31
0.0
0
LINE
8
MEMBRETE
10
7.9700
20
-4.1800
30
0.0
11
7.9700
21
-5.1800
31
0.0
0
LINE
8
MEMBRETE
10
6.9700
20
-4.6800
30
0.0
11
6.9700
21
-5.1800
31
0.0
0
LINE
8
MEMBRETE
10
8.9700
20
-4.6800
30
0.0
11
8.9700
21
-5.1800
31
0.0
0
TEXT
8
MEMBRETE
10
7.9700
20
-3.0250
30
0.0
40
0.2400
1
PLANTA DE CIMENTACION
72
1
11
7.9700
21
-3.0250
31
0.0
0
TEXT
8
MEMBRETE
10
5.1100
20
-3.5150
30
0.0
40
0.1700
1
DIBUJANTE:  John Ariel Martinez
0
TEXT
8
MEMBRETE
10
5.1100
20
-4.0150
30
0.0
40
0.1700
1
ASIGNATURA:  Planos Digitales
0
TEXT
8
MEMBRETE
10
5.1100
20
-4.5150
30
0.0
40
0.1700
1
Segundo Parcial
0
TEXT
8
MEMBRETE
10
8.1100
20
-4.5150
30
0.0
40
0.1700
1
CARRERA:  Ingenieria Civil
0
TEXT
8
MEMBRETE
10
5.1100
20
-5.0150
30
0.0
40
0.1700
1
FECHA: 2026-07-13
0
TEXT
8
MEMBRETE
10
7.1100
20
-5.0150
30
0.0
40
0.1700
1
ESC: indicada
0
TEXT
8
MEMBRETE
10
9.1100
20
-5.0150
30
0.0
40
0.1700
1
LAMINA: 01
0
LINE
8
MARCO
10
-2.4800
20
-5.4800
30
0.0
11
10.9700
21
-5.4800
31
0.0
0
LINE
8
MARCO
10
10.9700
20
-5.4800
30
0.0
11
10.9700
21
8.9000
31
0.0
0
LINE
8
MARCO
10
10.9700
20
8.9000
30
0.0
11
-2.4800
21
8.9000
31
0.0
0
LINE
8
MARCO
10
-2.4800
20
8.9000
30
0.0
11
-2.4800
21
-5.4800
31
0.0
0
LINE
8
MARCO
10
-2.3800
20
-5.3800
30
0.0
11
10.8700
21
-5.3800
31
0.0
0
LINE
8
MARCO
10
10.8700
20
-5.3800
30
0.0
11
10.8700
21
8.8000
31
0.0
0
LINE
8
MARCO
10
10.8700
20
8.8000
30
0.0
11
-2.3800
21
8.8000
31
0.0
0
LINE
8
MARCO
10
-2.3800
20
8.8000
30
0.0
11
-2.3800
21
-5.3800
31
0.0
0
ENDSEC
0
EOF
