0
SECTION
2
HEADER
9
$ACADVER
1
AC1009
9
$INSUNITS
70
6
0
ENDSEC
0
SECTION
2
TABLES
0
TABLE
2
LTYPE
70
1
0
LTYPE
2
CONTINUOUS
70
0
3
Solid line
72
65
73
0
40
0.0
0
ENDTAB
0
TABLE
2
LAYER
70
7
0
LAYER
2
EJES
70
0
62
1
6
CONTINUOUS
0
LAYER
2
COLUMNAS
70
0
62
7
6
CONTINUOUS
0
LAYER
2
PLINTOS
70
0
62
2
6
CONTINUOUS
0
LAYER
2
RIOSTRAS
70
0
62
4
6
CONTINUOUS
0
LAYER
2
COTAS
70
0
62
8
6
CONTINUOUS
0
LAYER
2
TEXTOS
70
0
62
3
6
CONTINUOUS
0
LAYER
2
MUROS
70
0
62
9
6
CONTINUOUS
0
ENDTAB
0
ENDSEC
0
SECTION
2
ENTITIES
0
CIRCLE
8
EJES
10
0.0000
20
0.0000
30
0.0
40
4.5000
0
LINE
8
EJES
10
0.0000
20
0.0000
30
0.0
11
5.6500
21
0.0000
31
0.0
0
CIRCLE
8
EJES
10
5.9000
20
0.0000
30
0.0
40
0.2800
0
TEXT
8
EJES
10
5.9000
20
-0.0900
30
0.0
40
0.2200
1
E1
72
1
11
5.9000
21
-0.0900
31
0.0
0
LINE
8
EJES
10
0.0000
20
0.0000
30
0.0
11
3.9952
21
3.9952
31
0.0
0
CIRCLE
8
EJES
10
4.1719
20
4.1719
30
0.0
40
0.2800
0
TEXT
8
EJES
10
4.1719
20
4.0819
30
0.0
40
0.2200
1
E2
72
1
11
4.1719
21
4.0819
31
0.0
0
LINE
8
EJES
10
0.0000
20
0.0000
30
0.0
11
0.0000
21
5.6500
31
0.0
0
CIRCLE
8
EJES
10
0.0000
20
5.9000
30
0.0
40
0.2800
0
TEXT
8
EJES
10
0.0000
20
5.8100
30
0.0
40
0.2200
1
E3
72
1
11
0.0000
21
5.8100
31
0.0
0
LINE
8
EJES
10
0.0000
20
0.0000
30
0.0
11
-3.9952
21
3.9952
31
0.0
0
CIRCLE
8
EJES
10
-4.1719
20
4.1719
30
0.0
40
0.2800
0
TEXT
8
EJES
10
-4.1719
20
4.0819
30
0.0
40
0.2200
1
E4
72
1
11
-4.1719
21
4.0819
31
0.0
0
LINE
8
EJES
10
0.0000
20
0.0000
30
0.0
11
-5.6500
21
0.0000
31
0.0
0
CIRCLE
8
EJES
10
-5.9000
20
0.0000
30
0.0
40
0.2800
0
TEXT
8
EJES
10
-5.9000
20
-0.0900
30
0.0
40
0.2200
1
E5
72
1
11
-5.9000
21
-0.0900
31
0.0
0
LINE
8
EJES
10
0.0000
20
0.0000
30
0.0
11
-3.9952
21
-3.9952
31
0.0
0
CIRCLE
8
EJES
10
-4.1719
20
-4.1719
30
0.0
40
0.2800
0
TEXT
8
EJES
10
-4.1719
20
-4.2619
30
0.0
40
0.2200
1
E6
72
1
11
-4.1719
21
-4.2619
31
0.0
0
LINE
8
EJES
10
0.0000
20
0.0000
30
0.0
11
-0.0000
21
-5.6500
31
0.0
0
CIRCLE
8
EJES
10
-0.0000
20
-5.9000
30
0.0
40
0.2800
0
TEXT
8
EJES
10
-0.0000
20
-5.9900
30
0.0
40
0.2200
1
E7
72
1
11
-0.0000
21
-5.9900
31
0.0
0
LINE
8
EJES
10
0.0000
20
0.0000
30
0.0
11
3.9952
21
-3.9952
31
0.0
0
CIRCLE
8
EJES
10
4.1719
20
-4.1719
30
0.0
40
0.2800
0
TEXT
8
EJES
10
4.1719
20
-4.2619
30
0.0
40
0.2200
1
E8
72
1
11
4.1719
21
-4.2619
31
0.0
0
TEXT
8
EJES
10
0.2800
20
0.1000
30
0.0
40
0.2000
1
C
0
CIRCLE
8
MUROS
10
0.0000
20
0.0000
30
0.0
40
4.9500
0
LINE
8
RIOSTRAS
10
0.5000
20
0.1000
30
0.0
11
4.0000
21
0.1000
31
0.0
0
LINE
8
RIOSTRAS
10
4.0000
20
0.1000
30
0.0
11
4.0000
21
-0.1000
31
0.0
0
LINE
8
RIOSTRAS
10
4.0000
20
-0.1000
30
0.0
11
0.5000
21
-0.1000
31
0.0
0
LINE
8
RIOSTRAS
10
0.5000
20
-0.1000
30
0.0
11
0.5000
21
0.1000
31
0.0
0
LINE
8
RIOSTRAS
10
0.2828
20
0.4243
30
0.0
11
2.7577
21
2.8991
31
0.0
0
LINE
8
RIOSTRAS
10
2.7577
20
2.8991
30
0.0
11
2.8991
21
2.7577
31
0.0
0
LINE
8
RIOSTRAS
10
2.8991
20
2.7577
30
0.0
11
0.4243
21
0.2828
31
0.0
0
LINE
8
RIOSTRAS
10
0.4243
20
0.2828
30
0.0
11
0.2828
21
0.4243
31
0.0
0
LINE
8
RIOSTRAS
10
-0.1000
20
0.5000
30
0.0
11
-0.1000
21
4.0000
31
0.0
0
LINE
8
RIOSTRAS
10
-0.1000
20
4.0000
30
0.0
11
0.1000
21
4.0000
31
0.0
0
LINE
8
RIOSTRAS
10
0.1000
20
4.0000
30
0.0
11
0.1000
21
0.5000
31
0.0
0
LINE
8
RIOSTRAS
10
0.1000
20
0.5000
30
0.0
11
-0.1000
21
0.5000
31
0.0
0
LINE
8
RIOSTRAS
10
-0.4243
20
0.2828
30
0.0
11
-2.8991
21
2.7577
31
0.0
0
LINE
8
RIOSTRAS
10
-2.8991
20
2.7577
30
0.0
11
-2.7577
21
2.8991
31
0.0
0
LINE
8
RIOSTRAS
10
-2.7577
20
2.8991
30
0.0
11
-0.2828
21
0.4243
31
0.0
0
LINE
8
RIOSTRAS
10
-0.2828
20
0.4243
30
0.0
11
-0.4243
21
0.2828
31
0.0
0
LINE
8
RIOSTRAS
10
-0.5000
20
-0.1000
30
0.0
11
-4.0000
21
-0.1000
31
0.0
0
LINE
8
RIOSTRAS
10
-4.0000
20
-0.1000
30
0.0
11
-4.0000
21
0.1000
31
0.0
0
LINE
8
RIOSTRAS
10
-4.0000
20
0.1000
30
0.0
11
-0.5000
21
0.1000
31
0.0
0
LINE
8
RIOSTRAS
10
-0.5000
20
0.1000
30
0.0
11
-0.5000
21
-0.1000
31
0.0
0
LINE
8
RIOSTRAS
10
-0.2828
20
-0.4243
30
0.0
11
-2.7577
21
-2.8991
31
0.0
0
LINE
8
RIOSTRAS
10
-2.7577
20
-2.8991
30
0.0
11
-2.8991
21
-2.7577
31
0.0
0
LINE
8
RIOSTRAS
10
-2.8991
20
-2.7577
30
0.0
11
-0.4243
21
-0.2828
31
0.0
0
LINE
8
RIOSTRAS
10
-0.4243
20
-0.2828
30
0.0
11
-0.2828
21
-0.4243
31
0.0
0
LINE
8
RIOSTRAS
10
0.1000
20
-0.5000
30
0.0
11
0.1000
21
-4.0000
31
0.0
0
LINE
8
RIOSTRAS
10
0.1000
20
-4.0000
30
0.0
11
-0.1000
21
-4.0000
31
0.0
0
LINE
8
RIOSTRAS
10
-0.1000
20
-4.0000
30
0.0
11
-0.1000
21
-0.5000
31
0.0
0
LINE
8
RIOSTRAS
10
-0.1000
20
-0.5000
30
0.0
11
0.1000
21
-0.5000
31
0.0
0
LINE
8
RIOSTRAS
10
0.4243
20
-0.2828
30
0.0
11
2.8991
21
-2.7577
31
0.0
0
LINE
8
RIOSTRAS
10
2.8991
20
-2.7577
30
0.0
11
2.7577
21
-2.8991
31
0.0
0
LINE
8
RIOSTRAS
10
2.7577
20
-2.8991
30
0.0
11
0.2828
21
-0.4243
31
0.0
0
LINE
8
RIOSTRAS
10
0.2828
20
-0.4243
30
0.0
11
0.4243
21
-0.2828
31
0.0
0
LINE
8
RIOSTRAS
10
4.2163
20
0.4237
30
0.0
11
3.2809
21
2.6818
31
0.0
0
LINE
8
RIOSTRAS
10
3.2809
20
2.6818
30
0.0
11
3.4657
21
2.7583
31
0.0
0
LINE
8
RIOSTRAS
10
3.4657
20
2.7583
30
0.0
11
4.4010
21
0.5002
31
0.0
0
LINE
8
RIOSTRAS
10
4.4010
20
0.5002
30
0.0
11
4.2163
21
0.4237
31
0.0
0
LINE
8
RIOSTRAS
10
2.6818
20
3.2809
30
0.0
11
0.4237
21
4.2163
31
0.0
0
LINE
8
RIOSTRAS
10
0.4237
20
4.2163
30
0.0
11
0.5002
21
4.4010
31
0.0
0
LINE
8
RIOSTRAS
10
0.5002
20
4.4010
30
0.0
11
2.7583
21
3.4657
31
0.0
0
LINE
8
RIOSTRAS
10
2.7583
20
3.4657
30
0.0
11
2.6818
21
3.2809
31
0.0
0
LINE
8
RIOSTRAS
10
-0.4237
20
4.2163
30
0.0
11
-2.6818
21
3.2809
31
0.0
0
LINE
8
RIOSTRAS
10
-2.6818
20
3.2809
30
0.0
11
-2.7583
21
3.4657
31
0.0
0
LINE
8
RIOSTRAS
10
-2.7583
20
3.4657
30
0.0
11
-0.5002
21
4.4010
31
0.0
0
LINE
8
RIOSTRAS
10
-0.5002
20
4.4010
30
0.0
11
-0.4237
21
4.2163
31
0.0
0
LINE
8
RIOSTRAS
10
-3.2809
20
2.6818
30
0.0
11
-4.2163
21
0.4237
31
0.0
0
LINE
8
RIOSTRAS
10
-4.2163
20
0.4237
30
0.0
11
-4.4010
21
0.5002
31
0.0
0
LINE
8
RIOSTRAS
10
-4.4010
20
0.5002
30
0.0
11
-3.4657
21
2.7583
31
0.0
0
LINE
8
RIOSTRAS
10
-3.4657
20
2.7583
30
0.0
11
-3.2809
21
2.6818
31
0.0
0
LINE
8
RIOSTRAS
10
-4.2163
20
-0.4237
30
0.0
11
-3.2809
21
-2.6818
31
0.0
0
LINE
8
RIOSTRAS
10
-3.2809
20
-2.6818
30
0.0
11
-3.4657
21
-2.7583
31
0.0
0
LINE
8
RIOSTRAS
10
-3.4657
20
-2.7583
30
0.0
11
-4.4010
21
-0.5002
31
0.0
0
LINE
8
RIOSTRAS
10
-4.4010
20
-0.5002
30
0.0
11
-4.2163
21
-0.4237
31
0.0
0
LINE
8
RIOSTRAS
10
-2.6818
20
-3.2809
30
0.0
11
-0.4237
21
-4.2163
31
0.0
0
LINE
8
RIOSTRAS
10
-0.4237
20
-4.2163
30
0.0
11
-0.5002
21
-4.4010
31
0.0
0
LINE
8
RIOSTRAS
10
-0.5002
20
-4.4010
30
0.0
11
-2.7583
21
-3.4657
31
0.0
0
LINE
8
RIOSTRAS
10
-2.7583
20
-3.4657
30
0.0
11
-2.6818
21
-3.2809
31
0.0
0
LINE
8
RIOSTRAS
10
0.4237
20
-4.2163
30
0.0
11
2.6818
21
-3.2809
31
0.0
0
LINE
8
RIOSTRAS
10
2.6818
20
-3.2809
30
0.0
11
2.7583
21
-3.4657
31
0.0
0
LINE
8
RIOSTRAS
10
2.7583
20
-3.4657
30
0.0
11
0.5002
21
-4.4010
31
0.0
0
LINE
8
RIOSTRAS
10
0.5002
20
-4.4010
30
0.0
11
0.4237
21
-4.2163
31
0.0
0
LINE
8
RIOSTRAS
10
3.2809
20
-2.6818
30
0.0
11
4.2163
21
-0.4237
31
0.0
0
LINE
8
RIOSTRAS
10
4.2163
20
-0.4237
30
0.0
11
4.4010
21
-0.5002
31
0.0
0
LINE
8
RIOSTRAS
10
4.4010
20
-0.5002
30
0.0
11
3.4657
21
-2.7583
31
0.0
0
LINE
8
RIOSTRAS
10
3.4657
20
-2.7583
30
0.0
11
3.2809
21
-2.6818
31
0.0
0
LINE
8
PLINTOS
10
0.5000
20
0.5000
30
0.0
11
0.5000
21
-0.5000
31
0.0
0
LINE
8
PLINTOS
10
0.5000
20
-0.5000
30
0.0
11
-0.5000
21
-0.5000
31
0.0
0
LINE
8
PLINTOS
10
-0.5000
20
-0.5000
30
0.0
11
-0.5000
21
0.5000
31
0.0
0
LINE
8
PLINTOS
10
-0.5000
20
0.5000
30
0.0
11
0.5000
21
0.5000
31
0.0
0
LINE
8
PLINTOS
10
5.0000
20
0.5000
30
0.0
11
5.0000
21
-0.5000
31
0.0
0
LINE
8
PLINTOS
10
5.0000
20
-0.5000
30
0.0
11
4.0000
21
-0.5000
31
0.0
0
LINE
8
PLINTOS
10
4.0000
20
-0.5000
30
0.0
11
4.0000
21
0.5000
31
0.0
0
LINE
8
PLINTOS
10
4.0000
20
0.5000
30
0.0
11
5.0000
21
0.5000
31
0.0
0
LINE
8
PLINTOS
10
3.1820
20
3.8891
30
0.0
11
3.8891
21
3.1820
31
0.0
0
LINE
8
PLINTOS
10
3.8891
20
3.1820
30
0.0
11
3.1820
21
2.4749
31
0.0
0
LINE
8
PLINTOS
10
3.1820
20
2.4749
30
0.0
11
2.4749
21
3.1820
31
0.0
0
LINE
8
PLINTOS
10
2.4749
20
3.1820
30
0.0
11
3.1820
21
3.8891
31
0.0
0
LINE
8
PLINTOS
10
-0.5000
20
5.0000
30
0.0
11
0.5000
21
5.0000
31
0.0
0
LINE
8
PLINTOS
10
0.5000
20
5.0000
30
0.0
11
0.5000
21
4.0000
31
0.0
0
LINE
8
PLINTOS
10
0.5000
20
4.0000
30
0.0
11
-0.5000
21
4.0000
31
0.0
0
LINE
8
PLINTOS
10
-0.5000
20
4.0000
30
0.0
11
-0.5000
21
5.0000
31
0.0
0
LINE
8
PLINTOS
10
-3.8891
20
3.1820
30
0.0
11
-3.1820
21
3.8891
31
0.0
0
LINE
8
PLINTOS
10
-3.1820
20
3.8891
30
0.0
11
-2.4749
21
3.1820
31
0.0
0
LINE
8
PLINTOS
10
-2.4749
20
3.1820
30
0.0
11
-3.1820
21
2.4749
31
0.0
0
LINE
8
PLINTOS
10
-3.1820
20
2.4749
30
0.0
11
-3.8891
21
3.1820
31
0.0
0
LINE
8
PLINTOS
10
-5.0000
20
-0.5000
30
0.0
11
-5.0000
21
0.5000
31
0.0
0
LINE
8
PLINTOS
10
-5.0000
20
0.5000
30
0.0
11
-4.0000
21
0.5000
31
0.0
0
LINE
8
PLINTOS
10
-4.0000
20
0.5000
30
0.0
11
-4.0000
21
-0.5000
31
0.0
0
LINE
8
PLINTOS
10
-4.0000
20
-0.5000
30
0.0
11
-5.0000
21
-0.5000
31
0.0
0
LINE
8
PLINTOS
10
-3.1820
20
-3.8891
30
0.0
11
-3.8891
21
-3.1820
31
0.0
0
LINE
8
PLINTOS
10
-3.8891
20
-3.1820
30
0.0
11
-3.1820
21
-2.4749
31
0.0
0
LINE
8
PLINTOS
10
-3.1820
20
-2.4749
30
0.0
11
-2.4749
21
-3.1820
31
0.0
0
LINE
8
PLINTOS
10
-2.4749
20
-3.1820
30
0.0
11
-3.1820
21
-3.8891
31
0.0
0
LINE
8
PLINTOS
10
0.5000
20
-5.0000
30
0.0
11
-0.5000
21
-5.0000
31
0.0
0
LINE
8
PLINTOS
10
-0.5000
20
-5.0000
30
0.0
11
-0.5000
21
-4.0000
31
0.0
0
LINE
8
PLINTOS
10
-0.5000
20
-4.0000
30
0.0
11
0.5000
21
-4.0000
31
0.0
0
LINE
8
PLINTOS
10
0.5000
20
-4.0000
30
0.0
11
0.5000
21
-5.0000
31
0.0
0
LINE
8
PLINTOS
10
3.8891
20
-3.1820
30
0.0
11
3.1820
21
-3.8891
31
0.0
0
LINE
8
PLINTOS
10
3.1820
20
-3.8891
30
0.0
11
2.4749
21
-3.1820
31
0.0
0
LINE
8
PLINTOS
10
2.4749
20
-3.1820
30
0.0
11
3.1820
21
-2.4749
31
0.0
0
LINE
8
PLINTOS
10
3.1820
20
-2.4749
30
0.0
11
3.8891
21
-3.1820
31
0.0
0
LINE
8
COLUMNAS
10
0.1500
20
0.1500
30
0.0
11
0.1500
21
-0.1500
31
0.0
0
LINE
8
COLUMNAS
10
0.1500
20
-0.1500
30
0.0
11
-0.1500
21
-0.1500
31
0.0
0
LINE
8
COLUMNAS
10
-0.1500
20
-0.1500
30
0.0
11
-0.1500
21
0.1500
31
0.0
0
LINE
8
COLUMNAS
10
-0.1500
20
0.1500
30
0.0
11
0.1500
21
0.1500
31
0.0
0
LINE
8
COLUMNAS
10
4.6500
20
0.1500
30
0.0
11
4.6500
21
-0.1500
31
0.0
0
LINE
8
COLUMNAS
10
4.6500
20
-0.1500
30
0.0
11
4.3500
21
-0.1500
31
0.0
0
LINE
8
COLUMNAS
10
4.3500
20
-0.1500
30
0.0
11
4.3500
21
0.1500
31
0.0
0
LINE
8
COLUMNAS
10
4.3500
20
0.1500
30
0.0
11
4.6500
21
0.1500
31
0.0
0
LINE
8
COLUMNAS
10
3.1820
20
3.3941
30
0.0
11
3.3941
21
3.1820
31
0.0
0
LINE
8
COLUMNAS
10
3.3941
20
3.1820
30
0.0
11
3.1820
21
2.9698
31
0.0
0
LINE
8
COLUMNAS
10
3.1820
20
2.9698
30
0.0
11
2.9698
21
3.1820
31
0.0
0
LINE
8
COLUMNAS
10
2.9698
20
3.1820
30
0.0
11
3.1820
21
3.3941
31
0.0
0
LINE
8
COLUMNAS
10
-0.1500
20
4.6500
30
0.0
11
0.1500
21
4.6500
31
0.0
0
LINE
8
COLUMNAS
10
0.1500
20
4.6500
30
0.0
11
0.1500
21
4.3500
31
0.0
0
LINE
8
COLUMNAS
10
0.1500
20
4.3500
30
0.0
11
-0.1500
21
4.3500
31
0.0
0
LINE
8
COLUMNAS
10
-0.1500
20
4.3500
30
0.0
11
-0.1500
21
4.6500
31
0.0
0
LINE
8
COLUMNAS
10
-3.3941
20
3.1820
30
0.0
11
-3.1820
21
3.3941
31
0.0
0
LINE
8
COLUMNAS
10
-3.1820
20
3.3941
30
0.0
11
-2.9698
21
3.1820
31
0.0
0
LINE
8
COLUMNAS
10
-2.9698
20
3.1820
30
0.0
11
-3.1820
21
2.9698
31
0.0
0
LINE
8
COLUMNAS
10
-3.1820
20
2.9698
30
0.0
11
-3.3941
21
3.1820
31
0.0
0
LINE
8
COLUMNAS
10
-4.6500
20
-0.1500
30
0.0
11
-4.6500
21
0.1500
31
0.0
0
LINE
8
COLUMNAS
10
-4.6500
20
0.1500
30
0.0
11
-4.3500
21
0.1500
31
0.0
0
LINE
8
COLUMNAS
10
-4.3500
20
0.1500
30
0.0
11
-4.3500
21
-0.1500
31
0.0
0
LINE
8
COLUMNAS
10
-4.3500
20
-0.1500
30
0.0
11
-4.6500
21
-0.1500
31
0.0
0
LINE
8
COLUMNAS
10
-3.1820
20
-3.3941
30
0.0
11
-3.3941
21
-3.1820
31
0.0
0
LINE
8
COLUMNAS
10
-3.3941
20
-3.1820
30
0.0
11
-3.1820
21
-2.9698
31
0.0
0
LINE
8
COLUMNAS
10
-3.1820
20
-2.9698
30
0.0
11
-2.9698
21
-3.1820
31
0.0
0
LINE
8
COLUMNAS
10
-2.9698
20
-3.1820
30
0.0
11
-3.1820
21
-3.3941
31
0.0
0
LINE
8
COLUMNAS
10
0.1500
20
-4.6500
30
0.0
11
-0.1500
21
-4.6500
31
0.0
0
LINE
8
COLUMNAS
10
-0.1500
20
-4.6500
30
0.0
11
-0.1500
21
-4.3500
31
0.0
0
LINE
8
COLUMNAS
10
-0.1500
20
-4.3500
30
0.0
11
0.1500
21
-4.3500
31
0.0
0
LINE
8
COLUMNAS
10
0.1500
20
-4.3500
30
0.0
11
0.1500
21
-4.6500
31
0.0
0
LINE
8
COLUMNAS
10
3.3941
20
-3.1820
30
0.0
11
3.1820
21
-3.3941
31
0.0
0
LINE
8
COLUMNAS
10
3.1820
20
-3.3941
30
0.0
11
2.9698
21
-3.1820
31
0.0
0
LINE
8
COLUMNAS
10
2.9698
20
-3.1820
30
0.0
11
3.1820
21
-2.9698
31
0.0
0
LINE
8
COLUMNAS
10
3.1820
20
-2.9698
30
0.0
11
3.3941
21
-3.1820
31
0.0
0
LINE
8
COTAS
10
0.0000
20
0.0000
30
0.0
11
4.1575
21
1.7221
31
0.0
0
TEXT
8
COTAS
10
1.2000
20
1.0500
30
0.0
40
0.2000
1
R = 4.50
0
TEXT
8
TEXTOS
10
4.0000
20
0.7500
30
0.0
40
0.1600
1
PLINTO 1.00x1.00
72
1
11
4.0000
21
0.7500
31
0.0
0
TEXT
8
TEXTOS
10
4.9410
20
1.5910
30
0.0
40
0.1600
1
RIOSTRA e=0.20
72
1
11
4.9410
21
1.5910
31
0.0
0
TEXT
8
TEXTOS
10
0.0000
20
-6.5500
30
0.0
40
0.3000
1
PLANTA DE CIMENTACION - CASA CIRCULAR
72
1
11
0.0000
21
-6.5500
31
0.0
0
TEXT
8
TEXTOS
10
0.0000
20
-7.0000
30
0.0
40
0.1700
1
8 columnas perimetrales + 1 central   |   esc. real (m)
72
1
11
0.0000
21
-7.0000
31
0.0
0
ENDSEC
0
EOF
