0
SECTION
2
HEADER
9
$ACADVER
1
AC1009
9
$INSUNITS
70
6
0
ENDSEC
0
SECTION
2
TABLES
0
TABLE
2
LTYPE
70
1
0
LTYPE
2
CONTINUOUS
70
0
3
Solid line
72
65
73
0
40
0.0
0
ENDTAB
0
TABLE
2
LAYER
70
13
0
LAYER
2
EJES
70
0
62
1
6
CONTINUOUS
0
LAYER
2
MUROS
70
0
62
7
6
CONTINUOUS
0
LAYER
2
PUERTAS
70
0
62
4
6
CONTINUOUS
0
LAYER
2
VENTANAS
70
0
62
5
6
CONTINUOUS
0
LAYER
2
ESCALERA
70
0
62
6
6
CONTINUOUS
0
LAYER
2
MOBILIARIO
70
0
62
9
6
CONTINUOUS
0
LAYER
2
COTAS
70
0
62
8
6
CONTINUOUS
0
LAYER
2
TEXTOS
70
0
62
3
6
CONTINUOUS
0
LAYER
2
COLUMNAS
70
0
62
7
6
CONTINUOUS
0
LAYER
2
PLINTOS
70
0
62
2
6
CONTINUOUS
0
LAYER
2
RIOSTRAS
70
0
62
4
6
CONTINUOUS
0
LAYER
2
MARCO
70
0
62
7
6
CONTINUOUS
0
LAYER
2
MEMBRETE
70
0
62
7
6
CONTINUOUS
0
ENDTAB
0
ENDSEC
0
SECTION
2
ENTITIES
0
LINE
8
EJES
10
1.5200
20
19.3000
30
0.0
11
1.5200
21
32.1000
31
0.0
0
CIRCLE
8
EJES
10
1.5200
20
18.9800
30
0.0
40
0.3000
0
TEXT
8
EJES
10
1.5200
20
18.8800
30
0.0
40
0.2400
1
1
72
1
11
1.5200
21
18.8800
31
0.0
0
LINE
8
EJES
10
5.5200
20
19.3000
30
0.0
11
5.5200
21
32.1000
31
0.0
0
CIRCLE
8
EJES
10
5.5200
20
18.9800
30
0.0
40
0.3000
0
TEXT
8
EJES
10
5.5200
20
18.8800
30
0.0
40
0.2400
1
2
72
1
11
5.5200
21
18.8800
31
0.0
0
LINE
8
EJES
10
9.5200
20
19.3000
30
0.0
11
9.5200
21
32.1000
31
0.0
0
CIRCLE
8
EJES
10
9.5200
20
18.9800
30
0.0
40
0.3000
0
TEXT
8
EJES
10
9.5200
20
18.8800
30
0.0
40
0.2400
1
3
72
1
11
9.5200
21
18.8800
31
0.0
0
LINE
8
EJES
10
13.5200
20
19.3000
30
0.0
11
13.5200
21
32.1000
31
0.0
0
CIRCLE
8
EJES
10
13.5200
20
18.9800
30
0.0
40
0.3000
0
TEXT
8
EJES
10
13.5200
20
18.8800
30
0.0
40
0.2400
1
4
72
1
11
13.5200
21
18.8800
31
0.0
0
LINE
8
EJES
10
0.6200
20
20.2000
30
0.0
11
14.4200
21
20.2000
31
0.0
0
CIRCLE
8
EJES
10
0.3000
20
20.2000
30
0.0
40
0.3000
0
TEXT
8
EJES
10
0.3000
20
20.1000
30
0.0
40
0.2400
1
A
72
1
11
0.3000
21
20.1000
31
0.0
0
LINE
8
EJES
10
0.6200
20
23.7000
30
0.0
11
14.4200
21
23.7000
31
0.0
0
CIRCLE
8
EJES
10
0.3000
20
23.7000
30
0.0
40
0.3000
0
TEXT
8
EJES
10
0.3000
20
23.6000
30
0.0
40
0.2400
1
B
72
1
11
0.3000
21
23.6000
31
0.0
0
LINE
8
EJES
10
0.6200
20
27.2000
30
0.0
11
14.4200
21
27.2000
31
0.0
0
CIRCLE
8
EJES
10
0.3000
20
27.2000
30
0.0
40
0.3000
0
TEXT
8
EJES
10
0.3000
20
27.1000
30
0.0
40
0.2400
1
C
72
1
11
0.3000
21
27.1000
31
0.0
0
LINE
8
EJES
10
0.6200
20
31.2000
30
0.0
11
14.4200
21
31.2000
31
0.0
0
CIRCLE
8
EJES
10
0.3000
20
31.2000
30
0.0
40
0.3000
0
TEXT
8
EJES
10
0.3000
20
31.1000
30
0.0
40
0.2400
1
D
72
1
11
0.3000
21
31.1000
31
0.0
0
LINE
8
COLUMNAS
10
1.3700
20
20.0500
30
0.0
11
1.6700
21
20.0500
31
0.0
0
LINE
8
COLUMNAS
10
1.6700
20
20.0500
30
0.0
11
1.6700
21
20.3500
31
0.0
0
LINE
8
COLUMNAS
10
1.6700
20
20.3500
30
0.0
11
1.3700
21
20.3500
31
0.0
0
LINE
8
COLUMNAS
10
1.3700
20
20.3500
30
0.0
11
1.3700
21
20.0500
31
0.0
0
LINE
8
COLUMNAS
10
1.3700
20
23.5500
30
0.0
11
1.6700
21
23.5500
31
0.0
0
LINE
8
COLUMNAS
10
1.6700
20
23.5500
30
0.0
11
1.6700
21
23.8500
31
0.0
0
LINE
8
COLUMNAS
10
1.6700
20
23.8500
30
0.0
11
1.3700
21
23.8500
31
0.0
0
LINE
8
COLUMNAS
10
1.3700
20
23.8500
30
0.0
11
1.3700
21
23.5500
31
0.0
0
LINE
8
COLUMNAS
10
1.3700
20
27.0500
30
0.0
11
1.6700
21
27.0500
31
0.0
0
LINE
8
COLUMNAS
10
1.6700
20
27.0500
30
0.0
11
1.6700
21
27.3500
31
0.0
0
LINE
8
COLUMNAS
10
1.6700
20
27.3500
30
0.0
11
1.3700
21
27.3500
31
0.0
0
LINE
8
COLUMNAS
10
1.3700
20
27.3500
30
0.0
11
1.3700
21
27.0500
31
0.0
0
LINE
8
COLUMNAS
10
1.3700
20
31.0500
30
0.0
11
1.6700
21
31.0500
31
0.0
0
LINE
8
COLUMNAS
10
1.6700
20
31.0500
30
0.0
11
1.6700
21
31.3500
31
0.0
0
LINE
8
COLUMNAS
10
1.6700
20
31.3500
30
0.0
11
1.3700
21
31.3500
31
0.0
0
LINE
8
COLUMNAS
10
1.3700
20
31.3500
30
0.0
11
1.3700
21
31.0500
31
0.0
0
LINE
8
COLUMNAS
10
5.3700
20
20.0500
30
0.0
11
5.6700
21
20.0500
31
0.0
0
LINE
8
COLUMNAS
10
5.6700
20
20.0500
30
0.0
11
5.6700
21
20.3500
31
0.0
0
LINE
8
COLUMNAS
10
5.6700
20
20.3500
30
0.0
11
5.3700
21
20.3500
31
0.0
0
LINE
8
COLUMNAS
10
5.3700
20
20.3500
30
0.0
11
5.3700
21
20.0500
31
0.0
0
LINE
8
COLUMNAS
10
5.3700
20
23.5500
30
0.0
11
5.6700
21
23.5500
31
0.0
0
LINE
8
COLUMNAS
10
5.6700
20
23.5500
30
0.0
11
5.6700
21
23.8500
31
0.0
0
LINE
8
COLUMNAS
10
5.6700
20
23.8500
30
0.0
11
5.3700
21
23.8500
31
0.0
0
LINE
8
COLUMNAS
10
5.3700
20
23.8500
30
0.0
11
5.3700
21
23.5500
31
0.0
0
LINE
8
COLUMNAS
10
5.3700
20
27.0500
30
0.0
11
5.6700
21
27.0500
31
0.0
0
LINE
8
COLUMNAS
10
5.6700
20
27.0500
30
0.0
11
5.6700
21
27.3500
31
0.0
0
LINE
8
COLUMNAS
10
5.6700
20
27.3500
30
0.0
11
5.3700
21
27.3500
31
0.0
0
LINE
8
COLUMNAS
10
5.3700
20
27.3500
30
0.0
11
5.3700
21
27.0500
31
0.0
0
LINE
8
COLUMNAS
10
5.3700
20
31.0500
30
0.0
11
5.6700
21
31.0500
31
0.0
0
LINE
8
COLUMNAS
10
5.6700
20
31.0500
30
0.0
11
5.6700
21
31.3500
31
0.0
0
LINE
8
COLUMNAS
10
5.6700
20
31.3500
30
0.0
11
5.3700
21
31.3500
31
0.0
0
LINE
8
COLUMNAS
10
5.3700
20
31.3500
30
0.0
11
5.3700
21
31.0500
31
0.0
0
LINE
8
COLUMNAS
10
9.3700
20
20.0500
30
0.0
11
9.6700
21
20.0500
31
0.0
0
LINE
8
COLUMNAS
10
9.6700
20
20.0500
30
0.0
11
9.6700
21
20.3500
31
0.0
0
LINE
8
COLUMNAS
10
9.6700
20
20.3500
30
0.0
11
9.3700
21
20.3500
31
0.0
0
LINE
8
COLUMNAS
10
9.3700
20
20.3500
30
0.0
11
9.3700
21
20.0500
31
0.0
0
LINE
8
COLUMNAS
10
9.3700
20
23.5500
30
0.0
11
9.6700
21
23.5500
31
0.0
0
LINE
8
COLUMNAS
10
9.6700
20
23.5500
30
0.0
11
9.6700
21
23.8500
31
0.0
0
LINE
8
COLUMNAS
10
9.6700
20
23.8500
30
0.0
11
9.3700
21
23.8500
31
0.0
0
LINE
8
COLUMNAS
10
9.3700
20
23.8500
30
0.0
11
9.3700
21
23.5500
31
0.0
0
LINE
8
COLUMNAS
10
9.3700
20
27.0500
30
0.0
11
9.6700
21
27.0500
31
0.0
0
LINE
8
COLUMNAS
10
9.6700
20
27.0500
30
0.0
11
9.6700
21
27.3500
31
0.0
0
LINE
8
COLUMNAS
10
9.6700
20
27.3500
30
0.0
11
9.3700
21
27.3500
31
0.0
0
LINE
8
COLUMNAS
10
9.3700
20
27.3500
30
0.0
11
9.3700
21
27.0500
31
0.0
0
LINE
8
COLUMNAS
10
9.3700
20
31.0500
30
0.0
11
9.6700
21
31.0500
31
0.0
0
LINE
8
COLUMNAS
10
9.6700
20
31.0500
30
0.0
11
9.6700
21
31.3500
31
0.0
0
LINE
8
COLUMNAS
10
9.6700
20
31.3500
30
0.0
11
9.3700
21
31.3500
31
0.0
0
LINE
8
COLUMNAS
10
9.3700
20
31.3500
30
0.0
11
9.3700
21
31.0500
31
0.0
0
LINE
8
COLUMNAS
10
13.3700
20
20.0500
30
0.0
11
13.6700
21
20.0500
31
0.0
0
LINE
8
COLUMNAS
10
13.6700
20
20.0500
30
0.0
11
13.6700
21
20.3500
31
0.0
0
LINE
8
COLUMNAS
10
13.6700
20
20.3500
30
0.0
11
13.3700
21
20.3500
31
0.0
0
LINE
8
COLUMNAS
10
13.3700
20
20.3500
30
0.0
11
13.3700
21
20.0500
31
0.0
0
LINE
8
COLUMNAS
10
13.3700
20
23.5500
30
0.0
11
13.6700
21
23.5500
31
0.0
0
LINE
8
COLUMNAS
10
13.6700
20
23.5500
30
0.0
11
13.6700
21
23.8500
31
0.0
0
LINE
8
COLUMNAS
10
13.6700
20
23.8500
30
0.0
11
13.3700
21
23.8500
31
0.0
0
LINE
8
COLUMNAS
10
13.3700
20
23.8500
30
0.0
11
13.3700
21
23.5500
31
0.0
0
LINE
8
COLUMNAS
10
13.3700
20
27.0500
30
0.0
11
13.6700
21
27.0500
31
0.0
0
LINE
8
COLUMNAS
10
13.6700
20
27.0500
30
0.0
11
13.6700
21
27.3500
31
0.0
0
LINE
8
COLUMNAS
10
13.6700
20
27.3500
30
0.0
11
13.3700
21
27.3500
31
0.0
0
LINE
8
COLUMNAS
10
13.3700
20
27.3500
30
0.0
11
13.3700
21
27.0500
31
0.0
0
LINE
8
COLUMNAS
10
13.3700
20
31.0500
30
0.0
11
13.6700
21
31.0500
31
0.0
0
LINE
8
COLUMNAS
10
13.6700
20
31.0500
30
0.0
11
13.6700
21
31.3500
31
0.0
0
LINE
8
COLUMNAS
10
13.6700
20
31.3500
30
0.0
11
13.3700
21
31.3500
31
0.0
0
LINE
8
COLUMNAS
10
13.3700
20
31.3500
30
0.0
11
13.3700
21
31.0500
31
0.0
0
LINE
8
MUROS
10
1.5200
20
20.2000
30
0.0
11
1.7200
21
20.2000
31
0.0
0
LINE
8
MUROS
10
1.7200
20
20.2000
30
0.0
11
1.7200
21
31.2000
31
0.0
0
LINE
8
MUROS
10
1.7200
20
31.2000
30
0.0
11
1.5200
21
31.2000
31
0.0
0
LINE
8
MUROS
10
1.5200
20
31.2000
30
0.0
11
1.5200
21
20.2000
31
0.0
0
LINE
8
MUROS
10
13.3200
20
20.2000
30
0.0
11
13.5200
21
20.2000
31
0.0
0
LINE
8
MUROS
10
13.5200
20
20.2000
30
0.0
11
13.5200
21
31.2000
31
0.0
0
LINE
8
MUROS
10
13.5200
20
31.2000
30
0.0
11
13.3200
21
31.2000
31
0.0
0
LINE
8
MUROS
10
13.3200
20
31.2000
30
0.0
11
13.3200
21
20.2000
31
0.0
0
LINE
8
MUROS
10
1.5200
20
20.2000
30
0.0
11
13.5200
21
20.2000
31
0.0
0
LINE
8
MUROS
10
13.5200
20
20.2000
30
0.0
11
13.5200
21
20.4000
31
0.0
0
LINE
8
MUROS
10
13.5200
20
20.4000
30
0.0
11
1.5200
21
20.4000
31
0.0
0
LINE
8
MUROS
10
1.5200
20
20.4000
30
0.0
11
1.5200
21
20.2000
31
0.0
0
LINE
8
MUROS
10
1.5200
20
31.0000
30
0.0
11
13.5200
21
31.0000
31
0.0
0
LINE
8
MUROS
10
13.5200
20
31.0000
30
0.0
11
13.5200
21
31.2000
31
0.0
0
LINE
8
MUROS
10
13.5200
20
31.2000
30
0.0
11
1.5200
21
31.2000
31
0.0
0
LINE
8
MUROS
10
1.5200
20
31.2000
30
0.0
11
1.5200
21
31.0000
31
0.0
0
LINE
8
MUROS
10
6.4600
20
20.2000
30
0.0
11
6.4600
21
31.2000
31
0.0
0
LINE
8
MUROS
10
6.4600
20
31.2000
30
0.0
11
6.5800
21
31.2000
31
0.0
0
LINE
8
MUROS
10
6.5800
20
31.2000
30
0.0
11
6.5800
21
20.2000
31
0.0
0
LINE
8
MUROS
10
6.5800
20
20.2000
30
0.0
11
6.4600
21
20.2000
31
0.0
0
LINE
8
MUROS
10
8.8600
20
20.2000
30
0.0
11
8.8600
21
31.2000
31
0.0
0
LINE
8
MUROS
10
8.8600
20
31.2000
30
0.0
11
8.9800
21
31.2000
31
0.0
0
LINE
8
MUROS
10
8.9800
20
31.2000
30
0.0
11
8.9800
21
20.2000
31
0.0
0
LINE
8
MUROS
10
8.9800
20
20.2000
30
0.0
11
8.8600
21
20.2000
31
0.0
0
LINE
8
MUROS
10
1.5200
20
25.8600
30
0.0
11
6.5200
21
25.8600
31
0.0
0
LINE
8
MUROS
10
6.5200
20
25.8600
30
0.0
11
6.5200
21
25.7400
31
0.0
0
LINE
8
MUROS
10
6.5200
20
25.7400
30
0.0
11
1.5200
21
25.7400
31
0.0
0
LINE
8
MUROS
10
1.5200
20
25.7400
30
0.0
11
1.5200
21
25.8600
31
0.0
0
LINE
8
MUROS
10
8.9200
20
25.6600
30
0.0
11
13.5200
21
25.6600
31
0.0
0
LINE
8
MUROS
10
13.5200
20
25.6600
30
0.0
11
13.5200
21
25.5400
31
0.0
0
LINE
8
MUROS
10
13.5200
20
25.5400
30
0.0
11
8.9200
21
25.5400
31
0.0
0
LINE
8
MUROS
10
8.9200
20
25.5400
30
0.0
11
8.9200
21
25.6600
31
0.0
0
LINE
8
MUROS
10
6.5200
20
23.6600
30
0.0
11
8.9200
21
23.6600
31
0.0
0
LINE
8
MUROS
10
8.9200
20
23.6600
30
0.0
11
8.9200
21
23.5400
31
0.0
0
LINE
8
MUROS
10
8.9200
20
23.5400
30
0.0
11
6.5200
21
23.5400
31
0.0
0
LINE
8
MUROS
10
6.5200
20
23.5400
30
0.0
11
6.5200
21
23.6600
31
0.0
0
LINE
8
MUROS
10
6.5200
20
28.6600
30
0.0
11
8.9200
21
28.6600
31
0.0
0
LINE
8
MUROS
10
8.9200
20
28.6600
30
0.0
11
8.9200
21
28.5400
31
0.0
0
LINE
8
MUROS
10
8.9200
20
28.5400
30
0.0
11
6.5200
21
28.5400
31
0.0
0
LINE
8
MUROS
10
6.5200
20
28.5400
30
0.0
11
6.5200
21
28.6600
31
0.0
0
TEXT
8
TEXTOS
10
4.1200
20
23.1000
30
0.0
40
0.2400
1
GARAJE
72
1
11
4.1200
21
23.1000
31
0.0
0
TEXT
8
TEXTOS
10
4.1200
20
22.7800
30
0.0
40
0.1600
1
25.9 m2
72
1
11
4.1200
21
22.7800
31
0.0
0
TEXT
8
TEXTOS
10
4.1200
20
28.4000
30
0.0
40
0.2400
1
COCINA
72
1
11
4.1200
21
28.4000
31
0.0
0
TEXT
8
TEXTOS
10
4.1200
20
28.0800
30
0.0
40
0.1600
1
25.0 m2
72
1
11
4.1200
21
28.0800
31
0.0
0
TEXT
8
TEXTOS
10
7.7200
20
22.0000
30
0.0
40
0.2400
1
HALL
72
1
11
7.7200
21
22.0000
31
0.0
0
TEXT
8
TEXTOS
10
7.7200
20
21.6800
30
0.0
40
0.1600
1
7.7 m2
72
1
11
7.7200
21
21.6800
31
0.0
0
TEXT
8
TEXTOS
10
7.7200
20
29.8000
30
0.0
40
0.2400
1
DESPENSA
72
1
11
7.7200
21
29.8000
31
0.0
0
TEXT
8
TEXTOS
10
7.7200
20
27.7500
30
0.0
40
0.2400
1
BANO
72
1
11
7.7200
21
27.7500
31
0.0
0
TEXT
8
TEXTOS
10
11.2200
20
23.0000
30
0.0
40
0.2400
1
SALA
72
1
11
11.2200
21
23.0000
31
0.0
0
TEXT
8
TEXTOS
10
11.2200
20
22.6800
30
0.0
40
0.1600
1
23.9 m2
72
1
11
11.2200
21
22.6800
31
0.0
0
TEXT
8
TEXTOS
10
11.2200
20
28.3000
30
0.0
40
0.2400
1
COMEDOR
72
1
11
11.2200
21
28.3000
31
0.0
0
TEXT
8
TEXTOS
10
11.2200
20
27.9800
30
0.0
40
0.1600
1
24.8 m2
72
1
11
11.2200
21
27.9800
31
0.0
0
LINE
8
ESCALERA
10
6.6700
20
23.7500
30
0.0
11
8.7700
21
23.7500
31
0.0
0
LINE
8
ESCALERA
10
8.7700
20
23.7500
30
0.0
11
8.7700
21
26.7000
31
0.0
0
LINE
8
ESCALERA
10
8.7700
20
26.7000
30
0.0
11
6.6700
21
26.7000
31
0.0
0
LINE
8
ESCALERA
10
6.6700
20
26.7000
30
0.0
11
6.6700
21
23.7500
31
0.0
0
LINE
8
ESCALERA
10
6.6700
20
24.0182
30
0.0
11
8.7700
21
24.0182
31
0.0
0
LINE
8
ESCALERA
10
6.6700
20
24.2864
30
0.0
11
8.7700
21
24.2864
31
0.0
0
LINE
8
ESCALERA
10
6.6700
20
24.5545
30
0.0
11
8.7700
21
24.5545
31
0.0
0
LINE
8
ESCALERA
10
6.6700
20
24.8227
30
0.0
11
8.7700
21
24.8227
31
0.0
0
LINE
8
ESCALERA
10
6.6700
20
25.0909
30
0.0
11
8.7700
21
25.0909
31
0.0
0
LINE
8
ESCALERA
10
6.6700
20
25.3591
30
0.0
11
8.7700
21
25.3591
31
0.0
0
LINE
8
ESCALERA
10
6.6700
20
25.6273
30
0.0
11
8.7700
21
25.6273
31
0.0
0
LINE
8
ESCALERA
10
6.6700
20
25.8955
30
0.0
11
8.7700
21
25.8955
31
0.0
0
LINE
8
ESCALERA
10
6.6700
20
26.1636
30
0.0
11
8.7700
21
26.1636
31
0.0
0
LINE
8
ESCALERA
10
6.6700
20
26.4318
30
0.0
11
8.7700
21
26.4318
31
0.0
0
LINE
8
ESCALERA
10
7.7200
20
23.9000
30
0.0
11
7.7200
21
26.5500
31
0.0
0
LINE
8
ESCALERA
10
7.7200
20
26.5500
30
0.0
11
7.6000
21
26.3000
31
0.0
0
LINE
8
ESCALERA
10
7.7200
20
26.5500
30
0.0
11
7.8400
21
26.3000
31
0.0
0
TEXT
8
TEXTOS
10
7.7200
20
25.2250
30
0.0
40
0.1600
1
SUBE
72
1
11
7.7200
21
25.2250
31
0.0
0
LINE
8
VENTANAS
10
2.3200
20
20.1333
30
0.0
11
5.9200
21
20.1333
31
0.0
0
LINE
8
VENTANAS
10
2.3200
20
20.2000
30
0.0
11
5.9200
21
20.2000
31
0.0
0
LINE
8
VENTANAS
10
2.3200
20
20.2667
30
0.0
11
5.9200
21
20.2667
31
0.0
0
LINE
8
VENTANAS
10
2.3200
20
20.1000
30
0.0
11
2.3200
21
20.3000
31
0.0
0
LINE
8
VENTANAS
10
5.9200
20
20.1000
30
0.0
11
5.9200
21
20.3000
31
0.0
0
TEXT
8
TEXTOS
10
4.1200
20
19.6500
30
0.0
40
0.1500
1
PORTON GARAJE
72
1
11
4.1200
21
19.6500
31
0.0
0
LINE
8
PUERTAS
10
7.2200
20
20.2000
30
0.0
11
7.2200
21
21.2000
31
0.0
0
ARC
8
PUERTAS
10
7.2200
20
20.2000
30
0.0
40
1.0000
50
0.00
51
90.00
0
LINE
8
VENTANAS
10
9.8200
20
20.1333
30
0.0
11
12.8200
21
20.1333
31
0.0
0
LINE
8
VENTANAS
10
9.8200
20
20.2000
30
0.0
11
12.8200
21
20.2000
31
0.0
0
LINE
8
VENTANAS
10
9.8200
20
20.2667
30
0.0
11
12.8200
21
20.2667
31
0.0
0
LINE
8
VENTANAS
10
9.8200
20
20.1000
30
0.0
11
9.8200
21
20.3000
31
0.0
0
LINE
8
VENTANAS
10
12.8200
20
20.1000
30
0.0
11
12.8200
21
20.3000
31
0.0
0
TEXT
8
TEXTOS
10
11.3200
20
19.6500
30
0.0
40
0.1500
1
VENTANAL
72
1
11
11.3200
21
19.6500
31
0.0
0
LINE
8
VENTANAS
10
13.4533
20
21.9000
30
0.0
11
13.4533
21
23.9000
31
0.0
0
LINE
8
VENTANAS
10
13.5200
20
21.9000
30
0.0
11
13.5200
21
23.9000
31
0.0
0
LINE
8
VENTANAS
10
13.5867
20
21.9000
30
0.0
11
13.5867
21
23.9000
31
0.0
0
LINE
8
VENTANAS
10
13.4200
20
21.9000
30
0.0
11
13.6200
21
21.9000
31
0.0
0
LINE
8
VENTANAS
10
13.4200
20
23.9000
30
0.0
11
13.6200
21
23.9000
31
0.0
0
LINE
8
VENTANAS
10
13.4533
20
27.0000
30
0.0
11
13.4533
21
29.4000
31
0.0
0
LINE
8
VENTANAS
10
13.5200
20
27.0000
30
0.0
11
13.5200
21
29.4000
31
0.0
0
LINE
8
VENTANAS
10
13.5867
20
27.0000
30
0.0
11
13.5867
21
29.4000
31
0.0
0
LINE
8
VENTANAS
10
13.4200
20
27.0000
30
0.0
11
13.6200
21
27.0000
31
0.0
0
LINE
8
VENTANAS
10
13.4200
20
29.4000
30
0.0
11
13.6200
21
29.4000
31
0.0
0
LINE
8
VENTANAS
10
1.4533
20
27.0000
30
0.0
11
1.4533
21
29.4000
31
0.0
0
LINE
8
VENTANAS
10
1.5200
20
27.0000
30
0.0
11
1.5200
21
29.4000
31
0.0
0
LINE
8
VENTANAS
10
1.5867
20
27.0000
30
0.0
11
1.5867
21
29.4000
31
0.0
0
LINE
8
VENTANAS
10
1.4200
20
27.0000
30
0.0
11
1.6200
21
27.0000
31
0.0
0
LINE
8
VENTANAS
10
1.4200
20
29.4000
30
0.0
11
1.6200
21
29.4000
31
0.0
0
LINE
8
VENTANAS
10
2.9200
20
31.1333
30
0.0
11
5.3200
21
31.1333
31
0.0
0
LINE
8
VENTANAS
10
2.9200
20
31.2000
30
0.0
11
5.3200
21
31.2000
31
0.0
0
LINE
8
VENTANAS
10
2.9200
20
31.2667
30
0.0
11
5.3200
21
31.2667
31
0.0
0
LINE
8
VENTANAS
10
2.9200
20
31.1000
30
0.0
11
2.9200
21
31.3000
31
0.0
0
LINE
8
VENTANAS
10
5.3200
20
31.1000
30
0.0
11
5.3200
21
31.3000
31
0.0
0
LINE
8
VENTANAS
10
10.0200
20
31.1333
30
0.0
11
12.4200
21
31.1333
31
0.0
0
LINE
8
VENTANAS
10
10.0200
20
31.2000
30
0.0
11
12.4200
21
31.2000
31
0.0
0
LINE
8
VENTANAS
10
10.0200
20
31.2667
30
0.0
11
12.4200
21
31.2667
31
0.0
0
LINE
8
VENTANAS
10
10.0200
20
31.1000
30
0.0
11
10.0200
21
31.3000
31
0.0
0
LINE
8
VENTANAS
10
12.4200
20
31.1000
30
0.0
11
12.4200
21
31.3000
31
0.0
0
LINE
8
PUERTAS
10
6.5200
20
21.7500
30
0.0
11
7.4200
21
21.7500
31
0.0
0
ARC
8
PUERTAS
10
6.5200
20
21.7500
30
0.0
40
0.9000
50
0.00
51
90.00
0
LINE
8
PUERTAS
10
8.9200
20
21.7500
30
0.0
11
8.0200
21
21.7500
31
0.0
0
ARC
8
PUERTAS
10
8.9200
20
21.7500
30
0.0
40
0.9000
50
90.00
51
180.00
0
LINE
8
PUERTAS
10
7.2700
20
23.6000
30
0.0
11
7.2700
21
24.5000
31
0.0
0
ARC
8
PUERTAS
10
7.2700
20
23.6000
30
0.0
40
0.9000
50
0.00
51
90.00
0
LINE
8
PUERTAS
10
4.0700
20
25.8000
30
0.0
11
4.0700
21
26.7000
31
0.0
0
ARC
8
PUERTAS
10
4.0700
20
25.8000
30
0.0
40
0.9000
50
0.00
51
90.00
0
LINE
8
PUERTAS
10
6.5200
20
28.7000
30
0.0
11
5.7200
21
28.7000
31
0.0
0
ARC
8
PUERTAS
10
6.5200
20
28.7000
30
0.0
40
0.8000
50
90.00
51
180.00
0
LINE
8
MOBILIARIO
10
2.1200
20
21.6000
30
0.0
11
6.6200
21
21.6000
31
0.0
0
LINE
8
MOBILIARIO
10
6.6200
20
21.6000
30
0.0
11
6.6200
21
23.4500
31
0.0
0
LINE
8
MOBILIARIO
10
6.6200
20
23.4500
30
0.0
11
2.1200
21
23.4500
31
0.0
0
LINE
8
MOBILIARIO
10
2.1200
20
23.4500
30
0.0
11
2.1200
21
21.6000
31
0.0
0
LINE
8
MOBILIARIO
10
3.2200
20
21.8500
30
0.0
11
5.5200
21
21.8500
31
0.0
0
LINE
8
MOBILIARIO
10
5.5200
20
21.8500
30
0.0
11
5.5200
21
23.2000
31
0.0
0
LINE
8
MOBILIARIO
10
5.5200
20
23.2000
30
0.0
11
3.2200
21
23.2000
31
0.0
0
LINE
8
MOBILIARIO
10
3.2200
20
23.2000
30
0.0
11
3.2200
21
21.8500
31
0.0
0
LINE
8
MOBILIARIO
10
9.5200
20
20.8000
30
0.0
11
12.1200
21
20.8000
31
0.0
0
LINE
8
MOBILIARIO
10
12.1200
20
20.8000
30
0.0
11
12.1200
21
21.7000
31
0.0
0
LINE
8
MOBILIARIO
10
12.1200
20
21.7000
30
0.0
11
9.5200
21
21.7000
31
0.0
0
LINE
8
MOBILIARIO
10
9.5200
20
21.7000
30
0.0
11
9.5200
21
20.8000
31
0.0
0
LINE
8
MOBILIARIO
10
9.5200
20
21.5200
30
0.0
11
12.1200
21
21.5200
31
0.0
0
LINE
8
MOBILIARIO
10
10.7200
20
22.4000
30
0.0
11
11.9200
21
22.4000
31
0.0
0
LINE
8
MOBILIARIO
10
11.9200
20
22.4000
30
0.0
11
11.9200
21
23.1000
31
0.0
0
LINE
8
MOBILIARIO
10
11.9200
20
23.1000
30
0.0
11
10.7200
21
23.1000
31
0.0
0
LINE
8
MOBILIARIO
10
10.7200
20
23.1000
30
0.0
11
10.7200
21
22.4000
31
0.0
0
LINE
8
MOBILIARIO
10
10.5200
20
27.0000
30
0.0
11
12.3200
21
27.0000
31
0.0
0
LINE
8
MOBILIARIO
10
12.3200
20
27.0000
30
0.0
11
12.3200
21
28.1000
31
0.0
0
LINE
8
MOBILIARIO
10
12.3200
20
28.1000
30
0.0
11
10.5200
21
28.1000
31
0.0
0
LINE
8
MOBILIARIO
10
10.5200
20
28.1000
30
0.0
11
10.5200
21
27.0000
31
0.0
0
LINE
8
MOBILIARIO
10
1.9200
20
26.2000
30
0.0
11
6.1200
21
26.2000
31
0.0
0
LINE
8
MOBILIARIO
10
6.1200
20
26.2000
30
0.0
11
6.1200
21
26.8000
31
0.0
0
LINE
8
MOBILIARIO
10
6.1200
20
26.8000
30
0.0
11
1.9200
21
26.8000
31
0.0
0
LINE
8
MOBILIARIO
10
1.9200
20
26.8000
30
0.0
11
1.9200
21
26.2000
31
0.0
0
LINE
8
MOBILIARIO
10
1.9200
20
26.2000
30
0.0
11
2.5200
21
26.2000
31
0.0
0
LINE
8
MOBILIARIO
10
2.5200
20
26.2000
30
0.0
11
2.5200
21
30.6000
31
0.0
0
LINE
8
MOBILIARIO
10
2.5200
20
30.6000
30
0.0
11
1.9200
21
30.6000
31
0.0
0
LINE
8
MOBILIARIO
10
1.9200
20
30.6000
30
0.0
11
1.9200
21
26.2000
31
0.0
0
LINE
8
COTAS
10
1.5200
20
18.3000
30
0.0
11
5.5200
21
18.3000
31
0.0
0
LINE
8
COTAS
10
1.5200
20
18.2000
30
0.0
11
1.5200
21
18.4000
31
0.0
0
LINE
8
COTAS
10
5.5200
20
18.2000
30
0.0
11
5.5200
21
18.4000
31
0.0
0
TEXT
8
COTAS
10
3.5200
20
18.4200
30
0.0
40
0.1800
1
4.00
72
1
11
3.5200
21
18.4200
31
0.0
0
LINE
8
COTAS
10
5.5200
20
18.3000
30
0.0
11
9.5200
21
18.3000
31
0.0
0
LINE
8
COTAS
10
5.5200
20
18.2000
30
0.0
11
5.5200
21
18.4000
31
0.0
0
LINE
8
COTAS
10
9.5200
20
18.2000
30
0.0
11
9.5200
21
18.4000
31
0.0
0
TEXT
8
COTAS
10
7.5200
20
18.4200
30
0.0
40
0.1800
1
4.00
72
1
11
7.5200
21
18.4200
31
0.0
0
LINE
8
COTAS
10
9.5200
20
18.3000
30
0.0
11
13.5200
21
18.3000
31
0.0
0
LINE
8
COTAS
10
9.5200
20
18.2000
30
0.0
11
9.5200
21
18.4000
31
0.0
0
LINE
8
COTAS
10
13.5200
20
18.2000
30
0.0
11
13.5200
21
18.4000
31
0.0
0
TEXT
8
COTAS
10
11.5200
20
18.4200
30
0.0
40
0.1800
1
4.00
72
1
11
11.5200
21
18.4200
31
0.0
0
LINE
8
COTAS
10
1.5200
20
17.7000
30
0.0
11
13.5200
21
17.7000
31
0.0
0
LINE
8
COTAS
10
1.5200
20
17.6000
30
0.0
11
1.5200
21
17.8000
31
0.0
0
LINE
8
COTAS
10
13.5200
20
17.6000
30
0.0
11
13.5200
21
17.8000
31
0.0
0
TEXT
8
COTAS
10
7.5200
20
17.8200
30
0.0
40
0.1800
1
12.00
72
1
11
7.5200
21
17.8200
31
0.0
0
LINE
8
COTAS
10
15.4200
20
20.2000
30
0.0
11
15.4200
21
23.7000
31
0.0
0
LINE
8
COTAS
10
15.3200
20
20.2000
30
0.0
11
15.5200
21
20.2000
31
0.0
0
LINE
8
COTAS
10
15.3200
20
23.7000
30
0.0
11
15.5200
21
23.7000
31
0.0
0
TEXT
8
COTAS
10
15.5600
20
21.8600
30
0.0
40
0.1800
1
3.50
0
LINE
8
COTAS
10
15.4200
20
23.7000
30
0.0
11
15.4200
21
27.2000
31
0.0
0
LINE
8
COTAS
10
15.3200
20
23.7000
30
0.0
11
15.5200
21
23.7000
31
0.0
0
LINE
8
COTAS
10
15.3200
20
27.2000
30
0.0
11
15.5200
21
27.2000
31
0.0
0
TEXT
8
COTAS
10
15.5600
20
25.3600
30
0.0
40
0.1800
1
3.50
0
LINE
8
COTAS
10
15.4200
20
27.2000
30
0.0
11
15.4200
21
31.2000
31
0.0
0
LINE
8
COTAS
10
15.3200
20
27.2000
30
0.0
11
15.5200
21
27.2000
31
0.0
0
LINE
8
COTAS
10
15.3200
20
31.2000
30
0.0
11
15.5200
21
31.2000
31
0.0
0
TEXT
8
COTAS
10
15.5600
20
29.1100
30
0.0
40
0.1800
1
4.00
0
LINE
8
COTAS
10
16.0200
20
20.2000
30
0.0
11
16.0200
21
31.2000
31
0.0
0
LINE
8
COTAS
10
15.9200
20
20.2000
30
0.0
11
16.1200
21
20.2000
31
0.0
0
LINE
8
COTAS
10
15.9200
20
31.2000
30
0.0
11
16.1200
21
31.2000
31
0.0
0
TEXT
8
COTAS
10
16.1600
20
25.6100
30
0.0
40
0.1800
1
11.00
0
TEXT
8
TEXTOS
10
7.5200
20
32.7000
30
0.0
40
0.3400
1
01 - PLANTA BAJA
72
1
11
7.5200
21
32.7000
31
0.0
0
LINE
8
EJES
10
20.1800
20
19.3000
30
0.0
11
20.1800
21
32.1000
31
0.0
0
CIRCLE
8
EJES
10
20.1800
20
18.9800
30
0.0
40
0.3000
0
TEXT
8
EJES
10
20.1800
20
18.8800
30
0.0
40
0.2400
1
1
72
1
11
20.1800
21
18.8800
31
0.0
0
LINE
8
EJES
10
24.1800
20
19.3000
30
0.0
11
24.1800
21
32.1000
31
0.0
0
CIRCLE
8
EJES
10
24.1800
20
18.9800
30
0.0
40
0.3000
0
TEXT
8
EJES
10
24.1800
20
18.8800
30
0.0
40
0.2400
1
2
72
1
11
24.1800
21
18.8800
31
0.0
0
LINE
8
EJES
10
28.1800
20
19.3000
30
0.0
11
28.1800
21
32.1000
31
0.0
0
CIRCLE
8
EJES
10
28.1800
20
18.9800
30
0.0
40
0.3000
0
TEXT
8
EJES
10
28.1800
20
18.8800
30
0.0
40
0.2400
1
3
72
1
11
28.1800
21
18.8800
31
0.0
0
LINE
8
EJES
10
32.1800
20
19.3000
30
0.0
11
32.1800
21
32.1000
31
0.0
0
CIRCLE
8
EJES
10
32.1800
20
18.9800
30
0.0
40
0.3000
0
TEXT
8
EJES
10
32.1800
20
18.8800
30
0.0
40
0.2400
1
4
72
1
11
32.1800
21
18.8800
31
0.0
0
LINE
8
EJES
10
19.2800
20
20.2000
30
0.0
11
33.0800
21
20.2000
31
0.0
0
CIRCLE
8
EJES
10
18.9600
20
20.2000
30
0.0
40
0.3000
0
TEXT
8
EJES
10
18.9600
20
20.1000
30
0.0
40
0.2400
1
A
72
1
11
18.9600
21
20.1000
31
0.0
0
LINE
8
EJES
10
19.2800
20
23.7000
30
0.0
11
33.0800
21
23.7000
31
0.0
0
CIRCLE
8
EJES
10
18.9600
20
23.7000
30
0.0
40
0.3000
0
TEXT
8
EJES
10
18.9600
20
23.6000
30
0.0
40
0.2400
1
B
72
1
11
18.9600
21
23.6000
31
0.0
0
LINE
8
EJES
10
19.2800
20
27.2000
30
0.0
11
33.0800
21
27.2000
31
0.0
0
CIRCLE
8
EJES
10
18.9600
20
27.2000
30
0.0
40
0.3000
0
TEXT
8
EJES
10
18.9600
20
27.1000
30
0.0
40
0.2400
1
C
72
1
11
18.9600
21
27.1000
31
0.0
0
LINE
8
EJES
10
19.2800
20
31.2000
30
0.0
11
33.0800
21
31.2000
31
0.0
0
CIRCLE
8
EJES
10
18.9600
20
31.2000
30
0.0
40
0.3000
0
TEXT
8
EJES
10
18.9600
20
31.1000
30
0.0
40
0.2400
1
D
72
1
11
18.9600
21
31.1000
31
0.0
0
LINE
8
COLUMNAS
10
20.0300
20
20.0500
30
0.0
11
20.3300
21
20.0500
31
0.0
0
LINE
8
COLUMNAS
10
20.3300
20
20.0500
30
0.0
11
20.3300
21
20.3500
31
0.0
0
LINE
8
COLUMNAS
10
20.3300
20
20.3500
30
0.0
11
20.0300
21
20.3500
31
0.0
0
LINE
8
COLUMNAS
10
20.0300
20
20.3500
30
0.0
11
20.0300
21
20.0500
31
0.0
0
LINE
8
COLUMNAS
10
20.0300
20
23.5500
30
0.0
11
20.3300
21
23.5500
31
0.0
0
LINE
8
COLUMNAS
10
20.3300
20
23.5500
30
0.0
11
20.3300
21
23.8500
31
0.0
0
LINE
8
COLUMNAS
10
20.3300
20
23.8500
30
0.0
11
20.0300
21
23.8500
31
0.0
0
LINE
8
COLUMNAS
10
20.0300
20
23.8500
30
0.0
11
20.0300
21
23.5500
31
0.0
0
LINE
8
COLUMNAS
10
20.0300
20
27.0500
30
0.0
11
20.3300
21
27.0500
31
0.0
0
LINE
8
COLUMNAS
10
20.3300
20
27.0500
30
0.0
11
20.3300
21
27.3500
31
0.0
0
LINE
8
COLUMNAS
10
20.3300
20
27.3500
30
0.0
11
20.0300
21
27.3500
31
0.0
0
LINE
8
COLUMNAS
10
20.0300
20
27.3500
30
0.0
11
20.0300
21
27.0500
31
0.0
0
LINE
8
COLUMNAS
10
20.0300
20
31.0500
30
0.0
11
20.3300
21
31.0500
31
0.0
0
LINE
8
COLUMNAS
10
20.3300
20
31.0500
30
0.0
11
20.3300
21
31.3500
31
0.0
0
LINE
8
COLUMNAS
10
20.3300
20
31.3500
30
0.0
11
20.0300
21
31.3500
31
0.0
0
LINE
8
COLUMNAS
10
20.0300
20
31.3500
30
0.0
11
20.0300
21
31.0500
31
0.0
0
LINE
8
COLUMNAS
10
24.0300
20
20.0500
30
0.0
11
24.3300
21
20.0500
31
0.0
0
LINE
8
COLUMNAS
10
24.3300
20
20.0500
30
0.0
11
24.3300
21
20.3500
31
0.0
0
LINE
8
COLUMNAS
10
24.3300
20
20.3500
30
0.0
11
24.0300
21
20.3500
31
0.0
0
LINE
8
COLUMNAS
10
24.0300
20
20.3500
30
0.0
11
24.0300
21
20.0500
31
0.0
0
LINE
8
COLUMNAS
10
24.0300
20
23.5500
30
0.0
11
24.3300
21
23.5500
31
0.0
0
LINE
8
COLUMNAS
10
24.3300
20
23.5500
30
0.0
11
24.3300
21
23.8500
31
0.0
0
LINE
8
COLUMNAS
10
24.3300
20
23.8500
30
0.0
11
24.0300
21
23.8500
31
0.0
0
LINE
8
COLUMNAS
10
24.0300
20
23.8500
30
0.0
11
24.0300
21
23.5500
31
0.0
0
LINE
8
COLUMNAS
10
24.0300
20
27.0500
30
0.0
11
24.3300
21
27.0500
31
0.0
0
LINE
8
COLUMNAS
10
24.3300
20
27.0500
30
0.0
11
24.3300
21
27.3500
31
0.0
0
LINE
8
COLUMNAS
10
24.3300
20
27.3500
30
0.0
11
24.0300
21
27.3500
31
0.0
0
LINE
8
COLUMNAS
10
24.0300
20
27.3500
30
0.0
11
24.0300
21
27.0500
31
0.0
0
LINE
8
COLUMNAS
10
24.0300
20
31.0500
30
0.0
11
24.3300
21
31.0500
31
0.0
0
LINE
8
COLUMNAS
10
24.3300
20
31.0500
30
0.0
11
24.3300
21
31.3500
31
0.0
0
LINE
8
COLUMNAS
10
24.3300
20
31.3500
30
0.0
11
24.0300
21
31.3500
31
0.0
0
LINE
8
COLUMNAS
10
24.0300
20
31.3500
30
0.0
11
24.0300
21
31.0500
31
0.0
0
LINE
8
COLUMNAS
10
28.0300
20
20.0500
30
0.0
11
28.3300
21
20.0500
31
0.0
0
LINE
8
COLUMNAS
10
28.3300
20
20.0500
30
0.0
11
28.3300
21
20.3500
31
0.0
0
LINE
8
COLUMNAS
10
28.3300
20
20.3500
30
0.0
11
28.0300
21
20.3500
31
0.0
0
LINE
8
COLUMNAS
10
28.0300
20
20.3500
30
0.0
11
28.0300
21
20.0500
31
0.0
0
LINE
8
COLUMNAS
10
28.0300
20
23.5500
30
0.0
11
28.3300
21
23.5500
31
0.0
0
LINE
8
COLUMNAS
10
28.3300
20
23.5500
30
0.0
11
28.3300
21
23.8500
31
0.0
0
LINE
8
COLUMNAS
10
28.3300
20
23.8500
30
0.0
11
28.0300
21
23.8500
31
0.0
0
LINE
8
COLUMNAS
10
28.0300
20
23.8500
30
0.0
11
28.0300
21
23.5500
31
0.0
0
LINE
8
COLUMNAS
10
28.0300
20
27.0500
30
0.0
11
28.3300
21
27.0500
31
0.0
0
LINE
8
COLUMNAS
10
28.3300
20
27.0500
30
0.0
11
28.3300
21
27.3500
31
0.0
0
LINE
8
COLUMNAS
10
28.3300
20
27.3500
30
0.0
11
28.0300
21
27.3500
31
0.0
0
LINE
8
COLUMNAS
10
28.0300
20
27.3500
30
0.0
11
28.0300
21
27.0500
31
0.0
0
LINE
8
COLUMNAS
10
28.0300
20
31.0500
30
0.0
11
28.3300
21
31.0500
31
0.0
0
LINE
8
COLUMNAS
10
28.3300
20
31.0500
30
0.0
11
28.3300
21
31.3500
31
0.0
0
LINE
8
COLUMNAS
10
28.3300
20
31.3500
30
0.0
11
28.0300
21
31.3500
31
0.0
0
LINE
8
COLUMNAS
10
28.0300
20
31.3500
30
0.0
11
28.0300
21
31.0500
31
0.0
0
LINE
8
COLUMNAS
10
32.0300
20
20.0500
30
0.0
11
32.3300
21
20.0500
31
0.0
0
LINE
8
COLUMNAS
10
32.3300
20
20.0500
30
0.0
11
32.3300
21
20.3500
31
0.0
0
LINE
8
COLUMNAS
10
32.3300
20
20.3500
30
0.0
11
32.0300
21
20.3500
31
0.0
0
LINE
8
COLUMNAS
10
32.0300
20
20.3500
30
0.0
11
32.0300
21
20.0500
31
0.0
0
LINE
8
COLUMNAS
10
32.0300
20
23.5500
30
0.0
11
32.3300
21
23.5500
31
0.0
0
LINE
8
COLUMNAS
10
32.3300
20
23.5500
30
0.0
11
32.3300
21
23.8500
31
0.0
0
LINE
8
COLUMNAS
10
32.3300
20
23.8500
30
0.0
11
32.0300
21
23.8500
31
0.0
0
LINE
8
COLUMNAS
10
32.0300
20
23.8500
30
0.0
11
32.0300
21
23.5500
31
0.0
0
LINE
8
COLUMNAS
10
32.0300
20
27.0500
30
0.0
11
32.3300
21
27.0500
31
0.0
0
LINE
8
COLUMNAS
10
32.3300
20
27.0500
30
0.0
11
32.3300
21
27.3500
31
0.0
0
LINE
8
COLUMNAS
10
32.3300
20
27.3500
30
0.0
11
32.0300
21
27.3500
31
0.0
0
LINE
8
COLUMNAS
10
32.0300
20
27.3500
30
0.0
11
32.0300
21
27.0500
31
0.0
0
LINE
8
COLUMNAS
10
32.0300
20
31.0500
30
0.0
11
32.3300
21
31.0500
31
0.0
0
LINE
8
COLUMNAS
10
32.3300
20
31.0500
30
0.0
11
32.3300
21
31.3500
31
0.0
0
LINE
8
COLUMNAS
10
32.3300
20
31.3500
30
0.0
11
32.0300
21
31.3500
31
0.0
0
LINE
8
COLUMNAS
10
32.0300
20
31.3500
30
0.0
11
32.0300
21
31.0500
31
0.0
0
LINE
8
MUROS
10
20.1800
20
20.2000
30
0.0
11
20.3800
21
20.2000
31
0.0
0
LINE
8
MUROS
10
20.3800
20
20.2000
30
0.0
11
20.3800
21
31.2000
31
0.0
0
LINE
8
MUROS
10
20.3800
20
31.2000
30
0.0
11
20.1800
21
31.2000
31
0.0
0
LINE
8
MUROS
10
20.1800
20
31.2000
30
0.0
11
20.1800
21
20.2000
31
0.0
0
LINE
8
MUROS
10
31.9800
20
20.2000
30
0.0
11
32.1800
21
20.2000
31
0.0
0
LINE
8
MUROS
10
32.1800
20
20.2000
30
0.0
11
32.1800
21
31.2000
31
0.0
0
LINE
8
MUROS
10
32.1800
20
31.2000
30
0.0
11
31.9800
21
31.2000
31
0.0
0
LINE
8
MUROS
10
31.9800
20
31.2000
30
0.0
11
31.9800
21
20.2000
31
0.0
0
LINE
8
MUROS
10
20.1800
20
20.2000
30
0.0
11
32.1800
21
20.2000
31
0.0
0
LINE
8
MUROS
10
32.1800
20
20.2000
30
0.0
11
32.1800
21
20.4000
31
0.0
0
LINE
8
MUROS
10
32.1800
20
20.4000
30
0.0
11
20.1800
21
20.4000
31
0.0
0
LINE
8
MUROS
10
20.1800
20
20.4000
30
0.0
11
20.1800
21
20.2000
31
0.0
0
LINE
8
MUROS
10
20.1800
20
31.0000
30
0.0
11
32.1800
21
31.0000
31
0.0
0
LINE
8
MUROS
10
32.1800
20
31.0000
30
0.0
11
32.1800
21
31.2000
31
0.0
0
LINE
8
MUROS
10
32.1800
20
31.2000
30
0.0
11
20.1800
21
31.2000
31
0.0
0
LINE
8
MUROS
10
20.1800
20
31.2000
30
0.0
11
20.1800
21
31.0000
31
0.0
0
LINE
8
MUROS
10
25.1200
20
22.0000
30
0.0
11
25.1200
21
31.2000
31
0.0
0
LINE
8
MUROS
10
25.1200
20
31.2000
30
0.0
11
25.2400
21
31.2000
31
0.0
0
LINE
8
MUROS
10
25.2400
20
31.2000
30
0.0
11
25.2400
21
22.0000
31
0.0
0
LINE
8
MUROS
10
25.2400
20
22.0000
30
0.0
11
25.1200
21
22.0000
31
0.0
0
LINE
8
MUROS
10
27.5200
20
22.0000
30
0.0
11
27.5200
21
31.2000
31
0.0
0
LINE
8
MUROS
10
27.5200
20
31.2000
30
0.0
11
27.6400
21
31.2000
31
0.0
0
LINE
8
MUROS
10
27.6400
20
31.2000
30
0.0
11
27.6400
21
22.0000
31
0.0
0
LINE
8
MUROS
10
27.6400
20
22.0000
30
0.0
11
27.5200
21
22.0000
31
0.0
0
LINE
8
MUROS
10
20.1800
20
22.0600
30
0.0
11
32.1800
21
22.0600
31
0.0
0
LINE
8
MUROS
10
32.1800
20
22.0600
30
0.0
11
32.1800
21
21.9400
31
0.0
0
LINE
8
MUROS
10
32.1800
20
21.9400
30
0.0
11
20.1800
21
21.9400
31
0.0
0
LINE
8
MUROS
10
20.1800
20
21.9400
30
0.0
11
20.1800
21
22.0600
31
0.0
0
LINE
8
MUROS
10
20.1800
20
26.7600
30
0.0
11
25.1800
21
26.7600
31
0.0
0
LINE
8
MUROS
10
25.1800
20
26.7600
30
0.0
11
25.1800
21
26.6400
31
0.0
0
LINE
8
MUROS
10
25.1800
20
26.6400
30
0.0
11
20.1800
21
26.6400
31
0.0
0
LINE
8
MUROS
10
20.1800
20
26.6400
30
0.0
11
20.1800
21
26.7600
31
0.0
0
LINE
8
MUROS
10
27.5800
20
26.2600
30
0.0
11
32.1800
21
26.2600
31
0.0
0
LINE
8
MUROS
10
32.1800
20
26.2600
30
0.0
11
32.1800
21
26.1400
31
0.0
0
LINE
8
MUROS
10
32.1800
20
26.1400
30
0.0
11
27.5800
21
26.1400
31
0.0
0
LINE
8
MUROS
10
27.5800
20
26.1400
30
0.0
11
27.5800
21
26.2600
31
0.0
0
LINE
8
MUROS
10
25.1800
20
23.6600
30
0.0
11
27.5800
21
23.6600
31
0.0
0
LINE
8
MUROS
10
27.5800
20
23.6600
30
0.0
11
27.5800
21
23.5400
31
0.0
0
LINE
8
MUROS
10
27.5800
20
23.5400
30
0.0
11
25.1800
21
23.5400
31
0.0
0
LINE
8
MUROS
10
25.1800
20
23.5400
30
0.0
11
25.1800
21
23.6600
31
0.0
0
LINE
8
MUROS
10
25.1800
20
28.6600
30
0.0
11
27.5800
21
28.6600
31
0.0
0
LINE
8
MUROS
10
27.5800
20
28.6600
30
0.0
11
27.5800
21
28.5400
31
0.0
0
LINE
8
MUROS
10
27.5800
20
28.5400
30
0.0
11
25.1800
21
28.5400
31
0.0
0
LINE
8
MUROS
10
25.1800
20
28.5400
30
0.0
11
25.1800
21
28.6600
31
0.0
0
TEXT
8
TEXTOS
10
22.7800
20
24.3500
30
0.0
40
0.2400
1
SALA
72
1
11
22.7800
21
24.3500
31
0.0
0
TEXT
8
TEXTOS
10
22.7800
20
24.0300
30
0.0
40
0.1600
1
22.6 m2
72
1
11
22.7800
21
24.0300
31
0.0
0
TEXT
8
TEXTOS
10
22.7800
20
28.8500
30
0.0
40
0.2400
1
DORMITORIO 2
72
1
11
22.7800
21
28.8500
31
0.0
0
TEXT
8
TEXTOS
10
22.7800
20
28.5300
30
0.0
40
0.1600
1
20.6 m2
72
1
11
22.7800
21
28.5300
31
0.0
0
TEXT
8
TEXTOS
10
29.8800
20
24.1000
30
0.0
40
0.2400
1
COMEDOR
72
1
11
29.8800
21
24.1000
31
0.0
0
TEXT
8
TEXTOS
10
29.8800
20
23.7800
30
0.0
40
0.1600
1
19.3 m2
72
1
11
29.8800
21
23.7800
31
0.0
0
TEXT
8
TEXTOS
10
29.8800
20
28.6000
30
0.0
40
0.2400
1
DORMITORIO 3
72
1
11
29.8800
21
28.6000
31
0.0
0
TEXT
8
TEXTOS
10
29.8800
20
28.2800
30
0.0
40
0.1600
1
22.1 m2
72
1
11
29.8800
21
28.2800
31
0.0
0
TEXT
8
TEXTOS
10
26.3800
20
22.8500
30
0.0
40
0.2400
1
HALL
72
1
11
26.3800
21
22.8500
31
0.0
0
TEXT
8
TEXTOS
10
26.3800
20
27.7500
30
0.0
40
0.2400
1
BANO
72
1
11
26.3800
21
27.7500
31
0.0
0
TEXT
8
TEXTOS
10
26.3800
20
29.8000
30
0.0
40
0.2400
1
CLOSET
72
1
11
26.3800
21
29.8000
31
0.0
0
LINE
8
MOBILIARIO
10
20.6800
20
20.5000
30
0.0
11
31.6800
21
20.5000
31
0.0
0
LINE
8
MOBILIARIO
10
31.6800
20
20.5000
30
0.0
11
31.6800
21
21.6000
31
0.0
0
LINE
8
MOBILIARIO
10
31.6800
20
21.6000
30
0.0
11
20.6800
21
21.6000
31
0.0
0
LINE
8
MOBILIARIO
10
20.6800
20
21.6000
30
0.0
11
20.6800
21
20.5000
31
0.0
0
TEXT
8
TEXTOS
10
26.1800
20
21.0500
30
0.0
40
0.2000
1
BALCON
72
1
11
26.1800
21
21.0500
31
0.0
0
LINE
8
ESCALERA
10
25.3300
20
23.7500
30
0.0
11
27.4300
21
23.7500
31
0.0
0
LINE
8
ESCALERA
10
27.4300
20
23.7500
30
0.0
11
27.4300
21
26.7000
31
0.0
0
LINE
8
ESCALERA
10
27.4300
20
26.7000
30
0.0
11
25.3300
21
26.7000
31
0.0
0
LINE
8
ESCALERA
10
25.3300
20
26.7000
30
0.0
11
25.3300
21
23.7500
31
0.0
0
LINE
8
ESCALERA
10
25.3300
20
24.0182
30
0.0
11
27.4300
21
24.0182
31
0.0
0
LINE
8
ESCALERA
10
25.3300
20
24.2864
30
0.0
11
27.4300
21
24.2864
31
0.0
0
LINE
8
ESCALERA
10
25.3300
20
24.5545
30
0.0
11
27.4300
21
24.5545
31
0.0
0
LINE
8
ESCALERA
10
25.3300
20
24.8227
30
0.0
11
27.4300
21
24.8227
31
0.0
0
LINE
8
ESCALERA
10
25.3300
20
25.0909
30
0.0
11
27.4300
21
25.0909
31
0.0
0
LINE
8
ESCALERA
10
25.3300
20
25.3591
30
0.0
11
27.4300
21
25.3591
31
0.0
0
LINE
8
ESCALERA
10
25.3300
20
25.6273
30
0.0
11
27.4300
21
25.6273
31
0.0
0
LINE
8
ESCALERA
10
25.3300
20
25.8955
30
0.0
11
27.4300
21
25.8955
31
0.0
0
LINE
8
ESCALERA
10
25.3300
20
26.1636
30
0.0
11
27.4300
21
26.1636
31
0.0
0
LINE
8
ESCALERA
10
25.3300
20
26.4318
30
0.0
11
27.4300
21
26.4318
31
0.0
0
LINE
8
ESCALERA
10
26.3800
20
23.9000
30
0.0
11
26.3800
21
26.5500
31
0.0
0
LINE
8
ESCALERA
10
26.3800
20
23.9000
30
0.0
11
26.2600
21
24.1500
31
0.0
0
LINE
8
ESCALERA
10
26.3800
20
23.9000
30
0.0
11
26.5000
21
24.1500
31
0.0
0
TEXT
8
TEXTOS
10
26.3800
20
25.2250
30
0.0
40
0.1600
1
BAJA
72
1
11
26.3800
21
25.2250
31
0.0
0
LINE
8
VENTANAS
10
21.6800
20
20.1333
30
0.0
11
23.8800
21
20.1333
31
0.0
0
LINE
8
VENTANAS
10
21.6800
20
20.2000
30
0.0
11
23.8800
21
20.2000
31
0.0
0
LINE
8
VENTANAS
10
21.6800
20
20.2667
30
0.0
11
23.8800
21
20.2667
31
0.0
0
LINE
8
VENTANAS
10
21.6800
20
20.1000
30
0.0
11
21.6800
21
20.3000
31
0.0
0
LINE
8
VENTANAS
10
23.8800
20
20.1000
30
0.0
11
23.8800
21
20.3000
31
0.0
0
LINE
8
VENTANAS
10
25.0800
20
20.1333
30
0.0
11
27.2800
21
20.1333
31
0.0
0
LINE
8
VENTANAS
10
25.0800
20
20.2000
30
0.0
11
27.2800
21
20.2000
31
0.0
0
LINE
8
VENTANAS
10
25.0800
20
20.2667
30
0.0
11
27.2800
21
20.2667
31
0.0
0
LINE
8
VENTANAS
10
25.0800
20
20.1000
30
0.0
11
25.0800
21
20.3000
31
0.0
0
LINE
8
VENTANAS
10
27.2800
20
20.1000
30
0.0
11
27.2800
21
20.3000
31
0.0
0
LINE
8
VENTANAS
10
28.7800
20
20.1333
30
0.0
11
30.9800
21
20.1333
31
0.0
0
LINE
8
VENTANAS
10
28.7800
20
20.2000
30
0.0
11
30.9800
21
20.2000
31
0.0
0
LINE
8
VENTANAS
10
28.7800
20
20.2667
30
0.0
11
30.9800
21
20.2667
31
0.0
0
LINE
8
VENTANAS
10
28.7800
20
20.1000
30
0.0
11
28.7800
21
20.3000
31
0.0
0
LINE
8
VENTANAS
10
30.9800
20
20.1000
30
0.0
11
30.9800
21
20.3000
31
0.0
0
LINE
8
VENTANAS
10
20.1133
20
23.1000
30
0.0
11
20.1133
21
25.3000
31
0.0
0
LINE
8
VENTANAS
10
20.1800
20
23.1000
30
0.0
11
20.1800
21
25.3000
31
0.0
0
LINE
8
VENTANAS
10
20.2467
20
23.1000
30
0.0
11
20.2467
21
25.3000
31
0.0
0
LINE
8
VENTANAS
10
20.0800
20
23.1000
30
0.0
11
20.2800
21
23.1000
31
0.0
0
LINE
8
VENTANAS
10
20.0800
20
25.3000
30
0.0
11
20.2800
21
25.3000
31
0.0
0
LINE
8
VENTANAS
10
20.1133
20
27.5000
30
0.0
11
20.1133
21
29.9000
31
0.0
0
LINE
8
VENTANAS
10
20.1800
20
27.5000
30
0.0
11
20.1800
21
29.9000
31
0.0
0
LINE
8
VENTANAS
10
20.2467
20
27.5000
30
0.0
11
20.2467
21
29.9000
31
0.0
0
LINE
8
VENTANAS
10
20.0800
20
27.5000
30
0.0
11
20.2800
21
27.5000
31
0.0
0
LINE
8
VENTANAS
10
20.0800
20
29.9000
30
0.0
11
20.2800
21
29.9000
31
0.0
0
LINE
8
VENTANAS
10
32.1133
20
22.9000
30
0.0
11
32.1133
21
25.1000
31
0.0
0
LINE
8
VENTANAS
10
32.1800
20
22.9000
30
0.0
11
32.1800
21
25.1000
31
0.0
0
LINE
8
VENTANAS
10
32.2467
20
22.9000
30
0.0
11
32.2467
21
25.1000
31
0.0
0
LINE
8
VENTANAS
10
32.0800
20
22.9000
30
0.0
11
32.2800
21
22.9000
31
0.0
0
LINE
8
VENTANAS
10
32.0800
20
25.1000
30
0.0
11
32.2800
21
25.1000
31
0.0
0
LINE
8
VENTANAS
10
32.1133
20
27.4000
30
0.0
11
32.1133
21
29.8000
31
0.0
0
LINE
8
VENTANAS
10
32.1800
20
27.4000
30
0.0
11
32.1800
21
29.8000
31
0.0
0
LINE
8
VENTANAS
10
32.2467
20
27.4000
30
0.0
11
32.2467
21
29.8000
31
0.0
0
LINE
8
VENTANAS
10
32.0800
20
27.4000
30
0.0
11
32.2800
21
27.4000
31
0.0
0
LINE
8
VENTANAS
10
32.0800
20
29.8000
30
0.0
11
32.2800
21
29.8000
31
0.0
0
LINE
8
VENTANAS
10
21.5800
20
31.1333
30
0.0
11
23.9800
21
31.1333
31
0.0
0
LINE
8
VENTANAS
10
21.5800
20
31.2000
30
0.0
11
23.9800
21
31.2000
31
0.0
0
LINE
8
VENTANAS
10
21.5800
20
31.2667
30
0.0
11
23.9800
21
31.2667
31
0.0
0
LINE
8
VENTANAS
10
21.5800
20
31.1000
30
0.0
11
21.5800
21
31.3000
31
0.0
0
LINE
8
VENTANAS
10
23.9800
20
31.1000
30
0.0
11
23.9800
21
31.3000
31
0.0
0
LINE
8
VENTANAS
10
28.6800
20
31.1333
30
0.0
11
31.0800
21
31.1333
31
0.0
0
LINE
8
VENTANAS
10
28.6800
20
31.2000
30
0.0
11
31.0800
21
31.2000
31
0.0
0
LINE
8
VENTANAS
10
28.6800
20
31.2667
30
0.0
11
31.0800
21
31.2667
31
0.0
0
LINE
8
VENTANAS
10
28.6800
20
31.1000
30
0.0
11
28.6800
21
31.3000
31
0.0
0
LINE
8
VENTANAS
10
31.0800
20
31.1000
30
0.0
11
31.0800
21
31.3000
31
0.0
0
LINE
8
PUERTAS
10
22.6800
20
22.0000
30
0.0
11
22.6800
21
23.0000
31
0.0
0
ARC
8
PUERTAS
10
22.6800
20
22.0000
30
0.0
40
1.0000
50
0.00
51
90.00
0
LINE
8
PUERTAS
10
30.1800
20
22.0000
30
0.0
11
30.1800
21
23.0000
31
0.0
0
ARC
8
PUERTAS
10
30.1800
20
22.0000
30
0.0
40
1.0000
50
90.00
51
180.00
0
LINE
8
PUERTAS
10
25.1800
20
22.3500
30
0.0
11
26.0800
21
22.3500
31
0.0
0
ARC
8
PUERTAS
10
25.1800
20
22.3500
30
0.0
40
0.9000
50
0.00
51
90.00
0
LINE
8
PUERTAS
10
27.5800
20
22.3500
30
0.0
11
26.6800
21
22.3500
31
0.0
0
ARC
8
PUERTAS
10
27.5800
20
22.3500
30
0.0
40
0.9000
50
90.00
51
180.00
0
LINE
8
PUERTAS
10
22.9300
20
26.7000
30
0.0
11
22.9300
21
27.6000
31
0.0
0
ARC
8
PUERTAS
10
22.9300
20
26.7000
30
0.0
40
0.9000
50
0.00
51
90.00
0
LINE
8
PUERTAS
10
28.7300
20
26.2000
30
0.0
11
28.7300
21
27.1000
31
0.0
0
ARC
8
PUERTAS
10
28.7300
20
26.2000
30
0.0
40
0.9000
50
0.00
51
90.00
0
LINE
8
PUERTAS
10
25.7800
20
26.9000
30
0.0
11
25.7800
21
27.7000
31
0.0
0
ARC
8
PUERTAS
10
25.7800
20
26.9000
30
0.0
40
0.8000
50
0.00
51
90.00
0
LINE
8
MOBILIARIO
10
20.7800
20
22.2000
30
0.0
11
23.7800
21
22.2000
31
0.0
0
LINE
8
MOBILIARIO
10
23.7800
20
22.2000
30
0.0
11
23.7800
21
23.2000
31
0.0
0
LINE
8
MOBILIARIO
10
23.7800
20
23.2000
30
0.0
11
20.7800
21
23.2000
31
0.0
0
LINE
8
MOBILIARIO
10
20.7800
20
23.2000
30
0.0
11
20.7800
21
22.2000
31
0.0
0
LINE
8
MOBILIARIO
10
20.7800
20
23.0200
30
0.0
11
23.7800
21
23.0200
31
0.0
0
LINE
8
MOBILIARIO
10
22.1800
20
23.8000
30
0.0
11
23.4800
21
23.8000
31
0.0
0
LINE
8
MOBILIARIO
10
23.4800
20
23.8000
30
0.0
11
23.4800
21
24.6000
31
0.0
0
LINE
8
MOBILIARIO
10
23.4800
20
24.6000
30
0.0
11
22.1800
21
24.6000
31
0.0
0
LINE
8
MOBILIARIO
10
22.1800
20
24.6000
30
0.0
11
22.1800
21
23.8000
31
0.0
0
LINE
8
MOBILIARIO
10
20.7800
20
29.0000
30
0.0
11
22.4800
21
29.0000
31
0.0
0
LINE
8
MOBILIARIO
10
22.4800
20
29.0000
30
0.0
11
22.4800
21
30.9000
31
0.0
0
LINE
8
MOBILIARIO
10
22.4800
20
30.9000
30
0.0
11
20.7800
21
30.9000
31
0.0
0
LINE
8
MOBILIARIO
10
20.7800
20
30.9000
30
0.0
11
20.7800
21
29.0000
31
0.0
0
LINE
8
MOBILIARIO
10
20.7800
20
30.4500
30
0.0
11
22.4800
21
30.4500
31
0.0
0
LINE
8
MOBILIARIO
10
30.0800
20
26.6000
30
0.0
11
31.7800
21
26.6000
31
0.0
0
LINE
8
MOBILIARIO
10
31.7800
20
26.6000
30
0.0
11
31.7800
21
28.5000
31
0.0
0
LINE
8
MOBILIARIO
10
31.7800
20
28.5000
30
0.0
11
30.0800
21
28.5000
31
0.0
0
LINE
8
MOBILIARIO
10
30.0800
20
28.5000
30
0.0
11
30.0800
21
26.6000
31
0.0
0
LINE
8
MOBILIARIO
10
30.0800
20
28.0500
30
0.0
11
31.7800
21
28.0500
31
0.0
0
LINE
8
MOBILIARIO
10
28.7800
20
22.6000
30
0.0
11
30.5800
21
22.6000
31
0.0
0
LINE
8
MOBILIARIO
10
30.5800
20
22.6000
30
0.0
11
30.5800
21
23.7000
31
0.0
0
LINE
8
MOBILIARIO
10
30.5800
20
23.7000
30
0.0
11
28.7800
21
23.7000
31
0.0
0
LINE
8
MOBILIARIO
10
28.7800
20
23.7000
30
0.0
11
28.7800
21
22.6000
31
0.0
0
LINE
8
COTAS
10
20.1800
20
18.3000
30
0.0
11
24.1800
21
18.3000
31
0.0
0
LINE
8
COTAS
10
20.1800
20
18.2000
30
0.0
11
20.1800
21
18.4000
31
0.0
0
LINE
8
COTAS
10
24.1800
20
18.2000
30
0.0
11
24.1800
21
18.4000
31
0.0
0
TEXT
8
COTAS
10
22.1800
20
18.4200
30
0.0
40
0.1800
1
4.00
72
1
11
22.1800
21
18.4200
31
0.0
0
LINE
8
COTAS
10
24.1800
20
18.3000
30
0.0
11
28.1800
21
18.3000
31
0.0
0
LINE
8
COTAS
10
24.1800
20
18.2000
30
0.0
11
24.1800
21
18.4000
31
0.0
0
LINE
8
COTAS
10
28.1800
20
18.2000
30
0.0
11
28.1800
21
18.4000
31
0.0
0
TEXT
8
COTAS
10
26.1800
20
18.4200
30
0.0
40
0.1800
1
4.00
72
1
11
26.1800
21
18.4200
31
0.0
0
LINE
8
COTAS
10
28.1800
20
18.3000
30
0.0
11
32.1800
21
18.3000
31
0.0
0
LINE
8
COTAS
10
28.1800
20
18.2000
30
0.0
11
28.1800
21
18.4000
31
0.0
0
LINE
8
COTAS
10
32.1800
20
18.2000
30
0.0
11
32.1800
21
18.4000
31
0.0
0
TEXT
8
COTAS
10
30.1800
20
18.4200
30
0.0
40
0.1800
1
4.00
72
1
11
30.1800
21
18.4200
31
0.0
0
LINE
8
COTAS
10
20.1800
20
17.7000
30
0.0
11
32.1800
21
17.7000
31
0.0
0
LINE
8
COTAS
10
20.1800
20
17.6000
30
0.0
11
20.1800
21
17.8000
31
0.0
0
LINE
8
COTAS
10
32.1800
20
17.6000
30
0.0
11
32.1800
21
17.8000
31
0.0
0
TEXT
8
COTAS
10
26.1800
20
17.8200
30
0.0
40
0.1800
1
12.00
72
1
11
26.1800
21
17.8200
31
0.0
0
LINE
8
COTAS
10
34.0800
20
20.2000
30
0.0
11
34.0800
21
23.7000
31
0.0
0
LINE
8
COTAS
10
33.9800
20
20.2000
30
0.0
11
34.1800
21
20.2000
31
0.0
0
LINE
8
COTAS
10
33.9800
20
23.7000
30
0.0
11
34.1800
21
23.7000
31
0.0
0
TEXT
8
COTAS
10
34.2200
20
21.8600
30
0.0
40
0.1800
1
3.50
0
LINE
8
COTAS
10
34.0800
20
23.7000
30
0.0
11
34.0800
21
27.2000
31
0.0
0
LINE
8
COTAS
10
33.9800
20
23.7000
30
0.0
11
34.1800
21
23.7000
31
0.0
0
LINE
8
COTAS
10
33.9800
20
27.2000
30
0.0
11
34.1800
21
27.2000
31
0.0
0
TEXT
8
COTAS
10
34.2200
20
25.3600
30
0.0
40
0.1800
1
3.50
0
LINE
8
COTAS
10
34.0800
20
27.2000
30
0.0
11
34.0800
21
31.2000
31
0.0
0
LINE
8
COTAS
10
33.9800
20
27.2000
30
0.0
11
34.1800
21
27.2000
31
0.0
0
LINE
8
COTAS
10
33.9800
20
31.2000
30
0.0
11
34.1800
21
31.2000
31
0.0
0
TEXT
8
COTAS
10
34.2200
20
29.1100
30
0.0
40
0.1800
1
4.00
0
LINE
8
COTAS
10
34.6800
20
20.2000
30
0.0
11
34.6800
21
31.2000
31
0.0
0
LINE
8
COTAS
10
34.5800
20
20.2000
30
0.0
11
34.7800
21
20.2000
31
0.0
0
LINE
8
COTAS
10
34.5800
20
31.2000
30
0.0
11
34.7800
21
31.2000
31
0.0
0
TEXT
8
COTAS
10
34.8200
20
25.6100
30
0.0
40
0.1800
1
11.00
0
TEXT
8
TEXTOS
10
26.1800
20
32.7000
30
0.0
40
0.3400
1
02 - PRIMER PISO
72
1
11
26.1800
21
32.7000
31
0.0
0
LINE
8
EJES
10
1.5200
20
1.7000
30
0.0
11
1.5200
21
14.5000
31
0.0
0
CIRCLE
8
EJES
10
1.5200
20
1.3800
30
0.0
40
0.3000
0
TEXT
8
EJES
10
1.5200
20
1.2800
30
0.0
40
0.2400
1
1
72
1
11
1.5200
21
1.2800
31
0.0
0
LINE
8
EJES
10
5.5200
20
1.7000
30
0.0
11
5.5200
21
14.5000
31
0.0
0
CIRCLE
8
EJES
10
5.5200
20
1.3800
30
0.0
40
0.3000
0
TEXT
8
EJES
10
5.5200
20
1.2800
30
0.0
40
0.2400
1
2
72
1
11
5.5200
21
1.2800
31
0.0
0
LINE
8
EJES
10
9.5200
20
1.7000
30
0.0
11
9.5200
21
14.5000
31
0.0
0
CIRCLE
8
EJES
10
9.5200
20
1.3800
30
0.0
40
0.3000
0
TEXT
8
EJES
10
9.5200
20
1.2800
30
0.0
40
0.2400
1
3
72
1
11
9.5200
21
1.2800
31
0.0
0
LINE
8
EJES
10
13.5200
20
1.7000
30
0.0
11
13.5200
21
14.5000
31
0.0
0
CIRCLE
8
EJES
10
13.5200
20
1.3800
30
0.0
40
0.3000
0
TEXT
8
EJES
10
13.5200
20
1.2800
30
0.0
40
0.2400
1
4
72
1
11
13.5200
21
1.2800
31
0.0
0
LINE
8
EJES
10
0.6200
20
2.6000
30
0.0
11
14.4200
21
2.6000
31
0.0
0
CIRCLE
8
EJES
10
0.3000
20
2.6000
30
0.0
40
0.3000
0
TEXT
8
EJES
10
0.3000
20
2.5000
30
0.0
40
0.2400
1
A
72
1
11
0.3000
21
2.5000
31
0.0
0
LINE
8
EJES
10
0.6200
20
6.1000
30
0.0
11
14.4200
21
6.1000
31
0.0
0
CIRCLE
8
EJES
10
0.3000
20
6.1000
30
0.0
40
0.3000
0
TEXT
8
EJES
10
0.3000
20
6.0000
30
0.0
40
0.2400
1
B
72
1
11
0.3000
21
6.0000
31
0.0
0
LINE
8
EJES
10
0.6200
20
9.6000
30
0.0
11
14.4200
21
9.6000
31
0.0
0
CIRCLE
8
EJES
10
0.3000
20
9.6000
30
0.0
40
0.3000
0
TEXT
8
EJES
10
0.3000
20
9.5000
30
0.0
40
0.2400
1
C
72
1
11
0.3000
21
9.5000
31
0.0
0
LINE
8
EJES
10
0.6200
20
13.6000
30
0.0
11
14.4200
21
13.6000
31
0.0
0
CIRCLE
8
EJES
10
0.3000
20
13.6000
30
0.0
40
0.3000
0
TEXT
8
EJES
10
0.3000
20
13.5000
30
0.0
40
0.2400
1
D
72
1
11
0.3000
21
13.5000
31
0.0
0
LINE
8
COLUMNAS
10
1.3700
20
2.4500
30
0.0
11
1.6700
21
2.4500
31
0.0
0
LINE
8
COLUMNAS
10
1.6700
20
2.4500
30
0.0
11
1.6700
21
2.7500
31
0.0
0
LINE
8
COLUMNAS
10
1.6700
20
2.7500
30
0.0
11
1.3700
21
2.7500
31
0.0
0
LINE
8
COLUMNAS
10
1.3700
20
2.7500
30
0.0
11
1.3700
21
2.4500
31
0.0
0
LINE
8
COLUMNAS
10
1.3700
20
5.9500
30
0.0
11
1.6700
21
5.9500
31
0.0
0
LINE
8
COLUMNAS
10
1.6700
20
5.9500
30
0.0
11
1.6700
21
6.2500
31
0.0
0
LINE
8
COLUMNAS
10
1.6700
20
6.2500
30
0.0
11
1.3700
21
6.2500
31
0.0
0
LINE
8
COLUMNAS
10
1.3700
20
6.2500
30
0.0
11
1.3700
21
5.9500
31
0.0
0
LINE
8
COLUMNAS
10
1.3700
20
9.4500
30
0.0
11
1.6700
21
9.4500
31
0.0
0
LINE
8
COLUMNAS
10
1.6700
20
9.4500
30
0.0
11
1.6700
21
9.7500
31
0.0
0
LINE
8
COLUMNAS
10
1.6700
20
9.7500
30
0.0
11
1.3700
21
9.7500
31
0.0
0
LINE
8
COLUMNAS
10
1.3700
20
9.7500
30
0.0
11
1.3700
21
9.4500
31
0.0
0
LINE
8
COLUMNAS
10
1.3700
20
13.4500
30
0.0
11
1.6700
21
13.4500
31
0.0
0
LINE
8
COLUMNAS
10
1.6700
20
13.4500
30
0.0
11
1.6700
21
13.7500
31
0.0
0
LINE
8
COLUMNAS
10
1.6700
20
13.7500
30
0.0
11
1.3700
21
13.7500
31
0.0
0
LINE
8
COLUMNAS
10
1.3700
20
13.7500
30
0.0
11
1.3700
21
13.4500
31
0.0
0
LINE
8
COLUMNAS
10
5.3700
20
2.4500
30
0.0
11
5.6700
21
2.4500
31
0.0
0
LINE
8
COLUMNAS
10
5.6700
20
2.4500
30
0.0
11
5.6700
21
2.7500
31
0.0
0
LINE
8
COLUMNAS
10
5.6700
20
2.7500
30
0.0
11
5.3700
21
2.7500
31
0.0
0
LINE
8
COLUMNAS
10
5.3700
20
2.7500
30
0.0
11
5.3700
21
2.4500
31
0.0
0
LINE
8
COLUMNAS
10
5.3700
20
5.9500
30
0.0
11
5.6700
21
5.9500
31
0.0
0
LINE
8
COLUMNAS
10
5.6700
20
5.9500
30
0.0
11
5.6700
21
6.2500
31
0.0
0
LINE
8
COLUMNAS
10
5.6700
20
6.2500
30
0.0
11
5.3700
21
6.2500
31
0.0
0
LINE
8
COLUMNAS
10
5.3700
20
6.2500
30
0.0
11
5.3700
21
5.9500
31
0.0
0
LINE
8
COLUMNAS
10
5.3700
20
9.4500
30
0.0
11
5.6700
21
9.4500
31
0.0
0
LINE
8
COLUMNAS
10
5.6700
20
9.4500
30
0.0
11
5.6700
21
9.7500
31
0.0
0
LINE
8
COLUMNAS
10
5.6700
20
9.7500
30
0.0
11
5.3700
21
9.7500
31
0.0
0
LINE
8
COLUMNAS
10
5.3700
20
9.7500
30
0.0
11
5.3700
21
9.4500
31
0.0
0
LINE
8
COLUMNAS
10
5.3700
20
13.4500
30
0.0
11
5.6700
21
13.4500
31
0.0
0
LINE
8
COLUMNAS
10
5.6700
20
13.4500
30
0.0
11
5.6700
21
13.7500
31
0.0
0
LINE
8
COLUMNAS
10
5.6700
20
13.7500
30
0.0
11
5.3700
21
13.7500
31
0.0
0
LINE
8
COLUMNAS
10
5.3700
20
13.7500
30
0.0
11
5.3700
21
13.4500
31
0.0
0
LINE
8
COLUMNAS
10
9.3700
20
2.4500
30
0.0
11
9.6700
21
2.4500
31
0.0
0
LINE
8
COLUMNAS
10
9.6700
20
2.4500
30
0.0
11
9.6700
21
2.7500
31
0.0
0
LINE
8
COLUMNAS
10
9.6700
20
2.7500
30
0.0
11
9.3700
21
2.7500
31
0.0
0
LINE
8
COLUMNAS
10
9.3700
20
2.7500
30
0.0
11
9.3700
21
2.4500
31
0.0
0
LINE
8
COLUMNAS
10
9.3700
20
5.9500
30
0.0
11
9.6700
21
5.9500
31
0.0
0
LINE
8
COLUMNAS
10
9.6700
20
5.9500
30
0.0
11
9.6700
21
6.2500
31
0.0
0
LINE
8
COLUMNAS
10
9.6700
20
6.2500
30
0.0
11
9.3700
21
6.2500
31
0.0
0
LINE
8
COLUMNAS
10
9.3700
20
6.2500
30
0.0
11
9.3700
21
5.9500
31
0.0
0
LINE
8
COLUMNAS
10
9.3700
20
9.4500
30
0.0
11
9.6700
21
9.4500
31
0.0
0
LINE
8
COLUMNAS
10
9.6700
20
9.4500
30
0.0
11
9.6700
21
9.7500
31
0.0
0
LINE
8
COLUMNAS
10
9.6700
20
9.7500
30
0.0
11
9.3700
21
9.7500
31
0.0
0
LINE
8
COLUMNAS
10
9.3700
20
9.7500
30
0.0
11
9.3700
21
9.4500
31
0.0
0
LINE
8
COLUMNAS
10
9.3700
20
13.4500
30
0.0
11
9.6700
21
13.4500
31
0.0
0
LINE
8
COLUMNAS
10
9.6700
20
13.4500
30
0.0
11
9.6700
21
13.7500
31
0.0
0
LINE
8
COLUMNAS
10
9.6700
20
13.7500
30
0.0
11
9.3700
21
13.7500
31
0.0
0
LINE
8
COLUMNAS
10
9.3700
20
13.7500
30
0.0
11
9.3700
21
13.4500
31
0.0
0
LINE
8
COLUMNAS
10
13.3700
20
2.4500
30
0.0
11
13.6700
21
2.4500
31
0.0
0
LINE
8
COLUMNAS
10
13.6700
20
2.4500
30
0.0
11
13.6700
21
2.7500
31
0.0
0
LINE
8
COLUMNAS
10
13.6700
20
2.7500
30
0.0
11
13.3700
21
2.7500
31
0.0
0
LINE
8
COLUMNAS
10
13.3700
20
2.7500
30
0.0
11
13.3700
21
2.4500
31
0.0
0
LINE
8
COLUMNAS
10
13.3700
20
5.9500
30
0.0
11
13.6700
21
5.9500
31
0.0
0
LINE
8
COLUMNAS
10
13.6700
20
5.9500
30
0.0
11
13.6700
21
6.2500
31
0.0
0
LINE
8
COLUMNAS
10
13.6700
20
6.2500
30
0.0
11
13.3700
21
6.2500
31
0.0
0
LINE
8
COLUMNAS
10
13.3700
20
6.2500
30
0.0
11
13.3700
21
5.9500
31
0.0
0
LINE
8
COLUMNAS
10
13.3700
20
9.4500
30
0.0
11
13.6700
21
9.4500
31
0.0
0
LINE
8
COLUMNAS
10
13.6700
20
9.4500
30
0.0
11
13.6700
21
9.7500
31
0.0
0
LINE
8
COLUMNAS
10
13.6700
20
9.7500
30
0.0
11
13.3700
21
9.7500
31
0.0
0
LINE
8
COLUMNAS
10
13.3700
20
9.7500
30
0.0
11
13.3700
21
9.4500
31
0.0
0
LINE
8
COLUMNAS
10
13.3700
20
13.4500
30
0.0
11
13.6700
21
13.4500
31
0.0
0
LINE
8
COLUMNAS
10
13.6700
20
13.4500
30
0.0
11
13.6700
21
13.7500
31
0.0
0
LINE
8
COLUMNAS
10
13.6700
20
13.7500
30
0.0
11
13.3700
21
13.7500
31
0.0
0
LINE
8
COLUMNAS
10
13.3700
20
13.7500
30
0.0
11
13.3700
21
13.4500
31
0.0
0
LINE
8
MUROS
10
1.5200
20
2.6000
30
0.0
11
1.7200
21
2.6000
31
0.0
0
LINE
8
MUROS
10
1.7200
20
2.6000
30
0.0
11
1.7200
21
13.6000
31
0.0
0
LINE
8
MUROS
10
1.7200
20
13.6000
30
0.0
11
1.5200
21
13.6000
31
0.0
0
LINE
8
MUROS
10
1.5200
20
13.6000
30
0.0
11
1.5200
21
2.6000
31
0.0
0
LINE
8
MUROS
10
13.3200
20
2.6000
30
0.0
11
13.5200
21
2.6000
31
0.0
0
LINE
8
MUROS
10
13.5200
20
2.6000
30
0.0
11
13.5200
21
13.6000
31
0.0
0
LINE
8
MUROS
10
13.5200
20
13.6000
30
0.0
11
13.3200
21
13.6000
31
0.0
0
LINE
8
MUROS
10
13.3200
20
13.6000
30
0.0
11
13.3200
21
2.6000
31
0.0
0
LINE
8
MUROS
10
1.5200
20
2.6000
30
0.0
11
13.5200
21
2.6000
31
0.0
0
LINE
8
MUROS
10
13.5200
20
2.6000
30
0.0
11
13.5200
21
2.8000
31
0.0
0
LINE
8
MUROS
10
13.5200
20
2.8000
30
0.0
11
1.5200
21
2.8000
31
0.0
0
LINE
8
MUROS
10
1.5200
20
2.8000
30
0.0
11
1.5200
21
2.6000
31
0.0
0
LINE
8
MUROS
10
1.5200
20
13.4000
30
0.0
11
13.5200
21
13.4000
31
0.0
0
LINE
8
MUROS
10
13.5200
20
13.4000
30
0.0
11
13.5200
21
13.6000
31
0.0
0
LINE
8
MUROS
10
13.5200
20
13.6000
30
0.0
11
1.5200
21
13.6000
31
0.0
0
LINE
8
MUROS
10
1.5200
20
13.6000
30
0.0
11
1.5200
21
13.4000
31
0.0
0
LINE
8
MUROS
10
1.5200
20
4.4600
30
0.0
11
9.5200
21
4.4600
31
0.0
0
LINE
8
MUROS
10
9.5200
20
4.4600
30
0.0
11
9.5200
21
4.3400
31
0.0
0
LINE
8
MUROS
10
9.5200
20
4.3400
30
0.0
11
1.5200
21
4.3400
31
0.0
0
LINE
8
MUROS
10
1.5200
20
4.3400
30
0.0
11
1.5200
21
4.4600
31
0.0
0
LINE
8
MUROS
10
7.4600
20
4.4000
30
0.0
11
7.4600
21
9.1000
31
0.0
0
LINE
8
MUROS
10
7.4600
20
9.1000
30
0.0
11
7.5800
21
9.1000
31
0.0
0
LINE
8
MUROS
10
7.5800
20
9.1000
30
0.0
11
7.5800
21
4.4000
31
0.0
0
LINE
8
MUROS
10
7.5800
20
4.4000
30
0.0
11
7.4600
21
4.4000
31
0.0
0
LINE
8
MUROS
10
8.8600
20
4.4000
30
0.0
11
8.8600
21
13.6000
31
0.0
0
LINE
8
MUROS
10
8.8600
20
13.6000
30
0.0
11
8.9800
21
13.6000
31
0.0
0
LINE
8
MUROS
10
8.9800
20
13.6000
30
0.0
11
8.9800
21
4.4000
31
0.0
0
LINE
8
MUROS
10
8.9800
20
4.4000
30
0.0
11
8.8600
21
4.4000
31
0.0
0
LINE
8
MUROS
10
1.5200
20
9.1600
30
0.0
11
8.9200
21
9.1600
31
0.0
0
LINE
8
MUROS
10
8.9200
20
9.1600
30
0.0
11
8.9200
21
9.0400
31
0.0
0
LINE
8
MUROS
10
8.9200
20
9.0400
30
0.0
11
1.5200
21
9.0400
31
0.0
0
LINE
8
MUROS
10
1.5200
20
9.0400
30
0.0
11
1.5200
21
9.1600
31
0.0
0
LINE
8
MUROS
10
8.9200
20
8.6600
30
0.0
11
13.5200
21
8.6600
31
0.0
0
LINE
8
MUROS
10
13.5200
20
8.6600
30
0.0
11
13.5200
21
8.5400
31
0.0
0
LINE
8
MUROS
10
13.5200
20
8.5400
30
0.0
11
8.9200
21
8.5400
31
0.0
0
LINE
8
MUROS
10
8.9200
20
8.5400
30
0.0
11
8.9200
21
8.6600
31
0.0
0
TEXT
8
TEXTOS
10
4.6200
20
6.7500
30
0.0
40
0.2400
1
DORMITORIO PRINCIPAL
72
1
11
4.6200
21
6.7500
31
0.0
0
TEXT
8
TEXTOS
10
4.5200
20
6.5000
30
0.0
40
0.1600
1
27.0 m2
72
1
11
4.5200
21
6.5000
31
0.0
0
TEXT
8
TEXTOS
10
5.3200
20
11.2500
30
0.0
40
0.2400
1
ESTUDIO / SALA TV
72
1
11
5.3200
21
11.2500
31
0.0
0
TEXT
8
TEXTOS
10
11.2200
20
6.5000
30
0.0
40
0.2400
1
DORMITORIO 4
72
1
11
11.2200
21
6.5000
31
0.0
0
TEXT
8
TEXTOS
10
11.2200
20
6.1800
30
0.0
40
0.1600
1
19.3 m2
72
1
11
11.2200
21
6.1800
31
0.0
0
TEXT
8
TEXTOS
10
8.2200
20
7.6500
30
0.0
40
0.2400
1
BANO
72
1
11
8.2200
21
7.6500
31
0.0
0
TEXT
8
TEXTOS
10
8.2200
20
5.3500
30
0.0
40
0.2400
1
VESTIDOR
72
1
11
8.2200
21
5.3500
31
0.0
0
LINE
8
MOBILIARIO
10
8.9200
20
8.6000
30
0.0
11
13.5200
21
8.6000
31
0.0
0
LINE
8
MOBILIARIO
10
13.5200
20
8.6000
30
0.0
11
13.5200
21
13.4000
31
0.0
0
LINE
8
MOBILIARIO
10
13.5200
20
13.4000
30
0.0
11
8.9200
21
13.4000
31
0.0
0
LINE
8
MOBILIARIO
10
8.9200
20
13.4000
30
0.0
11
8.9200
21
8.6000
31
0.0
0
TEXT
8
TEXTOS
10
11.2200
20
11.0000
30
0.0
40
0.2400
1
TERRAZA
72
1
11
11.2200
21
11.0000
31
0.0
0
LINE
8
MOBILIARIO
10
4.5200
20
2.9000
30
0.0
11
9.5200
21
2.9000
31
0.0
0
LINE
8
MOBILIARIO
10
9.5200
20
2.9000
30
0.0
11
9.5200
21
4.0000
31
0.0
0
LINE
8
MOBILIARIO
10
9.5200
20
4.0000
30
0.0
11
4.5200
21
4.0000
31
0.0
0
LINE
8
MOBILIARIO
10
4.5200
20
4.0000
30
0.0
11
4.5200
21
2.9000
31
0.0
0
TEXT
8
TEXTOS
10
7.0200
20
3.4500
30
0.0
40
0.2000
1
BALCON
72
1
11
7.0200
21
3.4500
31
0.0
0
LINE
8
ESCALERA
10
6.6700
20
6.1500
30
0.0
11
7.5200
21
6.1500
31
0.0
0
LINE
8
ESCALERA
10
7.5200
20
6.1500
30
0.0
11
7.5200
21
9.1000
31
0.0
0
LINE
8
ESCALERA
10
7.5200
20
9.1000
30
0.0
11
6.6700
21
9.1000
31
0.0
0
LINE
8
ESCALERA
10
6.6700
20
9.1000
30
0.0
11
6.6700
21
6.1500
31
0.0
0
LINE
8
ESCALERA
10
6.6700
20
6.4182
30
0.0
11
7.5200
21
6.4182
31
0.0
0
LINE
8
ESCALERA
10
6.6700
20
6.6864
30
0.0
11
7.5200
21
6.6864
31
0.0
0
LINE
8
ESCALERA
10
6.6700
20
6.9545
30
0.0
11
7.5200
21
6.9545
31
0.0
0
LINE
8
ESCALERA
10
6.6700
20
7.2227
30
0.0
11
7.5200
21
7.2227
31
0.0
0
LINE
8
ESCALERA
10
6.6700
20
7.4909
30
0.0
11
7.5200
21
7.4909
31
0.0
0
LINE
8
ESCALERA
10
6.6700
20
7.7591
30
0.0
11
7.5200
21
7.7591
31
0.0
0
LINE
8
ESCALERA
10
6.6700
20
8.0273
30
0.0
11
7.5200
21
8.0273
31
0.0
0
LINE
8
ESCALERA
10
6.6700
20
8.2955
30
0.0
11
7.5200
21
8.2955
31
0.0
0
LINE
8
ESCALERA
10
6.6700
20
8.5636
30
0.0
11
7.5200
21
8.5636
31
0.0
0
LINE
8
ESCALERA
10
6.6700
20
8.8318
30
0.0
11
7.5200
21
8.8318
31
0.0
0
LINE
8
ESCALERA
10
7.0950
20
6.3000
30
0.0
11
7.0950
21
8.9500
31
0.0
0
LINE
8
ESCALERA
10
7.0950
20
6.3000
30
0.0
11
6.9750
21
6.5500
31
0.0
0
LINE
8
ESCALERA
10
7.0950
20
6.3000
30
0.0
11
7.2150
21
6.5500
31
0.0
0
TEXT
8
TEXTOS
10
7.0950
20
7.6250
30
0.0
40
0.1600
1
BAJA
72
1
11
7.0950
21
7.6250
31
0.0
0
LINE
8
VENTANAS
10
4.6200
20
2.5333
30
0.0
11
6.8200
21
2.5333
31
0.0
0
LINE
8
VENTANAS
10
4.6200
20
2.6000
30
0.0
11
6.8200
21
2.6000
31
0.0
0
LINE
8
VENTANAS
10
4.6200
20
2.6667
30
0.0
11
6.8200
21
2.6667
31
0.0
0
LINE
8
VENTANAS
10
4.6200
20
2.5000
30
0.0
11
4.6200
21
2.7000
31
0.0
0
LINE
8
VENTANAS
10
6.8200
20
2.5000
30
0.0
11
6.8200
21
2.7000
31
0.0
0
LINE
8
VENTANAS
10
7.6200
20
2.5333
30
0.0
11
8.6200
21
2.5333
31
0.0
0
LINE
8
VENTANAS
10
7.6200
20
2.6000
30
0.0
11
8.6200
21
2.6000
31
0.0
0
LINE
8
VENTANAS
10
7.6200
20
2.6667
30
0.0
11
8.6200
21
2.6667
31
0.0
0
LINE
8
VENTANAS
10
7.6200
20
2.5000
30
0.0
11
7.6200
21
2.7000
31
0.0
0
LINE
8
VENTANAS
10
8.6200
20
2.5000
30
0.0
11
8.6200
21
2.7000
31
0.0
0
LINE
8
VENTANAS
10
1.4533
20
5.4000
30
0.0
11
1.4533
21
7.8000
31
0.0
0
LINE
8
VENTANAS
10
1.5200
20
5.4000
30
0.0
11
1.5200
21
7.8000
31
0.0
0
LINE
8
VENTANAS
10
1.5867
20
5.4000
30
0.0
11
1.5867
21
7.8000
31
0.0
0
LINE
8
VENTANAS
10
1.4200
20
5.4000
30
0.0
11
1.6200
21
5.4000
31
0.0
0
LINE
8
VENTANAS
10
1.4200
20
7.8000
30
0.0
11
1.6200
21
7.8000
31
0.0
0
LINE
8
VENTANAS
10
1.4533
20
10.0000
30
0.0
11
1.4533
21
12.4000
31
0.0
0
LINE
8
VENTANAS
10
1.5200
20
10.0000
30
0.0
11
1.5200
21
12.4000
31
0.0
0
LINE
8
VENTANAS
10
1.5867
20
10.0000
30
0.0
11
1.5867
21
12.4000
31
0.0
0
LINE
8
VENTANAS
10
1.4200
20
10.0000
30
0.0
11
1.6200
21
10.0000
31
0.0
0
LINE
8
VENTANAS
10
1.4200
20
12.4000
30
0.0
11
1.6200
21
12.4000
31
0.0
0
LINE
8
VENTANAS
10
13.4533
20
5.3000
30
0.0
11
13.4533
21
7.5000
31
0.0
0
LINE
8
VENTANAS
10
13.5200
20
5.3000
30
0.0
11
13.5200
21
7.5000
31
0.0
0
LINE
8
VENTANAS
10
13.5867
20
5.3000
30
0.0
11
13.5867
21
7.5000
31
0.0
0
LINE
8
VENTANAS
10
13.4200
20
5.3000
30
0.0
11
13.6200
21
5.3000
31
0.0
0
LINE
8
VENTANAS
10
13.4200
20
7.5000
30
0.0
11
13.6200
21
7.5000
31
0.0
0
LINE
8
VENTANAS
10
3.7200
20
13.5333
30
0.0
11
6.3200
21
13.5333
31
0.0
0
LINE
8
VENTANAS
10
3.7200
20
13.6000
30
0.0
11
6.3200
21
13.6000
31
0.0
0
LINE
8
VENTANAS
10
3.7200
20
13.6667
30
0.0
11
6.3200
21
13.6667
31
0.0
0
LINE
8
VENTANAS
10
3.7200
20
13.5000
30
0.0
11
3.7200
21
13.7000
31
0.0
0
LINE
8
VENTANAS
10
6.3200
20
13.5000
30
0.0
11
6.3200
21
13.7000
31
0.0
0
LINE
8
PUERTAS
10
5.5200
20
4.4000
30
0.0
11
5.5200
21
5.4000
31
0.0
0
ARC
8
PUERTAS
10
5.5200
20
4.4000
30
0.0
40
1.0000
50
0.00
51
90.00
0
LINE
8
PUERTAS
10
7.5200
20
8.6500
30
0.0
11
6.6200
21
8.6500
31
0.0
0
ARC
8
PUERTAS
10
7.5200
20
8.6500
30
0.0
40
0.9000
50
180.00
51
270.00
0
LINE
8
PUERTAS
10
4.0200
20
9.1000
30
0.0
11
4.0200
21
10.1000
31
0.0
0
ARC
8
PUERTAS
10
4.0200
20
9.1000
30
0.0
40
1.0000
50
0.00
51
90.00
0
LINE
8
PUERTAS
10
10.0200
20
8.6000
30
0.0
11
10.0200
21
9.6000
31
0.0
0
ARC
8
PUERTAS
10
10.0200
20
8.6000
30
0.0
40
1.0000
50
0.00
51
90.00
0
LINE
8
PUERTAS
10
8.9200
20
5.1500
30
0.0
11
8.0200
21
5.1500
31
0.0
0
ARC
8
PUERTAS
10
8.9200
20
5.1500
30
0.0
40
0.9000
50
90.00
51
180.00
0
LINE
8
MOBILIARIO
10
2.1200
20
6.9000
30
0.0
11
4.1200
21
6.9000
31
0.0
0
LINE
8
MOBILIARIO
10
4.1200
20
6.9000
30
0.0
11
4.1200
21
9.0000
31
0.0
0
LINE
8
MOBILIARIO
10
4.1200
20
9.0000
30
0.0
11
2.1200
21
9.0000
31
0.0
0
LINE
8
MOBILIARIO
10
2.1200
20
9.0000
30
0.0
11
2.1200
21
6.9000
31
0.0
0
LINE
8
MOBILIARIO
10
2.1200
20
8.5500
30
0.0
11
4.1200
21
8.5500
31
0.0
0
LINE
8
MOBILIARIO
10
11.1200
20
4.8000
30
0.0
11
12.8200
21
4.8000
31
0.0
0
LINE
8
MOBILIARIO
10
12.8200
20
4.8000
30
0.0
11
12.8200
21
6.7000
31
0.0
0
LINE
8
MOBILIARIO
10
12.8200
20
6.7000
30
0.0
11
11.1200
21
6.7000
31
0.0
0
LINE
8
MOBILIARIO
10
11.1200
20
6.7000
30
0.0
11
11.1200
21
4.8000
31
0.0
0
LINE
8
MOBILIARIO
10
11.1200
20
6.2500
30
0.0
11
12.8200
21
6.2500
31
0.0
0
LINE
8
MOBILIARIO
10
2.1200
20
12.0000
30
0.0
11
5.1200
21
12.0000
31
0.0
0
LINE
8
MOBILIARIO
10
5.1200
20
12.0000
30
0.0
11
5.1200
21
13.0000
31
0.0
0
LINE
8
MOBILIARIO
10
5.1200
20
13.0000
30
0.0
11
2.1200
21
13.0000
31
0.0
0
LINE
8
MOBILIARIO
10
2.1200
20
13.0000
30
0.0
11
2.1200
21
12.0000
31
0.0
0
LINE
8
MOBILIARIO
10
2.1200
20
12.8200
30
0.0
11
5.1200
21
12.8200
31
0.0
0
LINE
8
COTAS
10
1.5200
20
0.7000
30
0.0
11
5.5200
21
0.7000
31
0.0
0
LINE
8
COTAS
10
1.5200
20
0.6000
30
0.0
11
1.5200
21
0.8000
31
0.0
0
LINE
8
COTAS
10
5.5200
20
0.6000
30
0.0
11
5.5200
21
0.8000
31
0.0
0
TEXT
8
COTAS
10
3.5200
20
0.8200
30
0.0
40
0.1800
1
4.00
72
1
11
3.5200
21
0.8200
31
0.0
0
LINE
8
COTAS
10
5.5200
20
0.7000
30
0.0
11
9.5200
21
0.7000
31
0.0
0
LINE
8
COTAS
10
5.5200
20
0.6000
30
0.0
11
5.5200
21
0.8000
31
0.0
0
LINE
8
COTAS
10
9.5200
20
0.6000
30
0.0
11
9.5200
21
0.8000
31
0.0
0
TEXT
8
COTAS
10
7.5200
20
0.8200
30
0.0
40
0.1800
1
4.00
72
1
11
7.5200
21
0.8200
31
0.0
0
LINE
8
COTAS
10
9.5200
20
0.7000
30
0.0
11
13.5200
21
0.7000
31
0.0
0
LINE
8
COTAS
10
9.5200
20
0.6000
30
0.0
11
9.5200
21
0.8000
31
0.0
0
LINE
8
COTAS
10
13.5200
20
0.6000
30
0.0
11
13.5200
21
0.8000
31
0.0
0
TEXT
8
COTAS
10
11.5200
20
0.8200
30
0.0
40
0.1800
1
4.00
72
1
11
11.5200
21
0.8200
31
0.0
0
LINE
8
COTAS
10
1.5200
20
0.1000
30
0.0
11
13.5200
21
0.1000
31
0.0
0
LINE
8
COTAS
10
1.5200
20
0.0000
30
0.0
11
1.5200
21
0.2000
31
0.0
0
LINE
8
COTAS
10
13.5200
20
0.0000
30
0.0
11
13.5200
21
0.2000
31
0.0
0
TEXT
8
COTAS
10
7.5200
20
0.2200
30
0.0
40
0.1800
1
12.00
72
1
11
7.5200
21
0.2200
31
0.0
0
LINE
8
COTAS
10
15.4200
20
2.6000
30
0.0
11
15.4200
21
6.1000
31
0.0
0
LINE
8
COTAS
10
15.3200
20
2.6000
30
0.0
11
15.5200
21
2.6000
31
0.0
0
LINE
8
COTAS
10
15.3200
20
6.1000
30
0.0
11
15.5200
21
6.1000
31
0.0
0
TEXT
8
COTAS
10
15.5600
20
4.2600
30
0.0
40
0.1800
1
3.50
0
LINE
8
COTAS
10
15.4200
20
6.1000
30
0.0
11
15.4200
21
9.6000
31
0.0
0
LINE
8
COTAS
10
15.3200
20
6.1000
30
0.0
11
15.5200
21
6.1000
31
0.0
0
LINE
8
COTAS
10
15.3200
20
9.6000
30
0.0
11
15.5200
21
9.6000
31
0.0
0
TEXT
8
COTAS
10
15.5600
20
7.7600
30
0.0
40
0.1800
1
3.50
0
LINE
8
COTAS
10
15.4200
20
9.6000
30
0.0
11
15.4200
21
13.6000
31
0.0
0
LINE
8
COTAS
10
15.3200
20
9.6000
30
0.0
11
15.5200
21
9.6000
31
0.0
0
LINE
8
COTAS
10
15.3200
20
13.6000
30
0.0
11
15.5200
21
13.6000
31
0.0
0
TEXT
8
COTAS
10
15.5600
20
11.5100
30
0.0
40
0.1800
1
4.00
0
LINE
8
COTAS
10
16.0200
20
2.6000
30
0.0
11
16.0200
21
13.6000
31
0.0
0
LINE
8
COTAS
10
15.9200
20
2.6000
30
0.0
11
16.1200
21
2.6000
31
0.0
0
LINE
8
COTAS
10
15.9200
20
13.6000
30
0.0
11
16.1200
21
13.6000
31
0.0
0
TEXT
8
COTAS
10
16.1600
20
8.0100
30
0.0
40
0.1800
1
11.00
0
TEXT
8
TEXTOS
10
7.5200
20
15.1000
30
0.0
40
0.3400
1
03 - SEGUNDO PISO
72
1
11
7.5200
21
15.1000
31
0.0
0
LINE
8
EJES
10
20.1800
20
1.7000
30
0.0
11
20.1800
21
14.5000
31
0.0
0
CIRCLE
8
EJES
10
20.1800
20
1.3800
30
0.0
40
0.3000
0
TEXT
8
EJES
10
20.1800
20
1.2800
30
0.0
40
0.2400
1
1
72
1
11
20.1800
21
1.2800
31
0.0
0
LINE
8
EJES
10
24.1800
20
1.7000
30
0.0
11
24.1800
21
14.5000
31
0.0
0
CIRCLE
8
EJES
10
24.1800
20
1.3800
30
0.0
40
0.3000
0
TEXT
8
EJES
10
24.1800
20
1.2800
30
0.0
40
0.2400
1
2
72
1
11
24.1800
21
1.2800
31
0.0
0
LINE
8
EJES
10
28.1800
20
1.7000
30
0.0
11
28.1800
21
14.5000
31
0.0
0
CIRCLE
8
EJES
10
28.1800
20
1.3800
30
0.0
40
0.3000
0
TEXT
8
EJES
10
28.1800
20
1.2800
30
0.0
40
0.2400
1
3
72
1
11
28.1800
21
1.2800
31
0.0
0
LINE
8
EJES
10
32.1800
20
1.7000
30
0.0
11
32.1800
21
14.5000
31
0.0
0
CIRCLE
8
EJES
10
32.1800
20
1.3800
30
0.0
40
0.3000
0
TEXT
8
EJES
10
32.1800
20
1.2800
30
0.0
40
0.2400
1
4
72
1
11
32.1800
21
1.2800
31
0.0
0
LINE
8
EJES
10
19.2800
20
2.6000
30
0.0
11
33.0800
21
2.6000
31
0.0
0
CIRCLE
8
EJES
10
18.9600
20
2.6000
30
0.0
40
0.3000
0
TEXT
8
EJES
10
18.9600
20
2.5000
30
0.0
40
0.2400
1
A
72
1
11
18.9600
21
2.5000
31
0.0
0
LINE
8
EJES
10
19.2800
20
6.1000
30
0.0
11
33.0800
21
6.1000
31
0.0
0
CIRCLE
8
EJES
10
18.9600
20
6.1000
30
0.0
40
0.3000
0
TEXT
8
EJES
10
18.9600
20
6.0000
30
0.0
40
0.2400
1
B
72
1
11
18.9600
21
6.0000
31
0.0
0
LINE
8
EJES
10
19.2800
20
9.6000
30
0.0
11
33.0800
21
9.6000
31
0.0
0
CIRCLE
8
EJES
10
18.9600
20
9.6000
30
0.0
40
0.3000
0
TEXT
8
EJES
10
18.9600
20
9.5000
30
0.0
40
0.2400
1
C
72
1
11
18.9600
21
9.5000
31
0.0
0
LINE
8
EJES
10
19.2800
20
13.6000
30
0.0
11
33.0800
21
13.6000
31
0.0
0
CIRCLE
8
EJES
10
18.9600
20
13.6000
30
0.0
40
0.3000
0
TEXT
8
EJES
10
18.9600
20
13.5000
30
0.0
40
0.2400
1
D
72
1
11
18.9600
21
13.5000
31
0.0
0
LINE
8
RIOSTRAS
10
20.6800
20
2.7000
30
0.0
11
23.6800
21
2.7000
31
0.0
0
LINE
8
RIOSTRAS
10
23.6800
20
2.7000
30
0.0
11
23.6800
21
2.5000
31
0.0
0
LINE
8
RIOSTRAS
10
23.6800
20
2.5000
30
0.0
11
20.6800
21
2.5000
31
0.0
0
LINE
8
RIOSTRAS
10
20.6800
20
2.5000
30
0.0
11
20.6800
21
2.7000
31
0.0
0
LINE
8
RIOSTRAS
10
24.6800
20
2.7000
30
0.0
11
27.6800
21
2.7000
31
0.0
0
LINE
8
RIOSTRAS
10
27.6800
20
2.7000
30
0.0
11
27.6800
21
2.5000
31
0.0
0
LINE
8
RIOSTRAS
10
27.6800
20
2.5000
30
0.0
11
24.6800
21
2.5000
31
0.0
0
LINE
8
RIOSTRAS
10
24.6800
20
2.5000
30
0.0
11
24.6800
21
2.7000
31
0.0
0
LINE
8
RIOSTRAS
10
28.6800
20
2.7000
30
0.0
11
31.6800
21
2.7000
31
0.0
0
LINE
8
RIOSTRAS
10
31.6800
20
2.7000
30
0.0
11
31.6800
21
2.5000
31
0.0
0
LINE
8
RIOSTRAS
10
31.6800
20
2.5000
30
0.0
11
28.6800
21
2.5000
31
0.0
0
LINE
8
RIOSTRAS
10
28.6800
20
2.5000
30
0.0
11
28.6800
21
2.7000
31
0.0
0
LINE
8
RIOSTRAS
10
20.6800
20
6.2000
30
0.0
11
23.6800
21
6.2000
31
0.0
0
LINE
8
RIOSTRAS
10
23.6800
20
6.2000
30
0.0
11
23.6800
21
6.0000
31
0.0
0
LINE
8
RIOSTRAS
10
23.6800
20
6.0000
30
0.0
11
20.6800
21
6.0000
31
0.0
0
LINE
8
RIOSTRAS
10
20.6800
20
6.0000
30
0.0
11
20.6800
21
6.2000
31
0.0
0
LINE
8
RIOSTRAS
10
24.6800
20
6.2000
30
0.0
11
27.6800
21
6.2000
31
0.0
0
LINE
8
RIOSTRAS
10
27.6800
20
6.2000
30
0.0
11
27.6800
21
6.0000
31
0.0
0
LINE
8
RIOSTRAS
10
27.6800
20
6.0000
30
0.0
11
24.6800
21
6.0000
31
0.0
0
LINE
8
RIOSTRAS
10
24.6800
20
6.0000
30
0.0
11
24.6800
21
6.2000
31
0.0
0
LINE
8
RIOSTRAS
10
28.6800
20
6.2000
30
0.0
11
31.6800
21
6.2000
31
0.0
0
LINE
8
RIOSTRAS
10
31.6800
20
6.2000
30
0.0
11
31.6800
21
6.0000
31
0.0
0
LINE
8
RIOSTRAS
10
31.6800
20
6.0000
30
0.0
11
28.6800
21
6.0000
31
0.0
0
LINE
8
RIOSTRAS
10
28.6800
20
6.0000
30
0.0
11
28.6800
21
6.2000
31
0.0
0
LINE
8
RIOSTRAS
10
20.6800
20
9.7000
30
0.0
11
23.6800
21
9.7000
31
0.0
0
LINE
8
RIOSTRAS
10
23.6800
20
9.7000
30
0.0
11
23.6800
21
9.5000
31
0.0
0
LINE
8
RIOSTRAS
10
23.6800
20
9.5000
30
0.0
11
20.6800
21
9.5000
31
0.0
0
LINE
8
RIOSTRAS
10
20.6800
20
9.5000
30
0.0
11
20.6800
21
9.7000
31
0.0
0
LINE
8
RIOSTRAS
10
24.6800
20
9.7000
30
0.0
11
27.6800
21
9.7000
31
0.0
0
LINE
8
RIOSTRAS
10
27.6800
20
9.7000
30
0.0
11
27.6800
21
9.5000
31
0.0
0
LINE
8
RIOSTRAS
10
27.6800
20
9.5000
30
0.0
11
24.6800
21
9.5000
31
0.0
0
LINE
8
RIOSTRAS
10
24.6800
20
9.5000
30
0.0
11
24.6800
21
9.7000
31
0.0
0
LINE
8
RIOSTRAS
10
28.6800
20
9.7000
30
0.0
11
31.6800
21
9.7000
31
0.0
0
LINE
8
RIOSTRAS
10
31.6800
20
9.7000
30
0.0
11
31.6800
21
9.5000
31
0.0
0
LINE
8
RIOSTRAS
10
31.6800
20
9.5000
30
0.0
11
28.6800
21
9.5000
31
0.0
0
LINE
8
RIOSTRAS
10
28.6800
20
9.5000
30
0.0
11
28.6800
21
9.7000
31
0.0
0
LINE
8
RIOSTRAS
10
20.6800
20
13.7000
30
0.0
11
23.6800
21
13.7000
31
0.0
0
LINE
8
RIOSTRAS
10
23.6800
20
13.7000
30
0.0
11
23.6800
21
13.5000
31
0.0
0
LINE
8
RIOSTRAS
10
23.6800
20
13.5000
30
0.0
11
20.6800
21
13.5000
31
0.0
0
LINE
8
RIOSTRAS
10
20.6800
20
13.5000
30
0.0
11
20.6800
21
13.7000
31
0.0
0
LINE
8
RIOSTRAS
10
24.6800
20
13.7000
30
0.0
11
27.6800
21
13.7000
31
0.0
0
LINE
8
RIOSTRAS
10
27.6800
20
13.7000
30
0.0
11
27.6800
21
13.5000
31
0.0
0
LINE
8
RIOSTRAS
10
27.6800
20
13.5000
30
0.0
11
24.6800
21
13.5000
31
0.0
0
LINE
8
RIOSTRAS
10
24.6800
20
13.5000
30
0.0
11
24.6800
21
13.7000
31
0.0
0
LINE
8
RIOSTRAS
10
28.6800
20
13.7000
30
0.0
11
31.6800
21
13.7000
31
0.0
0
LINE
8
RIOSTRAS
10
31.6800
20
13.7000
30
0.0
11
31.6800
21
13.5000
31
0.0
0
LINE
8
RIOSTRAS
10
31.6800
20
13.5000
30
0.0
11
28.6800
21
13.5000
31
0.0
0
LINE
8
RIOSTRAS
10
28.6800
20
13.5000
30
0.0
11
28.6800
21
13.7000
31
0.0
0
LINE
8
RIOSTRAS
10
20.0800
20
3.1000
30
0.0
11
20.0800
21
5.6000
31
0.0
0
LINE
8
RIOSTRAS
10
20.0800
20
5.6000
30
0.0
11
20.2800
21
5.6000
31
0.0
0
LINE
8
RIOSTRAS
10
20.2800
20
5.6000
30
0.0
11
20.2800
21
3.1000
31
0.0
0
LINE
8
RIOSTRAS
10
20.2800
20
3.1000
30
0.0
11
20.0800
21
3.1000
31
0.0
0
LINE
8
RIOSTRAS
10
20.0800
20
6.6000
30
0.0
11
20.0800
21
9.1000
31
0.0
0
LINE
8
RIOSTRAS
10
20.0800
20
9.1000
30
0.0
11
20.2800
21
9.1000
31
0.0
0
LINE
8
RIOSTRAS
10
20.2800
20
9.1000
30
0.0
11
20.2800
21
6.6000
31
0.0
0
LINE
8
RIOSTRAS
10
20.2800
20
6.6000
30
0.0
11
20.0800
21
6.6000
31
0.0
0
LINE
8
RIOSTRAS
10
20.0800
20
10.1000
30
0.0
11
20.0800
21
13.1000
31
0.0
0
LINE
8
RIOSTRAS
10
20.0800
20
13.1000
30
0.0
11
20.2800
21
13.1000
31
0.0
0
LINE
8
RIOSTRAS
10
20.2800
20
13.1000
30
0.0
11
20.2800
21
10.1000
31
0.0
0
LINE
8
RIOSTRAS
10
20.2800
20
10.1000
30
0.0
11
20.0800
21
10.1000
31
0.0
0
LINE
8
RIOSTRAS
10
24.0800
20
3.1000
30
0.0
11
24.0800
21
5.6000
31
0.0
0
LINE
8
RIOSTRAS
10
24.0800
20
5.6000
30
0.0
11
24.2800
21
5.6000
31
0.0
0
LINE
8
RIOSTRAS
10
24.2800
20
5.6000
30
0.0
11
24.2800
21
3.1000
31
0.0
0
LINE
8
RIOSTRAS
10
24.2800
20
3.1000
30
0.0
11
24.0800
21
3.1000
31
0.0
0
LINE
8
RIOSTRAS
10
24.0800
20
6.6000
30
0.0
11
24.0800
21
9.1000
31
0.0
0
LINE
8
RIOSTRAS
10
24.0800
20
9.1000
30
0.0
11
24.2800
21
9.1000
31
0.0
0
LINE
8
RIOSTRAS
10
24.2800
20
9.1000
30
0.0
11
24.2800
21
6.6000
31
0.0
0
LINE
8
RIOSTRAS
10
24.2800
20
6.6000
30
0.0
11
24.0800
21
6.6000
31
0.0
0
LINE
8
RIOSTRAS
10
24.0800
20
10.1000
30
0.0
11
24.0800
21
13.1000
31
0.0
0
LINE
8
RIOSTRAS
10
24.0800
20
13.1000
30
0.0
11
24.2800
21
13.1000
31
0.0
0
LINE
8
RIOSTRAS
10
24.2800
20
13.1000
30
0.0
11
24.2800
21
10.1000
31
0.0
0
LINE
8
RIOSTRAS
10
24.2800
20
10.1000
30
0.0
11
24.0800
21
10.1000
31
0.0
0
LINE
8
RIOSTRAS
10
28.0800
20
3.1000
30
0.0
11
28.0800
21
5.6000
31
0.0
0
LINE
8
RIOSTRAS
10
28.0800
20
5.6000
30
0.0
11
28.2800
21
5.6000
31
0.0
0
LINE
8
RIOSTRAS
10
28.2800
20
5.6000
30
0.0
11
28.2800
21
3.1000
31
0.0
0
LINE
8
RIOSTRAS
10
28.2800
20
3.1000
30
0.0
11
28.0800
21
3.1000
31
0.0
0
LINE
8
RIOSTRAS
10
28.0800
20
6.6000
30
0.0
11
28.0800
21
9.1000
31
0.0
0
LINE
8
RIOSTRAS
10
28.0800
20
9.1000
30
0.0
11
28.2800
21
9.1000
31
0.0
0
LINE
8
RIOSTRAS
10
28.2800
20
9.1000
30
0.0
11
28.2800
21
6.6000
31
0.0
0
LINE
8
RIOSTRAS
10
28.2800
20
6.6000
30
0.0
11
28.0800
21
6.6000
31
0.0
0
LINE
8
RIOSTRAS
10
28.0800
20
10.1000
30
0.0
11
28.0800
21
13.1000
31
0.0
0
LINE
8
RIOSTRAS
10
28.0800
20
13.1000
30
0.0
11
28.2800
21
13.1000
31
0.0
0
LINE
8
RIOSTRAS
10
28.2800
20
13.1000
30
0.0
11
28.2800
21
10.1000
31
0.0
0
LINE
8
RIOSTRAS
10
28.2800
20
10.1000
30
0.0
11
28.0800
21
10.1000
31
0.0
0
LINE
8
RIOSTRAS
10
32.0800
20
3.1000
30
0.0
11
32.0800
21
5.6000
31
0.0
0
LINE
8
RIOSTRAS
10
32.0800
20
5.6000
30
0.0
11
32.2800
21
5.6000
31
0.0
0
LINE
8
RIOSTRAS
10
32.2800
20
5.6000
30
0.0
11
32.2800
21
3.1000
31
0.0
0
LINE
8
RIOSTRAS
10
32.2800
20
3.1000
30
0.0
11
32.0800
21
3.1000
31
0.0
0
LINE
8
RIOSTRAS
10
32.0800
20
6.6000
30
0.0
11
32.0800
21
9.1000
31
0.0
0
LINE
8
RIOSTRAS
10
32.0800
20
9.1000
30
0.0
11
32.2800
21
9.1000
31
0.0
0
LINE
8
RIOSTRAS
10
32.2800
20
9.1000
30
0.0
11
32.2800
21
6.6000
31
0.0
0
LINE
8
RIOSTRAS
10
32.2800
20
6.6000
30
0.0
11
32.0800
21
6.6000
31
0.0
0
LINE
8
RIOSTRAS
10
32.0800
20
10.1000
30
0.0
11
32.0800
21
13.1000
31
0.0
0
LINE
8
RIOSTRAS
10
32.0800
20
13.1000
30
0.0
11
32.2800
21
13.1000
31
0.0
0
LINE
8
RIOSTRAS
10
32.2800
20
13.1000
30
0.0
11
32.2800
21
10.1000
31
0.0
0
LINE
8
RIOSTRAS
10
32.2800
20
10.1000
30
0.0
11
32.0800
21
10.1000
31
0.0
0
LINE
8
PLINTOS
10
19.6800
20
2.1000
30
0.0
11
20.6800
21
2.1000
31
0.0
0
LINE
8
PLINTOS
10
20.6800
20
2.1000
30
0.0
11
20.6800
21
3.1000
31
0.0
0
LINE
8
PLINTOS
10
20.6800
20
3.1000
30
0.0
11
19.6800
21
3.1000
31
0.0
0
LINE
8
PLINTOS
10
19.6800
20
3.1000
30
0.0
11
19.6800
21
2.1000
31
0.0
0
LINE
8
PLINTOS
10
19.6800
20
5.6000
30
0.0
11
20.6800
21
5.6000
31
0.0
0
LINE
8
PLINTOS
10
20.6800
20
5.6000
30
0.0
11
20.6800
21
6.6000
31
0.0
0
LINE
8
PLINTOS
10
20.6800
20
6.6000
30
0.0
11
19.6800
21
6.6000
31
0.0
0
LINE
8
PLINTOS
10
19.6800
20
6.6000
30
0.0
11
19.6800
21
5.6000
31
0.0
0
LINE
8
PLINTOS
10
19.6800
20
9.1000
30
0.0
11
20.6800
21
9.1000
31
0.0
0
LINE
8
PLINTOS
10
20.6800
20
9.1000
30
0.0
11
20.6800
21
10.1000
31
0.0
0
LINE
8
PLINTOS
10
20.6800
20
10.1000
30
0.0
11
19.6800
21
10.1000
31
0.0
0
LINE
8
PLINTOS
10
19.6800
20
10.1000
30
0.0
11
19.6800
21
9.1000
31
0.0
0
LINE
8
PLINTOS
10
19.6800
20
13.1000
30
0.0
11
20.6800
21
13.1000
31
0.0
0
LINE
8
PLINTOS
10
20.6800
20
13.1000
30
0.0
11
20.6800
21
14.1000
31
0.0
0
LINE
8
PLINTOS
10
20.6800
20
14.1000
30
0.0
11
19.6800
21
14.1000
31
0.0
0
LINE
8
PLINTOS
10
19.6800
20
14.1000
30
0.0
11
19.6800
21
13.1000
31
0.0
0
LINE
8
PLINTOS
10
23.6800
20
2.1000
30
0.0
11
24.6800
21
2.1000
31
0.0
0
LINE
8
PLINTOS
10
24.6800
20
2.1000
30
0.0
11
24.6800
21
3.1000
31
0.0
0
LINE
8
PLINTOS
10
24.6800
20
3.1000
30
0.0
11
23.6800
21
3.1000
31
0.0
0
LINE
8
PLINTOS
10
23.6800
20
3.1000
30
0.0
11
23.6800
21
2.1000
31
0.0
0
LINE
8
PLINTOS
10
23.6800
20
5.6000
30
0.0
11
24.6800
21
5.6000
31
0.0
0
LINE
8
PLINTOS
10
24.6800
20
5.6000
30
0.0
11
24.6800
21
6.6000
31
0.0
0
LINE
8
PLINTOS
10
24.6800
20
6.6000
30
0.0
11
23.6800
21
6.6000
31
0.0
0
LINE
8
PLINTOS
10
23.6800
20
6.6000
30
0.0
11
23.6800
21
5.6000
31
0.0
0
LINE
8
PLINTOS
10
23.6800
20
9.1000
30
0.0
11
24.6800
21
9.1000
31
0.0
0
LINE
8
PLINTOS
10
24.6800
20
9.1000
30
0.0
11
24.6800
21
10.1000
31
0.0
0
LINE
8
PLINTOS
10
24.6800
20
10.1000
30
0.0
11
23.6800
21
10.1000
31
0.0
0
LINE
8
PLINTOS
10
23.6800
20
10.1000
30
0.0
11
23.6800
21
9.1000
31
0.0
0
LINE
8
PLINTOS
10
23.6800
20
13.1000
30
0.0
11
24.6800
21
13.1000
31
0.0
0
LINE
8
PLINTOS
10
24.6800
20
13.1000
30
0.0
11
24.6800
21
14.1000
31
0.0
0
LINE
8
PLINTOS
10
24.6800
20
14.1000
30
0.0
11
23.6800
21
14.1000
31
0.0
0
LINE
8
PLINTOS
10
23.6800
20
14.1000
30
0.0
11
23.6800
21
13.1000
31
0.0
0
LINE
8
PLINTOS
10
27.6800
20
2.1000
30
0.0
11
28.6800
21
2.1000
31
0.0
0
LINE
8
PLINTOS
10
28.6800
20
2.1000
30
0.0
11
28.6800
21
3.1000
31
0.0
0
LINE
8
PLINTOS
10
28.6800
20
3.1000
30
0.0
11
27.6800
21
3.1000
31
0.0
0
LINE
8
PLINTOS
10
27.6800
20
3.1000
30
0.0
11
27.6800
21
2.1000
31
0.0
0
LINE
8
PLINTOS
10
27.6800
20
5.6000
30
0.0
11
28.6800
21
5.6000
31
0.0
0
LINE
8
PLINTOS
10
28.6800
20
5.6000
30
0.0
11
28.6800
21
6.6000
31
0.0
0
LINE
8
PLINTOS
10
28.6800
20
6.6000
30
0.0
11
27.6800
21
6.6000
31
0.0
0
LINE
8
PLINTOS
10
27.6800
20
6.6000
30
0.0
11
27.6800
21
5.6000
31
0.0
0
LINE
8
PLINTOS
10
27.6800
20
9.1000
30
0.0
11
28.6800
21
9.1000
31
0.0
0
LINE
8
PLINTOS
10
28.6800
20
9.1000
30
0.0
11
28.6800
21
10.1000
31
0.0
0
LINE
8
PLINTOS
10
28.6800
20
10.1000
30
0.0
11
27.6800
21
10.1000
31
0.0
0
LINE
8
PLINTOS
10
27.6800
20
10.1000
30
0.0
11
27.6800
21
9.1000
31
0.0
0
LINE
8
PLINTOS
10
27.6800
20
13.1000
30
0.0
11
28.6800
21
13.1000
31
0.0
0
LINE
8
PLINTOS
10
28.6800
20
13.1000
30
0.0
11
28.6800
21
14.1000
31
0.0
0
LINE
8
PLINTOS
10
28.6800
20
14.1000
30
0.0
11
27.6800
21
14.1000
31
0.0
0
LINE
8
PLINTOS
10
27.6800
20
14.1000
30
0.0
11
27.6800
21
13.1000
31
0.0
0
LINE
8
PLINTOS
10
31.6800
20
2.1000
30
0.0
11
32.6800
21
2.1000
31
0.0
0
LINE
8
PLINTOS
10
32.6800
20
2.1000
30
0.0
11
32.6800
21
3.1000
31
0.0
0
LINE
8
PLINTOS
10
32.6800
20
3.1000
30
0.0
11
31.6800
21
3.1000
31
0.0
0
LINE
8
PLINTOS
10
31.6800
20
3.1000
30
0.0
11
31.6800
21
2.1000
31
0.0
0
LINE
8
PLINTOS
10
31.6800
20
5.6000
30
0.0
11
32.6800
21
5.6000
31
0.0
0
LINE
8
PLINTOS
10
32.6800
20
5.6000
30
0.0
11
32.6800
21
6.6000
31
0.0
0
LINE
8
PLINTOS
10
32.6800
20
6.6000
30
0.0
11
31.6800
21
6.6000
31
0.0
0
LINE
8
PLINTOS
10
31.6800
20
6.6000
30
0.0
11
31.6800
21
5.6000
31
0.0
0
LINE
8
PLINTOS
10
31.6800
20
9.1000
30
0.0
11
32.6800
21
9.1000
31
0.0
0
LINE
8
PLINTOS
10
32.6800
20
9.1000
30
0.0
11
32.6800
21
10.1000
31
0.0
0
LINE
8
PLINTOS
10
32.6800
20
10.1000
30
0.0
11
31.6800
21
10.1000
31
0.0
0
LINE
8
PLINTOS
10
31.6800
20
10.1000
30
0.0
11
31.6800
21
9.1000
31
0.0
0
LINE
8
PLINTOS
10
31.6800
20
13.1000
30
0.0
11
32.6800
21
13.1000
31
0.0
0
LINE
8
PLINTOS
10
32.6800
20
13.1000
30
0.0
11
32.6800
21
14.1000
31
0.0
0
LINE
8
PLINTOS
10
32.6800
20
14.1000
30
0.0
11
31.6800
21
14.1000
31
0.0
0
LINE
8
PLINTOS
10
31.6800
20
14.1000
30
0.0
11
31.6800
21
13.1000
31
0.0
0
LINE
8
COLUMNAS
10
20.0300
20
2.4500
30
0.0
11
20.3300
21
2.4500
31
0.0
0
LINE
8
COLUMNAS
10
20.3300
20
2.4500
30
0.0
11
20.3300
21
2.7500
31
0.0
0
LINE
8
COLUMNAS
10
20.3300
20
2.7500
30
0.0
11
20.0300
21
2.7500
31
0.0
0
LINE
8
COLUMNAS
10
20.0300
20
2.7500
30
0.0
11
20.0300
21
2.4500
31
0.0
0
LINE
8
COLUMNAS
10
20.0300
20
5.9500
30
0.0
11
20.3300
21
5.9500
31
0.0
0
LINE
8
COLUMNAS
10
20.3300
20
5.9500
30
0.0
11
20.3300
21
6.2500
31
0.0
0
LINE
8
COLUMNAS
10
20.3300
20
6.2500
30
0.0
11
20.0300
21
6.2500
31
0.0
0
LINE
8
COLUMNAS
10
20.0300
20
6.2500
30
0.0
11
20.0300
21
5.9500
31
0.0
0
LINE
8
COLUMNAS
10
20.0300
20
9.4500
30
0.0
11
20.3300
21
9.4500
31
0.0
0
LINE
8
COLUMNAS
10
20.3300
20
9.4500
30
0.0
11
20.3300
21
9.7500
31
0.0
0
LINE
8
COLUMNAS
10
20.3300
20
9.7500
30
0.0
11
20.0300
21
9.7500
31
0.0
0
LINE
8
COLUMNAS
10
20.0300
20
9.7500
30
0.0
11
20.0300
21
9.4500
31
0.0
0
LINE
8
COLUMNAS
10
20.0300
20
13.4500
30
0.0
11
20.3300
21
13.4500
31
0.0
0
LINE
8
COLUMNAS
10
20.3300
20
13.4500
30
0.0
11
20.3300
21
13.7500
31
0.0
0
LINE
8
COLUMNAS
10
20.3300
20
13.7500
30
0.0
11
20.0300
21
13.7500
31
0.0
0
LINE
8
COLUMNAS
10
20.0300
20
13.7500
30
0.0
11
20.0300
21
13.4500
31
0.0
0
LINE
8
COLUMNAS
10
24.0300
20
2.4500
30
0.0
11
24.3300
21
2.4500
31
0.0
0
LINE
8
COLUMNAS
10
24.3300
20
2.4500
30
0.0
11
24.3300
21
2.7500
31
0.0
0
LINE
8
COLUMNAS
10
24.3300
20
2.7500
30
0.0
11
24.0300
21
2.7500
31
0.0
0
LINE
8
COLUMNAS
10
24.0300
20
2.7500
30
0.0
11
24.0300
21
2.4500
31
0.0
0
LINE
8
COLUMNAS
10
24.0300
20
5.9500
30
0.0
11
24.3300
21
5.9500
31
0.0
0
LINE
8
COLUMNAS
10
24.3300
20
5.9500
30
0.0
11
24.3300
21
6.2500
31
0.0
0
LINE
8
COLUMNAS
10
24.3300
20
6.2500
30
0.0
11
24.0300
21
6.2500
31
0.0
0
LINE
8
COLUMNAS
10
24.0300
20
6.2500
30
0.0
11
24.0300
21
5.9500
31
0.0
0
LINE
8
COLUMNAS
10
24.0300
20
9.4500
30
0.0
11
24.3300
21
9.4500
31
0.0
0
LINE
8
COLUMNAS
10
24.3300
20
9.4500
30
0.0
11
24.3300
21
9.7500
31
0.0
0
LINE
8
COLUMNAS
10
24.3300
20
9.7500
30
0.0
11
24.0300
21
9.7500
31
0.0
0
LINE
8
COLUMNAS
10
24.0300
20
9.7500
30
0.0
11
24.0300
21
9.4500
31
0.0
0
LINE
8
COLUMNAS
10
24.0300
20
13.4500
30
0.0
11
24.3300
21
13.4500
31
0.0
0
LINE
8
COLUMNAS
10
24.3300
20
13.4500
30
0.0
11
24.3300
21
13.7500
31
0.0
0
LINE
8
COLUMNAS
10
24.3300
20
13.7500
30
0.0
11
24.0300
21
13.7500
31
0.0
0
LINE
8
COLUMNAS
10
24.0300
20
13.7500
30
0.0
11
24.0300
21
13.4500
31
0.0
0
LINE
8
COLUMNAS
10
28.0300
20
2.4500
30
0.0
11
28.3300
21
2.4500
31
0.0
0
LINE
8
COLUMNAS
10
28.3300
20
2.4500
30
0.0
11
28.3300
21
2.7500
31
0.0
0
LINE
8
COLUMNAS
10
28.3300
20
2.7500
30
0.0
11
28.0300
21
2.7500
31
0.0
0
LINE
8
COLUMNAS
10
28.0300
20
2.7500
30
0.0
11
28.0300
21
2.4500
31
0.0
0
LINE
8
COLUMNAS
10
28.0300
20
5.9500
30
0.0
11
28.3300
21
5.9500
31
0.0
0
LINE
8
COLUMNAS
10
28.3300
20
5.9500
30
0.0
11
28.3300
21
6.2500
31
0.0
0
LINE
8
COLUMNAS
10
28.3300
20
6.2500
30
0.0
11
28.0300
21
6.2500
31
0.0
0
LINE
8
COLUMNAS
10
28.0300
20
6.2500
30
0.0
11
28.0300
21
5.9500
31
0.0
0
LINE
8
COLUMNAS
10
28.0300
20
9.4500
30
0.0
11
28.3300
21
9.4500
31
0.0
0
LINE
8
COLUMNAS
10
28.3300
20
9.4500
30
0.0
11
28.3300
21
9.7500
31
0.0
0
LINE
8
COLUMNAS
10
28.3300
20
9.7500
30
0.0
11
28.0300
21
9.7500
31
0.0
0
LINE
8
COLUMNAS
10
28.0300
20
9.7500
30
0.0
11
28.0300
21
9.4500
31
0.0
0
LINE
8
COLUMNAS
10
28.0300
20
13.4500
30
0.0
11
28.3300
21
13.4500
31
0.0
0
LINE
8
COLUMNAS
10
28.3300
20
13.4500
30
0.0
11
28.3300
21
13.7500
31
0.0
0
LINE
8
COLUMNAS
10
28.3300
20
13.7500
30
0.0
11
28.0300
21
13.7500
31
0.0
0
LINE
8
COLUMNAS
10
28.0300
20
13.7500
30
0.0
11
28.0300
21
13.4500
31
0.0
0
LINE
8
COLUMNAS
10
32.0300
20
2.4500
30
0.0
11
32.3300
21
2.4500
31
0.0
0
LINE
8
COLUMNAS
10
32.3300
20
2.4500
30
0.0
11
32.3300
21
2.7500
31
0.0
0
LINE
8
COLUMNAS
10
32.3300
20
2.7500
30
0.0
11
32.0300
21
2.7500
31
0.0
0
LINE
8
COLUMNAS
10
32.0300
20
2.7500
30
0.0
11
32.0300
21
2.4500
31
0.0
0
LINE
8
COLUMNAS
10
32.0300
20
5.9500
30
0.0
11
32.3300
21
5.9500
31
0.0
0
LINE
8
COLUMNAS
10
32.3300
20
5.9500
30
0.0
11
32.3300
21
6.2500
31
0.0
0
LINE
8
COLUMNAS
10
32.3300
20
6.2500
30
0.0
11
32.0300
21
6.2500
31
0.0
0
LINE
8
COLUMNAS
10
32.0300
20
6.2500
30
0.0
11
32.0300
21
5.9500
31
0.0
0
LINE
8
COLUMNAS
10
32.0300
20
9.4500
30
0.0
11
32.3300
21
9.4500
31
0.0
0
LINE
8
COLUMNAS
10
32.3300
20
9.4500
30
0.0
11
32.3300
21
9.7500
31
0.0
0
LINE
8
COLUMNAS
10
32.3300
20
9.7500
30
0.0
11
32.0300
21
9.7500
31
0.0
0
LINE
8
COLUMNAS
10
32.0300
20
9.7500
30
0.0
11
32.0300
21
9.4500
31
0.0
0
LINE
8
COLUMNAS
10
32.0300
20
13.4500
30
0.0
11
32.3300
21
13.4500
31
0.0
0
LINE
8
COLUMNAS
10
32.3300
20
13.4500
30
0.0
11
32.3300
21
13.7500
31
0.0
0
LINE
8
COLUMNAS
10
32.3300
20
13.7500
30
0.0
11
32.0300
21
13.7500
31
0.0
0
LINE
8
COLUMNAS
10
32.0300
20
13.7500
30
0.0
11
32.0300
21
13.4500
31
0.0
0
TEXT
8
TEXTOS
10
20.1800
20
14.3200
30
0.0
40
0.1600
1
PLINTO 1.00x1.00
72
1
11
20.1800
21
14.3200
31
0.0
0
TEXT
8
TEXTOS
10
22.1800
20
2.5800
30
0.0
40
0.1500
1
RIOSTRA e=0.20
72
1
11
22.1800
21
2.5800
31
0.0
0
LINE
8
COTAS
10
20.1800
20
0.7000
30
0.0
11
24.1800
21
0.7000
31
0.0
0
LINE
8
COTAS
10
20.1800
20
0.6000
30
0.0
11
20.1800
21
0.8000
31
0.0
0
LINE
8
COTAS
10
24.1800
20
0.6000
30
0.0
11
24.1800
21
0.8000
31
0.0
0
TEXT
8
COTAS
10
22.1800
20
0.8200
30
0.0
40
0.1800
1
4.00
72
1
11
22.1800
21
0.8200
31
0.0
0
LINE
8
COTAS
10
24.1800
20
0.7000
30
0.0
11
28.1800
21
0.7000
31
0.0
0
LINE
8
COTAS
10
24.1800
20
0.6000
30
0.0
11
24.1800
21
0.8000
31
0.0
0
LINE
8
COTAS
10
28.1800
20
0.6000
30
0.0
11
28.1800
21
0.8000
31
0.0
0
TEXT
8
COTAS
10
26.1800
20
0.8200
30
0.0
40
0.1800
1
4.00
72
1
11
26.1800
21
0.8200
31
0.0
0
LINE
8
COTAS
10
28.1800
20
0.7000
30
0.0
11
32.1800
21
0.7000
31
0.0
0
LINE
8
COTAS
10
28.1800
20
0.6000
30
0.0
11
28.1800
21
0.8000
31
0.0
0
LINE
8
COTAS
10
32.1800
20
0.6000
30
0.0
11
32.1800
21
0.8000
31
0.0
0
TEXT
8
COTAS
10
30.1800
20
0.8200
30
0.0
40
0.1800
1
4.00
72
1
11
30.1800
21
0.8200
31
0.0
0
LINE
8
COTAS
10
20.1800
20
0.1000
30
0.0
11
32.1800
21
0.1000
31
0.0
0
LINE
8
COTAS
10
20.1800
20
0.0000
30
0.0
11
20.1800
21
0.2000
31
0.0
0
LINE
8
COTAS
10
32.1800
20
0.0000
30
0.0
11
32.1800
21
0.2000
31
0.0
0
TEXT
8
COTAS
10
26.1800
20
0.2200
30
0.0
40
0.1800
1
12.00
72
1
11
26.1800
21
0.2200
31
0.0
0
LINE
8
COTAS
10
34.0800
20
2.6000
30
0.0
11
34.0800
21
6.1000
31
0.0
0
LINE
8
COTAS
10
33.9800
20
2.6000
30
0.0
11
34.1800
21
2.6000
31
0.0
0
LINE
8
COTAS
10
33.9800
20
6.1000
30
0.0
11
34.1800
21
6.1000
31
0.0
0
TEXT
8
COTAS
10
34.2200
20
4.2600
30
0.0
40
0.1800
1
3.50
0
LINE
8
COTAS
10
34.0800
20
6.1000
30
0.0
11
34.0800
21
9.6000
31
0.0
0
LINE
8
COTAS
10
33.9800
20
6.1000
30
0.0
11
34.1800
21
6.1000
31
0.0
0
LINE
8
COTAS
10
33.9800
20
9.6000
30
0.0
11
34.1800
21
9.6000
31
0.0
0
TEXT
8
COTAS
10
34.2200
20
7.7600
30
0.0
40
0.1800
1
3.50
0
LINE
8
COTAS
10
34.0800
20
9.6000
30
0.0
11
34.0800
21
13.6000
31
0.0
0
LINE
8
COTAS
10
33.9800
20
9.6000
30
0.0
11
34.1800
21
9.6000
31
0.0
0
LINE
8
COTAS
10
33.9800
20
13.6000
30
0.0
11
34.1800
21
13.6000
31
0.0
0
TEXT
8
COTAS
10
34.2200
20
11.5100
30
0.0
40
0.1800
1
4.00
0
LINE
8
COTAS
10
34.6800
20
2.6000
30
0.0
11
34.6800
21
13.6000
31
0.0
0
LINE
8
COTAS
10
34.5800
20
2.6000
30
0.0
11
34.7800
21
2.6000
31
0.0
0
LINE
8
COTAS
10
34.5800
20
13.6000
30
0.0
11
34.7800
21
13.6000
31
0.0
0
TEXT
8
COTAS
10
34.8200
20
8.0100
30
0.0
40
0.1800
1
11.00
0
TEXT
8
TEXTOS
10
26.1800
20
15.1000
30
0.0
40
0.3400
1
04 - PLANTA DE CIMENTACION
72
1
11
26.1800
21
15.1000
31
0.0
0
LINE
8
MEMBRETE
10
29.3200
20
-3.1500
30
0.0
11
35.7200
21
-3.1500
31
0.0
0
LINE
8
MEMBRETE
10
35.7200
20
-3.1500
30
0.0
11
35.7200
21
-0.6000
31
0.0
0
LINE
8
MEMBRETE
10
35.7200
20
-0.6000
30
0.0
11
29.3200
21
-0.6000
31
0.0
0
LINE
8
MEMBRETE
10
29.3200
20
-0.6000
30
0.0
11
29.3200
21
-3.1500
31
0.0
0
LINE
8
MEMBRETE
10
29.3200
20
-1.1500
30
0.0
11
35.7200
21
-1.1500
31
0.0
0
LINE
8
MEMBRETE
10
29.3200
20
-1.6500
30
0.0
11
35.7200
21
-1.6500
31
0.0
0
LINE
8
MEMBRETE
10
29.3200
20
-2.1500
30
0.0
11
35.7200
21
-2.1500
31
0.0
0
LINE
8
MEMBRETE
10
29.3200
20
-2.6500
30
0.0
11
35.7200
21
-2.6500
31
0.0
0
LINE
8
MEMBRETE
10
32.5200
20
-2.1500
30
0.0
11
32.5200
21
-3.1500
31
0.0
0
LINE
8
MEMBRETE
10
31.4533
20
-2.6500
30
0.0
11
31.4533
21
-3.1500
31
0.0
0
LINE
8
MEMBRETE
10
33.5867
20
-2.6500
30
0.0
11
33.5867
21
-3.1500
31
0.0
0
TEXT
8
MEMBRETE
10
32.5200
20
-0.9850
30
0.0
40
0.2200
1
PROYECTO: CASA 3 NIVELES
72
1
11
32.5200
21
-0.9850
31
0.0
0
TEXT
8
MEMBRETE
10
29.4600
20
-1.4850
30
0.0
40
0.1700
1
DIBUJANTE:  John Ariel Martinez
0
TEXT
8
MEMBRETE
10
29.4600
20
-1.9850
30
0.0
40
0.1700
1
ASIGNATURA:  Planos Digitales
0
TEXT
8
MEMBRETE
10
29.4600
20
-2.4850
30
0.0
40
0.1700
1
Segundo Parcial
0
TEXT
8
MEMBRETE
10
32.6600
20
-2.4850
30
0.0
40
0.1700
1
CARRERA:  Ingenieria Civil
0
TEXT
8
MEMBRETE
10
29.4600
20
-2.9850
30
0.0
40
0.1700
1
FECHA: 2026-07-13
0
TEXT
8
MEMBRETE
10
31.5933
20
-2.9850
30
0.0
40
0.1700
1
ESC: indicada
0
TEXT
8
MEMBRETE
10
33.7267
20
-2.9850
30
0.0
40
0.1700
1
LAMINA: 00
0
LINE
8
MARCO
10
-0.9000
20
-3.4500
30
0.0
11
35.7200
21
-3.4500
31
0.0
0
LINE
8
MARCO
10
35.7200
20
-3.4500
30
0.0
11
35.7200
21
33.6000
31
0.0
0
LINE
8
MARCO
10
35.7200
20
33.6000
30
0.0
11
-0.9000
21
33.6000
31
0.0
0
LINE
8
MARCO
10
-0.9000
20
33.6000
30
0.0
11
-0.9000
21
-3.4500
31
0.0
0
LINE
8
MARCO
10
-0.8000
20
-3.3500
30
0.0
11
35.6200
21
-3.3500
31
0.0
0
LINE
8
MARCO
10
35.6200
20
-3.3500
30
0.0
11
35.6200
21
33.5000
31
0.0
0
LINE
8
MARCO
10
35.6200
20
33.5000
30
0.0
11
-0.8000
21
33.5000
31
0.0
0
LINE
8
MARCO
10
-0.8000
20
33.5000
30
0.0
11
-0.8000
21
-3.3500
31
0.0
0
ENDSEC
0
EOF
